<?xml version="1.0" standalone="no"?>
<!DOCTYPE svg PUBLIC "-//W3C//DTD SVG 1.1//EN" "http://www.w3.org/Graphics/SVG/1.1/DTD/svg11.dtd" >
<svg xmlns="http://www.w3.org/2000/svg" xmlns:xlink="http://www.w3.org/1999/xlink" version="1.1">
<metadata></metadata>
<defs>
<font id="milkshakeregular" horiz-adv-x="911" >
<font-face units-per-em="2048" ascent="1638" descent="-410" />
<missing-glyph horiz-adv-x="430" />
<glyph horiz-adv-x="0" />
<glyph horiz-adv-x="682" />
<glyph unicode=" "  horiz-adv-x="430" />
<glyph unicode="&#x09;" horiz-adv-x="430" />
<glyph unicode="&#xa0;" horiz-adv-x="430" />
<glyph unicode="!" horiz-adv-x="589" d="M106 90q0 58 49.5 113t110.5 55q47 0 77 -28t30 -76q0 -60 -47 -116t-113 -56q-49 0 -78 29t-29 79zM205 367q0 19 70.5 245t141 469.5t70.5 307.5q0 34 58 34q54 0 126 -55.5t72 -110.5q0 -35 -60.5 -178t-147.5 -342t-127 -307q-19 -55 -58 -72q-56 -26 -106 -26 q-39 0 -39 35z" />
<glyph unicode="&#x22;" horiz-adv-x="557" d="M106 1040q0 42 46 310q14 82 124 82q58 0 83.5 -18t25.5 -54q0 -20 -21.5 -70t-46 -97t-51.5 -96.5t-30 -56.5q-16 -31 -32.5 -46t-45.5 -15q-33 0 -42.5 14t-9.5 47zM414 1040q0 48 45 310q14 82 125 82q58 0 83 -17.5t25 -54.5q0 -20 -21.5 -70t-46 -97t-51.5 -96.5 t-30 -56.5q-16 -31 -32.5 -46t-45.5 -15q-33 0 -42 14t-9 47z" />
<glyph unicode="#" horiz-adv-x="925" d="M16 565q0 28 21 57t49 29h111l82 197h-115q-37 0 -37 43q0 30 14 57t41 27h142l84 211q11 35 73 35q24 0 42 -17t18 -39l-74 -190h158l77 215q5 16 31.5 23.5t46.5 7.5q23 0 39.5 -17t16.5 -39q0 -6 -64 -190h115q19 0 33 -9t14 -28q0 -30 -17 -60t-43 -30h-145l-70 -199 h101q33 0 33 -53q0 -26 -17 -49t-43 -23h-125l-69 -209q-13 -34 -66 -34q-26 0 -48 12.5t-22 34.5q0 7 4 23t12 38.5t15.5 43.5t17.5 48.5t15 42.5h-176l-84 -219q-10 -24 -76 -24q-24 0 -38.5 15.5t-14.5 37.5q0 13 67 190h-86q-19 0 -31 13.5t-12 27.5zM344 651h170 l72 195h-160z" />
<glyph unicode="$" horiz-adv-x="942" d="M12 326q0 66 47 124.5t112.5 90.5t127.5 32q31 0 31 -20q0 -9 -11 -25.5t-25 -36t-25 -57.5t-11 -84q0 -67 35.5 -106t97.5 -39q59 0 97 46.5t38 119.5q0 60 -27 120t-65.5 110t-77 99.5t-65.5 107.5t-27 114q0 118 91.5 216.5t232.5 125.5l26 75q8 27 29.5 39.5 t71.5 12.5q104 0 104 -52l-24 -77q90 -22 134 -74t44 -111q0 -55 -45 -109t-101 -84t-96 -30q-13 0 -22 9t-9 22q0 8 12 31t24 60.5t12 82.5t-21.5 69.5t-60.5 24.5q-58 0 -94.5 -37.5t-36.5 -105.5q0 -44 26.5 -93.5t64 -96.5t75 -97.5t64 -114.5t26.5 -129 q0 -145 -91.5 -246t-234.5 -133l-23 -67q-8 -27 -29 -39t-71 -12q-104 0 -104 51l20 65q-107 23 -176.5 84t-69.5 144z" />
<glyph unicode="%" horiz-adv-x="1216" d="M25 1149q0 120 83.5 204.5t202.5 84.5q120 0 204.5 -84.5t84.5 -204.5q0 -119 -84.5 -203t-204.5 -84q-118 0 -202 84t-84 203zM158 51q0 11 12 43l739 1336q23 36 54 36q68 0 123 -14t55 -33q0 -31 -33 -88l-731 -1308q-14 -35 -55 -35q-164 0 -164 63zM186 1149 q0 -53 36 -89t89 -36t89 36t36 89t-36 89t-89 36t-89 -36t-36 -89zM702 293q0 119 84.5 203t204.5 84q119 0 203 -84t84 -203q0 -120 -84 -204.5t-203 -84.5q-120 0 -204.5 84.5t-84.5 204.5zM864 293q0 -53 37 -90t90 -37q52 0 87.5 37t35.5 90t-35 88t-88 35t-90 -35.5 t-37 -87.5z" />
<glyph unicode="&#x26;" horiz-adv-x="1460" d="M41 1247q0 70 87 143.5t140 73.5q8 0 13.5 -5.5t5.5 -12.5q0 -3 -18.5 -36t-18.5 -62q0 -98 108 -166q65 127 227 214t324 87q111 0 188 -51.5t77 -131.5q0 -76 -74.5 -140t-201.5 -101t-275 -37h-37q0 -44 12 -86.5t24 -63.5l13 -20q57 12 141 12q121 0 121 -71 q0 -34 -37.5 -64.5t-93.5 -30.5q-44 0 -85.5 10t-60.5 20l-20 9q-6 -3 -15.5 -9t-37.5 -26t-53.5 -43t-56.5 -60.5t-53.5 -77.5t-38 -94t-15.5 -110q0 -128 74 -197t204 -69q139 0 252.5 103.5t153.5 236.5q-132 -63 -223 -63q-75 0 -112.5 28.5t-37.5 75.5q0 63 64.5 124.5 t152.5 97.5t160 36q106 0 160 -51q75 95 75 166q0 27 -15 43t-40 16q-30 0 -78 -26.5t-53 -26.5q-35 0 -35 33q0 20 46.5 59t117.5 72t127 33q57 0 94 -35t37 -92q0 -81 -61.5 -172t-161.5 -174q2 -12 2 -39q0 -92 -59 -191t-153.5 -179.5t-226.5 -132.5t-266 -52 q-89 0 -172 21.5t-154 64t-114 116t-43 168.5q0 73 24 140.5t62 116t84 90.5t92 69t84 46t62 27l24 9q-6 4 -16 10.5t-35.5 30t-45 49.5t-35.5 66.5t-17 83.5q-132 28 -209.5 78t-77.5 120zM598 1122q176 0 293 56.5t117 144.5q0 32 -30.5 52t-74.5 20q-95 0 -184 -78 t-121 -195zM805 475q0 -39 47 -39q78 0 176 66q-5 100 -86 100q-38 0 -87.5 -43.5t-49.5 -83.5z" />
<glyph unicode="'" horiz-adv-x="299" d="M104 1040q0 42 46 310q14 82 124 82q58 0 83.5 -18t25.5 -54q0 -25 -31.5 -93t-75 -147t-43.5 -80q-16 -32 -32 -46.5t-45 -14.5q-33 0 -42.5 14t-9.5 47z" />
<glyph unicode="(" horiz-adv-x="393" d="M0 453q0 133 48 272.5t117.5 252t166 225.5t175.5 187.5t163 143.5q44 35 65 35q18 0 31.5 -14.5t13.5 -30.5q0 -22 -43 -68q-61 -66 -121 -144.5t-127.5 -189t-117.5 -223t-83.5 -247t-33.5 -261.5q0 -147 22.5 -233t69.5 -172q12 -30 12 -39q0 -14 -13 -26.5t-28 -12.5 q-16 0 -47 26q-18 14 -41 36t-66.5 74.5t-77 108.5t-59.5 137.5t-26 162.5z" />
<glyph unicode=")" horiz-adv-x="616" d="M-41 -47q0 21 43 67q61 66 121 144.5t127.5 189t117.5 223t83.5 247t33.5 261.5q0 147 -22.5 233.5t-69.5 172.5q-12 30 -12 39q0 14 13 26.5t28 12.5t47 -27q18 -14 41 -35.5t66.5 -74t77 -108.5t59.5 -137.5t26 -162.5q0 -133 -47.5 -272.5t-117.5 -252t-166 -225.5 t-175 -187.5t-163 -143.5q-44 -35 -66 -35q-18 0 -31.5 14.5t-13.5 30.5z" />
<glyph unicode="*" horiz-adv-x="552" d="M0 1079q0 29 27 43q25 15 53 27.5t55 22.5t31 12q-23 12 -137 63q-27 12 -27 41q0 27 22 58.5t48 31.5q12 0 31 -11.5t34.5 -24.5t40 -33.5t33.5 -28.5q0 17 -3 78t-3 88q0 20 19.5 35.5t51.5 15.5q34 0 53 -15t19 -36q0 -6 -4 -77.5t-4 -88.5q6 5 41.5 33.5t62 45.5 t43.5 17q23 0 44.5 -33.5t21.5 -60.5q0 -29 -23 -37q-104 -47 -151 -57q29 -11 86 -35.5t61 -26.5q14 -7 20.5 -15.5t6.5 -25.5q0 -28 -20 -59t-46 -31q-15 0 -71 34t-80 56q12 -122 12 -167q0 -19 -18.5 -36.5t-53.5 -17.5q-32 0 -51.5 18t-19.5 36q0 46 10 169 q-26 -30 -73.5 -62t-73.5 -32q-23 0 -45.5 30.5t-22.5 55.5z" />
<glyph unicode="+" horiz-adv-x="937" d="M31 717q0 32 11 62t28 30h301v299q0 20 30 31.5t62 11.5t64 -11t32 -28v-303h299q20 0 31.5 -30t11.5 -62t-11 -64t-28 -32h-303v-297q0 -20 -31.5 -31.5t-64.5 -11.5q-32 0 -62 10.5t-30 27.5v302h-297q-20 0 -31.5 31.5t-11.5 64.5z" />
<glyph unicode="," horiz-adv-x="368" d="M68 -174q0 15 16 40t32.5 62t16.5 80q0 19 -15.5 47t-15.5 49q0 46 33 77.5t84 31.5q109 0 109 -111q0 -51 -30 -108t-69.5 -98.5t-77 -69t-53.5 -27.5q-13 0 -21.5 7.5t-8.5 19.5z" />
<glyph unicode="-" horiz-adv-x="890" d="M35 643q0 12 8.5 20.5t17.5 8.5t51 -24.5t83 -24.5q115 0 282.5 23.5t218.5 23.5q49 0 111.5 -67t62.5 -99q0 -11 -11 -22t-19 -11q-1 0 -47.5 20.5t-87.5 20.5q-66 0 -137.5 -17t-122 -37.5t-109 -37.5t-100.5 -17q-48 0 -97.5 52.5t-76.5 108t-27 79.5z" />
<glyph unicode="." horiz-adv-x="503" d="M121 90q0 58 49.5 113t110.5 55q47 0 76.5 -28t29.5 -76q0 -60 -47 -116t-113 -56q-49 0 -77.5 29t-28.5 79z" />
<glyph unicode="/" horiz-adv-x="743" d="M84 20q0 12 10 35l541 1409q5 12 18 21.5t27 9.5q56 0 108 -13.5t52 -31.5q0 -17 -13 -47l-542 -1387q-11 -28 -45 -28h-86q-17 0 -26.5 0.5t-21 3.5t-17 10t-5.5 18z" />
<glyph unicode="0" horiz-adv-x="1263" d="M20 354q0 130 42 266.5t112 254.5t162.5 224t192 181.5t203 119.5t192.5 44q142 0 230.5 -79t88.5 -228q0 -79 -23.5 -181t-68.5 -211.5t-104.5 -219.5t-136.5 -208.5t-160 -174.5t-179 -120.5t-190 -44.5q-73 0 -137 23.5t-114.5 68.5t-80 118.5t-29.5 166.5zM299 322 q0 -99 42 -154t110 -55q76 0 156.5 80.5t144 204.5t114.5 266.5t79 274.5t28 220q0 68 -27.5 104.5t-71.5 36.5q-76 0 -177 -90.5t-188.5 -228t-148.5 -318t-61 -341.5z" />
<glyph unicode="1" horiz-adv-x="671" d="M25 1016q0 42 28.5 91.5t52 75t60.5 60.5q21 21 35 21q9 0 14.5 -6.5t5.5 -14.5q0 -51 22 -82t64 -31q31 0 65.5 7t53.5 15l18 7q5 11 14.5 28.5t38.5 63t59 80.5t73 63.5t82 28.5q41 0 72.5 -30t31.5 -70q0 -43 -46 -107t-120 -122q-38 -29 -106.5 -155t-135.5 -285.5 t-117 -338t-50 -295.5q0 -21 -7 -30.5t-30 -9.5q-41 0 -108.5 60t-67.5 110q0 46 17.5 115.5t46 145.5t62 154t69.5 153t64 129.5t50 96.5t22 43q-123 -74 -223 -74q-44 0 -77 29.5t-33 73.5z" />
<glyph unicode="2" horiz-adv-x="1146" d="M-162 164q0 82 68.5 144.5t169.5 62.5q37 0 96.5 -12.5t96 -22.5t126.5 -37q102 86 200.5 196.5t179 229t130 240t49.5 217.5q0 65 -44.5 104t-110.5 39q-76 0 -168.5 -63.5t-160 -167.5t-67.5 -205q0 -40 10 -68t26.5 -39.5t29 -15.5t25.5 -4q24 0 24 -21 q0 -25 -47.5 -57.5t-118.5 -32.5q-56 0 -108.5 23t-88.5 69.5t-36 106.5q0 100 47.5 194t127 165t178.5 125t206.5 82t206.5 28q164 0 266 -86t102 -232q0 -113 -100.5 -274t-250.5 -315.5t-322 -288.5q138 -31 231 -31q53 0 102.5 16.5t77.5 37t51 37t31 16.5q11 0 18 -6 t7 -15q0 -12 -17 -47t-50 -82t-73.5 -90.5t-95 -73.5t-108.5 -30q-47 0 -115 23t-114 45t-134 67q-211 -135 -328 -135q-99 0 -162 54t-63 130zM-18 178q0 -29 21.5 -43t51.5 -14q75 0 187 67q-105 45 -168 45q-43 0 -67.5 -16.5t-24.5 -38.5z" />
<glyph unicode="3" horiz-adv-x="1126" d="M-49 238q0 45 40 90.5t91.5 74.5t95.5 47.5t58 18.5q30 0 30 -23q0 -13 -16 -32q-68 -86 -68 -156q0 -62 50 -110t135 -48q74 0 147 41.5t130.5 113t93.5 178t36 226.5q0 87 -41 138t-115 51q-53 -57 -131.5 -108.5t-154.5 -51.5q-43 0 -69.5 24t-26.5 62t30.5 70.5 t73.5 51t86 31.5t74 18l30 5l187 172q-48 0 -97 2t-117 11t-118.5 23t-86.5 41.5t-36 64.5t37 72.5t87.5 58t99 36t75.5 13.5q33 0 33 -27q0 -8 -21.5 -31.5t-21.5 -44.5q0 -43 89 -71.5t204 -28.5q5 8 14.5 22t38.5 49t58.5 61.5t70.5 48.5t78 22q46 0 73 -25.5t27 -68.5 q0 -64 -67.5 -117t-188.5 -80l-215 -199q49 0 95 -10t91.5 -34.5t79.5 -60.5t55 -93t21 -127q0 -130 -64.5 -252.5t-165.5 -208t-227 -137t-247 -51.5q-183 0 -301.5 71.5t-118.5 186.5z" />
<glyph unicode="4" horiz-adv-x="1325" d="M59 641q0 63 54 98t123 35q44 0 91 -6t72 -12l25 -6q10 11 26 29.5t58 74.5t74 110t58 125t26 130q0 36 -22 57.5t-54 21.5q-36 0 -87.5 -25.5t-56.5 -25.5q-10 0 -20 10t-10 21q0 21 49.5 60.5t125 72.5t136.5 33q81 0 137 -40.5t56 -117.5q0 -56 -34.5 -136t-83.5 -155 t-98 -142t-84 -107l-34 -41q106 -60 239 -89q94 230 205 435.5t193 285.5q50 50 137 78.5t131 28.5q18 0 18 -21q0 -7 -16 -26.5t-50 -63t-65 -90.5q-54 -82 -151.5 -262t-177.5 -375q99 18 180 80q17 14 28 14q9 0 16 -7t7 -13q0 -14 -10 -31q-20 -34 -46 -69.5t-66 -80 t-90.5 -76t-100.5 -38.5q-66 -222 -66 -369q0 -36 -35 -36q-30 0 -73 21.5t-79 63.5t-36 87q0 73 76 282q-54 25 -123.5 67.5t-113.5 68.5t-62 26q-5 -3 -14 -9t-36.5 -20.5t-56 -25.5t-68 -20t-75.5 -9q-56 0 -101 38.5t-45 90.5z" />
<glyph unicode="5" horiz-adv-x="1054" d="M-131 238q0 45 40 90.5t91.5 74.5t95.5 47.5t58 18.5q30 0 30 -23q0 -13 -16 -32q-68 -86 -68 -156q0 -63 53.5 -110.5t153.5 -47.5q102 0 190 68.5t141.5 189t53.5 263.5q0 57 -13 98.5t-32 64.5t-46.5 36.5t-51 17.5t-51.5 4q-17 0 -37 -6t-31 -12l-12 -5 q-4 -8 -12 -21t-32.5 -47t-49 -60t-58.5 -47t-65 -21q-42 0 -68.5 26.5t-26.5 65.5q0 27 19.5 55.5t47.5 49.5t55.5 39t47.5 27l19 9l135 281q-11 9 -26.5 24t-41.5 54t-26 69q0 55 37 88t84 33q34 0 60.5 -16.5t39.5 -40t22 -47t11 -40.5l2 -16q47 -16 94 -16q118 0 248 46 t209 111q25 19 41 19q11 0 22 -10.5t11 -20.5q0 -15 -21 -49q-41 -65 -95 -128.5t-121.5 -113t-119.5 -49.5q-44 0 -117 13.5t-125 27.5l-51 14l-92 -206q39 20 117 20q72 0 141.5 -19.5t128.5 -57t95 -99.5t36 -139q0 -130 -64.5 -251.5t-165.5 -207t-227 -137t-247 -51.5 q-183 0 -301.5 71.5t-118.5 186.5z" />
<glyph unicode="6" horiz-adv-x="1155" d="M25 440q0 122 43 248.5t115 235.5t167.5 206t198 165.5t209.5 108.5t200 40q205 0 205 -133q0 -55 -42.5 -113t-91.5 -91.5t-75 -33.5q-39 0 -39 35q0 10 14.5 32t29 55.5t14.5 70.5q0 23 -17 39t-43 16q-68 0 -149.5 -51t-159.5 -141.5t-143 -202t-104.5 -245.5 t-39.5 -259q0 -156 61 -238t152 -82q84 0 167 77t136.5 206t53.5 268q0 60 -32.5 91.5t-78.5 31.5q-66 0 -139.5 -39t-130.5 -96q-18 -18 -29 -18q-10 0 -20.5 8t-10.5 20q0 29 42 79.5t105 100.5t149.5 86.5t164.5 36.5q110 0 182 -62t72 -183q0 -132 -62.5 -266 t-159.5 -235t-221.5 -164.5t-242.5 -63.5q-55 0 -113 14t-119.5 48.5t-109 85t-78 131.5t-30.5 181z" />
<glyph unicode="7" horiz-adv-x="802" d="M20 1208q0 55 57.5 112.5t124.5 90.5t105 33q27 0 27 -23q0 -5 -18.5 -35t-18.5 -55q0 -66 93 -107.5t282 -41.5q92 120 166.5 180.5t146.5 60.5q44 0 72 -26t28 -70q0 -64 -74 -129t-214 -121q-151 -176 -298 -477t-147 -465q0 -32 8.5 -75.5t8.5 -51.5q0 -12 -9 -20 t-22 -8q-58 0 -117 26.5t-102 79t-43 117.5q0 67 51 178.5t124 222.5t145.5 213t123.5 166l51 64h-74t-74 1t-76.5 3.5t-71.5 6t-69 10t-60 15t-53 20.5t-38 27t-26.5 35t-8.5 43z" />
<glyph unicode="8" horiz-adv-x="1040" d="M-57 260q0 55 30 112t65 97.5t114.5 100.5t122.5 88.5t146 93.5q17 11 25 16q-82 84 -106 119q-47 67 -47 133q0 59 35 114.5t87.5 94t114 68t115.5 43.5t90 14q20 0 32.5 -8.5t12.5 -20.5q0 -22 -39 -39q-23 -10 -47.5 -23t-66 -39.5t-67 -61.5t-25.5 -72 q0 -102 88 -207q144 100 222.5 191.5t78.5 193.5q0 25 -10.5 46t-30 36.5t-31.5 22.5t-31 16q-28 14 -28 28q0 11 9.5 19t24.5 8q73 0 150 -22t135.5 -70.5t58.5 -110.5q0 -46 -27.5 -93t-98.5 -108t-117 -95t-156 -111q-41 -29 -61 -43q43 -44 67.5 -72t54.5 -71t44 -87.5 t14 -93.5q0 -121 -44 -217t-116.5 -153.5t-159.5 -87t-180 -29.5q-77 0 -155.5 19.5t-144 54.5t-107 89t-41.5 117zM225 201q0 -50 37 -82.5t88 -32.5q102 0 182 102t80 242q0 128 -73 232q-147 -116 -230.5 -228.5t-83.5 -232.5z" />
<glyph unicode="9" horiz-adv-x="1179" d="M20 25q0 12 11.5 22t25.5 10q124 0 254 68.5t238.5 183t195.5 253.5t136 292t49 287q0 81 -40 126.5t-102 45.5q-91 0 -182.5 -76t-150 -195t-58.5 -237q0 -191 156 -260q17 -7 23.5 -11t12 -11.5t5.5 -18.5q0 -31 -70 -31q-48 0 -101.5 12.5t-110 41t-101.5 68.5 t-73.5 101t-28.5 133q0 81 40.5 168.5t115.5 166.5t172 142t219 100.5t247 37.5q157 0 247.5 -77.5t90.5 -236.5q0 -129 -45.5 -268t-123 -265t-186.5 -239.5t-230.5 -196.5t-260.5 -132t-272 -49q-103 0 -103 45z" />
<glyph unicode=":" horiz-adv-x="499" d="M162 252q0 55 44.5 106.5t102.5 51.5q40 0 65 -28.5t25 -70.5q0 -58 -43.5 -108.5t-107.5 -50.5q-37 0 -61.5 28.5t-24.5 71.5zM264 596q0 55 45 106.5t103 51.5q39 0 64.5 -28.5t25.5 -70.5q0 -58 -45 -108.5t-109 -50.5q-37 0 -60.5 28.5t-23.5 71.5z" />
<glyph unicode=";" horiz-adv-x="481" d="M123 10q0 15 16.5 40t32.5 62.5t16 80.5q0 19 -14 47t-14 49q0 46 32 77t82 31q109 0 109 -110q0 -51 -30 -108t-69.5 -98.5t-76.5 -69t-53 -27.5q-14 0 -22.5 7t-8.5 19zM244 637q0 55 44.5 106.5t102.5 51.5q39 0 64.5 -28.5t25.5 -70.5q0 -58 -44.5 -108.5 t-108.5 -50.5q-37 0 -60.5 28.5t-23.5 71.5z" />
<glyph unicode="&#x3c;" horiz-adv-x="638" d="M16 721q0 40 45 78q457 327 471 327q22 0 41 -53.5t19 -81.5q0 -21 -19 -35l-348 -233l344 -225q19 -14 19 -39q0 -26 -15.5 -80.5t-40.5 -54.5q-6 0 -127.5 81t-239.5 163l-118 81q-31 24 -31 72z" />
<glyph unicode="=" horiz-adv-x="931" d="M41 510q0 26 31.5 91t54.5 65h686q22 0 29.5 -6t7.5 -23q0 -25 -34 -92.5t-58 -67.5h-686q-31 0 -31 33zM82 805q0 26 31.5 91t54.5 65h686q22 0 29.5 -6t7.5 -23q0 -25 -34 -92.5t-58 -67.5h-686q-31 0 -31 33z" />
<glyph unicode="&#x3e;" horiz-adv-x="679" d="M61 1012q0 28 19 81.5t41 53.5q6 0 124 -82t233 -164l114 -82q45 -38 45 -78q0 -47 -31 -71q-471 -326 -485 -326q-25 0 -40 54.5t-15 80.5t18 39l344 225l-348 234q-19 14 -19 35z" />
<glyph unicode="?" horiz-adv-x="892" d="M115 1137q0 85 61 153.5t164.5 106t226.5 37.5q203 0 315.5 -83.5t112.5 -238.5q0 -65 -26.5 -126.5t-70.5 -111.5t-98 -97.5t-112 -91t-108.5 -83.5t-91.5 -84t-58 -84q-11 -25 -23.5 -36.5t-35.5 -14.5q-30 -4 -71.5 -17.5t-53.5 -13.5q-11 0 -21 9.5t-10 23.5 q0 40 26.5 88.5t69 98t94 103.5t103.5 113.5t94.5 120t69 130.5t26.5 137q0 63 -37 98t-90 35q-81 0 -143.5 -61t-62.5 -158q0 -44 11.5 -78t23.5 -54t12 -28q0 -21 -35 -21q-53 0 -113 29t-104.5 83t-44.5 116zM127 90q0 58 49.5 113t110.5 55q47 0 76.5 -28t29.5 -76 q0 -60 -47 -116t-113 -56q-49 0 -77.5 29t-28.5 79z" />
<glyph unicode="@" horiz-adv-x="1406" d="M82 197q0 136 56 264.5t154 227.5t242 158.5t308 59.5q229 0 382.5 -130.5t153.5 -334.5q0 -110 -44 -214.5t-131.5 -176t-196.5 -71.5q-151 0 -172 153q-5 -6 -13.5 -16.5t-36 -37t-56 -46.5t-69.5 -36.5t-79 -16.5q-75 0 -128 53t-53 133q0 127 61.5 252t158.5 203.5 t194 78.5q41 0 76 -8.5t56.5 -21t37 -25t21.5 -21.5l6 -8q47 0 87 -21t40 -63q0 -21 -27.5 -93t-54.5 -157t-27 -137q0 -45 37 -45q80 0 135 108t55 241q0 153 -117.5 246t-295.5 93q-142 0 -259.5 -51t-191.5 -135t-114.5 -187t-40.5 -212q0 -137 87.5 -209t241.5 -72 q87 0 172 51q18 9 27 9q16 0 16 -25q0 -10 -22.5 -35t-57 -52.5t-86 -49t-100.5 -21.5q-116 0 -212.5 44.5t-158 137t-61.5 216.5zM618 197q0 -80 54 -80q41 0 99.5 71t101 167.5t42.5 162.5q0 38 -18 58t-47 20q-50 0 -105.5 -68t-91 -162t-35.5 -169z" />
<glyph unicode="A" horiz-adv-x="1998" d="M0 518q0 204 141.5 340.5t368.5 136.5q220 0 549 -131q81 133 142.5 224t126 171t120.5 126t116.5 72t123.5 26q38 0 76.5 -13.5t56.5 -25t30 -21.5q73 45 166 45q62 0 62 -28q0 -11 -49 -68q-44 -56 -137 -280.5t-158 -446.5h24q44 0 101 25.5t63 25.5q7 0 13 -6.5 t6 -17.5q0 -36 -82.5 -113t-169.5 -94q-27 -135 -27 -213q0 -67 33.5 -101t83.5 -34q31 0 65 18t60.5 44t48 52t33.5 44l12 18q16 29 41 29q17 0 30 -12t13 -29q0 -8 -4.5 -20.5t-9.5 -20.5l-5 -9q-6 -10 -17.5 -27t-48 -60.5t-75 -76.5t-96.5 -60t-115 -27 q-119 0 -205 79.5t-86 202.5q0 117 31 260q-47 23 -140.5 76t-133.5 74q-21 -37 -59 -106q-56 -100 -83 -147.5t-74.5 -124t-78.5 -112t-78.5 -83t-90 -68t-98.5 -36t-118 -15.5q-89 0 -179.5 45t-160.5 117.5t-114 172.5t-44 203zM193 438q0 -110 75 -181t183 -71 q36 0 69 8t66.5 28.5t61 42t62.5 64t62 78t68.5 100t72 114t82.5 135.5q-175 69 -331 69q-218 0 -344.5 -105.5t-126.5 -281.5zM1243 786q168 -68 252 -94q98 329 283 666q-24 8 -45 8q-44 0 -86 -22.5t-82 -61.5t-92.5 -116t-102 -160t-127.5 -220z" />
<glyph unicode="B" horiz-adv-x="1736" d="M0 213q0 107 82 174.5t180 67.5q127 0 309 -93l23 39q45 81 116.5 274.5t132.5 343.5t97 173q66 44 135 64t115 20q35 0 35 -29q0 -6 -18.5 -29.5t-49 -67.5t-51.5 -91q-3 -8 -53 -147.5t-117 -302.5t-127 -269q-5 -10 -49 -84q102 -57 180.5 -87t155.5 -30q118 0 202 79 t84 204q0 93 -40 154.5t-87 66.5q-59 -25 -104 -25t-77 25t-32 64q0 42 30.5 67t74.5 25q25 0 57 -5.5t51 -11.5l19 -6q8 4 21 12t46 36t58 60.5t46 85t21 109.5q0 89 -53.5 156t-134.5 99t-176 32q-138 0 -252.5 -37t-189 -100t-115.5 -146t-41 -176q0 -43 15.5 -78.5 t34.5 -53.5t34.5 -34t15.5 -24q0 -39 -43 -39t-97.5 18.5t-106 51t-86.5 84t-35 108.5q0 148 126.5 274.5t326.5 197.5t417 71q119 0 225 -25.5t190 -74t133.5 -125.5t49.5 -173q0 -67 -30 -130.5t-70.5 -105.5t-86 -76t-74 -49t-36.5 -17q8 -3 27 -12.5t57 -37.5t69.5 -64 t55.5 -96t24 -128q0 -98 -42.5 -175.5t-111.5 -122.5t-149 -68t-163 -23q-125 0 -245 42t-257 115q-70 -80 -153 -118.5t-191 -38.5q-132 0 -230 65t-98 168zM168 197q0 -41 35.5 -67t85.5 -26q61 0 108.5 31t94.5 98q-132 66 -216 66q-46 0 -77 -30t-31 -72z" />
<glyph unicode="C" horiz-adv-x="1349" d="M0 995q0 65 34 129t86.5 112t112.5 85t114 56.5t89 19.5t35 -23q0 -9 -5.5 -16.5t-11 -12t-22.5 -16.5q-25 -19 -39.5 -30.5t-40.5 -40t-41 -55.5t-27 -70t-12 -91q0 -173 164 -241q77 182 209 339.5t282.5 250t280.5 92.5q59 0 115 -28.5t94 -71.5t61 -93t23 -94 q0 -65 -36.5 -139.5t-109.5 -147.5t-170.5 -133t-231 -98t-279.5 -41q-25 -109 -25 -207q0 -191 77 -279t228 -88q106 0 215.5 65.5t180.5 164.5q16 29 41 29q19 0 31 -12t12 -29q0 -8 -5 -20.5t-9 -20.5l-5 -9q-50 -75 -121.5 -137.5t-180 -107.5t-226.5 -45q-98 0 -190 30 t-169 88.5t-123.5 156t-46.5 220.5q0 105 33 230q-179 43 -285 135.5t-106 193.5zM711 760q107 3 205 38t168 89t122.5 120t78.5 133t26 126q0 34 -21.5 55.5t-58.5 21.5q-87 0 -188.5 -80.5t-189.5 -214.5t-142 -288z" />
<glyph unicode="D" horiz-adv-x="1900" d="M0 213q0 107 82 174.5t180 67.5q82 0 163 -28t181 -79q12 19 27 53q36 80 105.5 280t127.5 344t95 167q66 44 134.5 64t114.5 20q33 0 33 -29q0 -6 -18 -29.5t-48 -67.5t-51 -91q-3 -6 -102.5 -281.5t-173.5 -437.5q-10 -22 -53 -96q168 -86 288 -86q107 0 202.5 62 t160 163t102 229t37.5 260q0 124 -40.5 221.5t-109.5 155.5t-154 87.5t-181 29.5q-138 0 -252.5 -37t-189 -100t-115.5 -146t-41 -176q0 -43 15.5 -78.5t34.5 -53.5t34.5 -34t15.5 -24q0 -39 -43 -39q-33 0 -75.5 11.5t-86 35t-80 54.5t-60 74t-23.5 89q0 148 126.5 274 t326.5 196.5t417 70.5q97 0 197 -24t199.5 -77.5t176 -130t124.5 -192t48 -252.5q0 -154 -50 -303.5t-135.5 -265.5t-210 -187t-263.5 -71q-120 0 -237 39t-253 108q-150 -147 -374 -147q-132 0 -230 65t-98 168zM168 197q0 -41 35.5 -67t85.5 -26q135 0 235 117 q-159 78 -248 78q-46 0 -77 -30t-31 -72z" />
<glyph unicode="E" horiz-adv-x="974" d="M20 1188q0 62 50 129.5t108 107t90 39.5q8 0 13.5 -5.5t5.5 -12.5q0 -3 -18.5 -36t-18.5 -62q0 -98 108 -166q65 127 227 214t324 87q111 0 188 -51.5t77 -131.5q0 -107 -163 -191.5t-425 -102.5q2 -41 14 -79.5t24 -56.5l11 -18q57 12 141 12q121 0 121 -71 q0 -34 -37.5 -64.5t-93.5 -30.5q-44 0 -85.5 10t-60.5 20l-20 9q-6 -3 -15.5 -9t-37.5 -26t-53.5 -43t-56.5 -60.5t-53.5 -77.5t-38 -94t-15.5 -110q0 -127 68.5 -190.5t199.5 -63.5q108 0 207.5 61.5t169.5 168.5q16 29 41 29q19 0 31 -12t12 -29q0 -8 -4.5 -20t-8.5 -20 l-4 -8q-75 -123 -207.5 -207.5t-306.5 -84.5q-89 0 -172 21.5t-154 64t-114 116t-43 168.5q0 69 21 132.5t55.5 110.5t77 88t86 69t82.5 49t66.5 32.5t37.5 15.5q3 1 4 1q-4 1 -15.5 7.5t-31.5 23t-39 37.5t-36 55.5t-23 73.5q-153 13 -231.5 60t-78.5 122zM598 1122 q176 0 293 56.5t117 144.5q0 32 -30.5 52t-74.5 20q-95 0 -184 -78t-121 -195z" />
<glyph unicode="F" horiz-adv-x="1361" d="M4 348q0 50 39 101t95.5 86.5t117.5 58t106 22.5q23 0 37.5 -9.5t14.5 -24.5q0 -13 -7 -21.5t-30 -23.5q-56 -38 -98.5 -101.5t-42.5 -130.5q0 -79 54.5 -134.5t135.5 -55.5q275 0 393 536q-142 -14 -145 -14q-70 0 -113 30t-43 78q0 70 79 129.5t122 59.5q20 0 20 -21 q0 -3 -15 -32.5t-15 -57.5q0 -33 37.5 -48t93.5 -15h2l28 174q13 76 32 139.5t37.5 99t35 60.5t27.5 34l10 9q-50 26 -143.5 43.5t-209.5 17.5q-93 0 -150.5 -42.5t-57.5 -112.5q0 -43 16 -78.5t35 -54t35 -35t16 -25.5q0 -39 -43 -39q-59 0 -128.5 31t-124 94t-54.5 139 q0 61 27 109t68.5 77t97 48.5t107 27t103.5 7.5q122 0 245 -27.5t185 -54.5l62 -27q12 10 34 25t83.5 40t117.5 25q50 0 79.5 -26t29.5 -64q0 -46 -54 -85.5t-112 -39.5q-35 0 -51 2q-12 -5 -23 -11t-34.5 -30.5t-39.5 -57.5t-29.5 -96t-13.5 -143q0 -23 -4 -133 q128 21 201 21q27 0 44 -2t36.5 -8.5t29 -22.5t9.5 -41q0 -42 -77.5 -105t-119.5 -63q-28 0 -28 25q0 40 -24 60t-81 24q-9 -67 -22 -129.5t-36 -133t-53.5 -130t-76 -115.5t-100.5 -94.5t-129.5 -62t-161.5 -23.5q-102 0 -196 37.5t-156 93t-99 119.5t-37 118z" />
<glyph unicode="G" horiz-adv-x="1443" d="M0 995q0 81 49 158.5t117 129t137 83t113 31.5q35 0 35 -23q0 -20 -39 -47q-28 -22 -39 -31t-39 -38.5t-41.5 -55.5t-26 -69t-12.5 -91q0 -65 40.5 -121.5t115.5 -91.5q81 173 224.5 325t303 240.5t289.5 88.5q119 0 200.5 -76.5t81.5 -169.5q0 -71 -41.5 -147.5 t-120.5 -146.5t-182 -128t-237.5 -95t-276.5 -44q-20 -76 -20 -158q0 -97 44 -149t124 -52q39 0 84.5 20t82 48.5t67.5 56.5t48 48l17 20q2 6 5 15.5t14.5 38t23.5 54t31.5 57t40 54t47.5 38t55 15.5q35 0 56.5 -20.5t21.5 -59.5q0 -29 -13.5 -60.5t-32.5 -57t-38.5 -46.5 t-32.5 -32l-14 -12q-21 -218 -68 -400q169 68 250 199q16 29 41 29q19 0 31 -12t12 -29q0 -7 -4 -18.5t-8 -18.5l-5 -8q-106 -163 -354 -263q-89 -261 -229 -409t-307 -148q-153 0 -255 86.5t-102 190.5q0 52 23 95.5t68.5 75.5t100 56.5t130 43.5t144.5 31.5t157 24.5 l82 13q61 152 75 282q-7 -7 -20 -18.5t-53.5 -40.5t-80.5 -51.5t-96 -41t-106 -18.5q-160 0 -260 96t-100 257q0 101 30 200q-161 34 -259.5 110.5t-98.5 186.5zM475 -367q0 -41 21 -64.5t59 -23.5q72 0 168.5 99t177.5 250l-33 -11q-169 -43 -281 -109.5t-112 -140.5z M688 791q152 15 302.5 94.5t243.5 185t93 197.5q0 36 -21 58t-59 22q-89 0 -198.5 -77.5t-206.5 -206.5t-154 -273z" />
<glyph unicode="H" horiz-adv-x="1964" d="M0 375q0 87 37.5 155.5t98 111t145.5 70.5t172.5 39t185.5 11q112 0 235 -10q64 183 112 298t108 210q-41 0 -135.5 14t-124.5 14q-83 0 -142 -49.5t-59 -118.5q0 -43 15.5 -78.5t34.5 -53.5t34.5 -34t15.5 -24q0 -39 -43 -39q-42 0 -95.5 22t-102.5 58t-83 90.5 t-34 112.5q0 67 33.5 121t87 85t113.5 47.5t120 16.5q106 0 190 -16.5t142.5 -33t103.5 -16.5q74 105 197 105q43 0 72.5 -27.5t29.5 -64.5q0 -48 -52 -94t-103 -54q-26 -39 -66 -157t-115 -367q14 -2 137.5 -23.5t186.5 -29.5q57 187 136.5 377t137.5 290q30 50 86 82.5 t102.5 42.5t88.5 10q59 0 59 -28q0 -17 -49 -74q-46 -56 -144 -278.5t-165 -440.5h18q40 0 81.5 13.5t69.5 27.5t36 14q20 0 20 -24q0 -16 -24 -48.5t-61 -67t-88.5 -62.5t-98.5 -33q-29 -129 -29 -215q0 -135 94 -135q35 0 73 18t67 44t52.5 52t36.5 44l13 18q16 29 43 29 q15 0 28 -11.5t13 -29.5q0 -8 -5 -21.5t-10 -23.5l-5 -9q-6 -10 -17.5 -26.5t-49 -59.5t-78 -75.5t-102.5 -59t-124 -26.5q-108 0 -194.5 80.5t-86.5 201.5q0 96 33 244q-41 12 -148 46.5t-167 51.5q-45 -149 -100 -259.5t-129 -194.5t-171 -127t-217 -43 q-210 0 -343.5 114.5t-133.5 280.5zM229 297q0 -76 52.5 -127t124.5 -51q47 0 90.5 16t77.5 41t67.5 67.5t58 83.5t52 101t46.5 108t44 117q-54 4 -80 4q-235 0 -384 -106.5t-149 -253.5z" />
<glyph unicode="I" horiz-adv-x="1099" d="M16 328q0 41 31 41q6 0 12 -3t8 -5t7.5 -9t5.5 -8q38 -58 100 -104.5t144 -46.5q328 0 477 567q38 145 77.5 267t59.5 172l20 50q-10 -2 -27.5 -7t-68.5 -25t-97 -44t-102.5 -66t-97 -90t-68.5 -117.5t-28 -147.5q0 -92 72 -150q2 -2 8.5 -7t9.5 -7.5t7 -7t5.5 -8.5 t1.5 -9q0 -11 -11 -18.5t-30 -7.5q-37 0 -87.5 23t-98 62.5t-80.5 101t-33 128.5q0 65 27 124.5t72.5 106t109 88t131 72t145.5 57t145 43.5t136 31q79 109 193 109q36 0 62 -23t26 -61q0 -53 -43 -92.5t-94 -49.5q-25 -25 -46.5 -127t-70.5 -397q-28 -170 -76.5 -304 t-121.5 -236.5t-176 -157.5t-230 -55q-69 0 -134 24t-113 62.5t-85 85t-55.5 92.5t-18.5 84z" />
<glyph unicode="J" horiz-adv-x="1196" d="M0 -297q0 48 21.5 86.5t62 65.5t92 48t117.5 36t132.5 26.5t143.5 23.5l60 9q72 197 231 762q40 145 70.5 245t41.5 128l11 28q-10 -5 -26.5 -14t-65 -40t-92.5 -65.5t-97.5 -89t-92 -112t-65 -133.5t-26.5 -154q0 -40 13 -72t25.5 -47t33.5 -33q3 -2 10 -7.5t11 -8.5 t8 -8.5t4 -11.5q0 -11 -11.5 -19t-29.5 -8q-39 0 -89.5 23t-98 62.5t-79.5 101t-32 128.5q0 51 17.5 101.5t43.5 93t71.5 87.5t86 79t103.5 74.5t106.5 66t113.5 60.5t106 52.5t101 47.5q40 53 65.5 83t63.5 57.5t72 27.5q48 0 77 -26.5t29 -65.5q0 -54 -47 -99t-98 -57 q-68 -68 -129 -533q-52 -385 -115 -620q86 37 143 88.5t103 122.5q16 29 41 29q19 0 31 -12t12 -29q0 -7 -4.5 -19.5t-9.5 -21.5l-4 -9q-56 -90 -136.5 -156.5t-212.5 -117.5q-175 -541 -536 -541q-102 0 -190.5 44t-137.5 110t-49 133zM203 -369q0 -40 30.5 -69t69.5 -29 q135 0 275 334q-164 -36 -269.5 -100.5t-105.5 -135.5z" />
<glyph unicode="K" horiz-adv-x="1851" d="M137 334q0 76 66 144t148 103t145 35q21 0 36 -9t15 -21q0 -5 -0.5 -9t-3 -8.5t-4 -7t-6 -7.5t-7.5 -8l-9.5 -9.5l-10.5 -10.5q-46 -42 -87.5 -106t-41.5 -127q0 -75 44.5 -120.5t106.5 -45.5q56 0 104.5 25t88 79t68.5 104t59 137.5t46 139.5t42 148q47 170 89 289.5 t61 153.5l18 34q-10 0 -27 -0.5t-67 -6.5t-95 -16.5t-100.5 -33.5t-95 -54.5t-67 -83t-27.5 -114.5q0 -40 12.5 -72t25.5 -47t33 -33q2 -1 6.5 -4t6.5 -5t6 -5t5.5 -5t4 -5t3.5 -6.5t1 -6.5q0 -11 -11 -18.5t-30 -7.5q-39 0 -90.5 18.5t-103.5 52.5t-87.5 91t-35.5 124 q0 77 52 141.5t133.5 106t187.5 71t206.5 42.5t198.5 16q45 60 87.5 83.5t92.5 23.5q47 0 74 -25t27 -65q0 -52 -49.5 -91.5t-104.5 -52.5q-10 -10 -18 -30t-17.5 -65.5t-17 -86.5t-24 -134t-30.5 -165q42 18 86 51.5t76 65t75 86.5t64 84t64 90q120 176 212 247.5t187 71.5 q42 0 82.5 -36t40.5 -58q0 -27 -31 -27q-160 0 -311 -268q-106 -186 -151 -247q-76 -103 -160 -146q84 -51 113 -256q34 -256 155 -256q43 0 91 33.5t89 89.5q16 29 41 29q17 0 30 -12t13 -29q0 -8 -4.5 -20.5t-8.5 -20.5l-5 -9q-6 -10 -17.5 -27t-48 -60.5t-74.5 -76.5 t-94 -60t-110 -27q-73 0 -126.5 22.5t-84.5 58.5t-49 94t-23.5 115.5t-5.5 135.5q0 169 -63 237h-2h-74q-16 -80 -31 -139t-39 -132.5t-51 -125.5t-68 -105.5t-88.5 -86.5t-113 -53.5t-142.5 -20.5q-90 0 -179 36t-152.5 89t-103.5 115t-40 114z" />
<glyph unicode="L" horiz-adv-x="1789" d="M-2 362q0 135 99 220.5t235 85.5q189 0 469 -140q10 21 92 211q-167 23 -308 86t-225 153t-84 187q0 61 21 111.5t56 84.5t81.5 57.5t96.5 34.5t102 11q104 0 180.5 -40t147.5 -111q28 -28 28 -49q0 -12 -8.5 -22.5t-17.5 -10.5q-20 0 -54 24q-96 70 -196 70 q-160 0 -160 -141q0 -110 104.5 -202t288.5 -120l19 37q145 317 277.5 450.5t303.5 133.5q134 0 216.5 -82.5t82.5 -183.5q0 -81 -49 -162t-135.5 -149t-216.5 -115.5t-279 -59.5q-79 -221 -133 -330q91 -50 146.5 -78.5t132 -61.5t142.5 -48.5t128 -15.5q47 0 84 9 t61.5 26.5t37 29.5t26.5 31q16 29 41 29q17 0 30 -12t13 -29q0 -8 -5 -20.5t-9 -20.5l-5 -9q-3 -5 -8.5 -14t-24.5 -35t-40.5 -50t-55.5 -53t-69.5 -49.5t-82.5 -35t-95 -14.5q-50 0 -98 9.5t-97.5 32t-86 41.5t-90 58t-80.5 60t-85 67q-187 -268 -483 -268 q-191 0 -326 114.5t-135 267.5zM193 305q0 -70 54 -118t134 -48q110 0 195 69t159 195q-161 101 -299 101q-113 0 -178 -53t-65 -146zM1221 868q119 27 222 97.5t160.5 155t57.5 159.5q0 28 -19.5 49t-50.5 21q-61 0 -111.5 -37.5t-114 -144t-144.5 -300.5z" />
<glyph unicode="M" horiz-adv-x="2217" d="M0 334q0 58 39 112.5t95.5 90.5t117 57.5t106.5 21.5q23 0 37.5 -8.5t14.5 -21.5q0 -17 -8 -28t-33 -32q-47 -36 -88 -98.5t-41 -134.5q0 -65 41.5 -107.5t101.5 -42.5q82 0 198 140.5t213 327t166.5 375t69.5 282.5q0 40 -26 66t-80 26q-47 0 -113 -32.5t-127 -83.5 t-104 -123.5t-43 -143.5q0 -43 16 -81.5t35 -60t35 -40.5t16 -27q0 -41 -43 -41q-42 0 -97.5 22.5t-107 59t-86.5 91.5t-35 112q0 92 66.5 180.5t168 151t224.5 101t234 38.5q40 0 87 -13t95.5 -42t88 -68.5t64.5 -99t25 -127.5q0 -154 -25.5 -479t-25.5 -355 q15 23 109.5 209t224 411.5t247.5 383.5q122 165 404 165q59 0 59 -28q0 -17 -51 -74q-31 -39 -93 -171.5t-127.5 -299t-114 -348.5t-48.5 -295q0 -68 31.5 -101.5t85.5 -33.5q31 0 65 18t60.5 44t48 52t33.5 44l12 18q16 29 41 29q17 0 30 -12t13 -29q0 -8 -4.5 -20.5 t-9.5 -20.5l-4 -9q-6 -10 -17.5 -27t-48 -60.5t-75.5 -76.5t-97 -60t-115 -27q-112 0 -201.5 80.5t-89.5 201.5q0 140 66 357.5t160 437.5q-75 -95 -192.5 -310t-184.5 -352t-121 -254q-27 -59 -93.5 -110t-96.5 -51q-50 0 -100 71.5t-50 159.5q0 55 28.5 358t28.5 396 q-33 -107 -53 -170.5t-62 -180.5t-75.5 -191t-84.5 -167t-99 -146.5t-109.5 -91.5t-124.5 -38q-90 0 -179.5 36t-153.5 89t-104 115t-40 114z" />
<glyph unicode="N" horiz-adv-x="1751" d="M0 334q0 58 39 112.5t95.5 90.5t117 57.5t106.5 21.5q23 0 37.5 -9t14.5 -21q0 -16 -8.5 -27.5t-32.5 -32.5q-129 -106 -129 -233q0 -65 41.5 -107.5t101.5 -42.5q82 0 198 140.5t213 327t166.5 375t69.5 282.5q0 40 -26 66t-80 26q-47 0 -113 -32.5t-127 -83.5 t-104 -123.5t-43 -143.5q0 -43 16 -81.5t35 -60t35 -40.5t16 -27q0 -41 -43 -41q-42 0 -97.5 22.5t-107 59t-86.5 91.5t-35 112q0 92 66.5 180.5t168 151t224.5 101t234 38.5q40 0 86.5 -13t94.5 -42t87.5 -68.5t66 -99t29.5 -127.5q2 -59 6 -195t7.5 -223t12 -204 t21.5 -206q8 22 42.5 133.5t72.5 231t94 266.5t109 260t114.5 190.5t114.5 77.5q84 0 162 -47t78 -88q0 -18 -10.5 -28.5t-26.5 -10.5q-76 0 -153 -70t-136.5 -174.5t-119.5 -242.5t-101.5 -258t-83.5 -238.5t-64 -165.5q-27 -59 -94 -110t-98 -51q-46 0 -92 70t-56 161 q-10 88 -18 339t-8 398q-23 -76 -38.5 -126.5t-44 -136t-52 -145.5t-59 -139t-68.5 -134t-76 -113t-85.5 -93.5t-94 -58t-105.5 -22.5q-90 0 -179.5 36t-153.5 89t-104 115t-40 114z" />
<glyph unicode="O" horiz-adv-x="1181" d="M2 455q0 196 72 387.5t183.5 330.5t251 224.5t271.5 85.5q198 0 332.5 -131.5t134.5 -329.5q0 -115 -28 -238t-78 -238t-124 -218.5t-161 -180.5t-194 -122t-218 -45q-88 0 -168.5 36t-141 98t-96.5 151t-36 190zM250 502q0 -180 72 -288t167 -108q100 0 194.5 103.5 t159.5 263t104.5 350.5t39.5 365q0 84 -43 133t-106 49q-122 0 -221 -116.5t-99 -276.5q0 -90 44.5 -147.5t101.5 -57.5q17 0 31 4t18 4q24 0 24 -24q0 -15 -16.5 -33t-58.5 -34.5t-99 -16.5q-87 0 -161 84.5t-74 206.5q-3 -6 -8.5 -18.5t-19 -56.5t-23.5 -93t-18.5 -128.5 t-8.5 -164.5z" />
<glyph unicode="P" horiz-adv-x="1667" d="M-2 348q0 50 39 101t95.5 86.5t117.5 58t106 22.5q52 0 52 -32q0 -15 -7.5 -24t-29.5 -23q-58 -39 -100 -102t-42 -130q0 -79 55 -134.5t136 -55.5q194 0 328 544q61 252 95.5 350t94.5 165q43 44 131 73t123 29q39 0 39 -29q0 -5 -18 -25.5t-47.5 -64.5t-51.5 -98 q-37 -90 -61 -169t-66 -269q-39 -180 -89.5 -304.5t-113.5 -198t-135.5 -106t-163.5 -32.5q-102 0 -195.5 37.5t-155.5 93t-99 119.5t-37 118zM256 979q0 111 74.5 207t196.5 160t278.5 100.5t320.5 36.5q307 0 494.5 -132.5t187.5 -332.5q0 -97 -41.5 -184t-107.5 -148.5 t-147 -107t-160.5 -67.5t-147.5 -22q-53 0 -88 8.5t-48 19.5t-13 24q0 14 9 24t21 10q82 0 162.5 35t143.5 95t102 147.5t39 185.5q0 151 -108.5 238.5t-301.5 87.5q-281 0 -440.5 -114.5t-159.5 -303.5q0 -43 16 -78.5t35.5 -53.5t35.5 -34t16 -24q0 -39 -43 -39 t-97.5 18.5t-106 51t-87 84t-35.5 108.5z" />
<glyph unicode="Q" horiz-adv-x="1314" d="M0 639q0 113 46.5 233t133 228t199.5 194.5t258 137.5t295 51q200 0 333.5 -121.5t133.5 -290.5q0 -113 -41 -235t-113 -234.5t-166.5 -216.5t-204.5 -188t-223 -142q21 -15 68.5 -51.5t70 -53t63 -42.5t67.5 -38t62 -22t67 -10q49 0 93 17t72.5 34t38.5 17q12 0 21.5 -7 t9.5 -20q0 -17 -29 -61.5t-71.5 -92.5t-99 -85t-103.5 -37q-44 0 -92.5 23.5t-100 68.5t-94 88.5t-101.5 107t-97 99.5q-116 -37 -211 -37q-83 0 -140 34t-57 97q0 46 47 82.5t117 36.5q127 0 264 -82q153 94 292 271.5t223.5 387.5t84.5 389q0 90 -53 143.5t-135 53.5 q-172 0 -327.5 -117.5t-246 -297.5t-90.5 -363q0 -81 36 -125.5t95 -44.5q73 0 137.5 75t99 179t34.5 200q0 46 -14 82.5t-28 57t-14 28.5q0 12 13 23.5t24 11.5q65 0 146 -77t81 -169q0 -85 -42 -177.5t-111 -169t-166.5 -126t-198.5 -49.5q-53 0 -112 20t-115 58 t-92.5 104.5t-36.5 149.5z" />
<glyph unicode="R" horiz-adv-x="1792" d="M-2 348q0 60 39 116t95.5 92.5t117 58.5t106.5 22q22 0 37 -10t15 -23q0 -14 -7 -22.5t-30 -24.5q-45 -35 -88 -107t-43 -139q0 -79 50.5 -137.5t129.5 -58.5q96 0 176.5 131t151.5 413q63 253 96.5 350.5t93.5 164.5q43 44 131 73t123 29q39 0 39 -29q0 -5 -18 -25.5 t-47.5 -64.5t-51.5 -98q-24 -60 -36 -92.5t-32.5 -102.5t-44.5 -174q130 3 243.5 58t181 149t67.5 203q0 264 -371 264q-277 0 -438.5 -109t-161.5 -270q0 -43 16 -78.5t35.5 -53.5t35.5 -34t16 -24q0 -39 -43 -39t-97.5 18.5t-106 51t-87 84t-35.5 108.5q0 125 126 233.5 t326 170t418 61.5q304 0 473.5 -110.5t169.5 -282.5q0 -161 -134.5 -289.5t-336.5 -190.5q78 -48 95 -174q25 -173 65 -246t115 -73q31 0 65 18t60.5 44t48 52t33.5 44l12 18q16 29 41 29q17 0 30 -12t13 -29q0 -8 -4.5 -20.5t-9.5 -20.5l-4 -9q-6 -10 -17.5 -27t-48 -60.5 t-75.5 -76.5t-97 -60t-115 -27q-241 0 -305 167q-31 82 -31 289q0 86 -41 137q-56 -6 -112 -6h-41q-39 -165 -88.5 -279t-111.5 -181.5t-132 -97t-158 -29.5q-102 0 -195.5 37.5t-155.5 93t-99 119.5t-37 118z" />
<glyph unicode="S" horiz-adv-x="1196" d="M35 362q0 61 47 121.5t114 102.5t138 68t121 26q34 0 34 -35q0 -13 -9.5 -22.5t-33.5 -26.5q-34 -28 -50.5 -43t-41 -44.5t-35 -64t-10.5 -77.5q0 -88 70 -164t174 -76q117 0 188.5 68t71.5 184q0 48 -21.5 105t-54.5 108.5t-70.5 113.5t-70.5 118.5t-54.5 123.5 t-21.5 129q0 92 49 170.5t126.5 129t171.5 78.5t188 28q123 0 203.5 -42.5t80.5 -125.5q0 -51 -34.5 -107.5t-82 -98t-95.5 -68.5t-76 -27q-13 0 -24 9.5t-11 20.5q0 15 26 50q86 109 86 184q0 39 -27.5 61.5t-72.5 22.5q-105 0 -175.5 -69.5t-70.5 -162.5q0 -70 31 -147.5 t75 -147.5t87.5 -139t74.5 -145t31 -143q0 -118 -73.5 -218t-187.5 -155t-236 -55q-126 0 -232.5 35.5t-174 91.5t-105 122.5t-37.5 132.5z" />
<glyph unicode="T" horiz-adv-x="956" d="M39 113q0 19 10.5 29t26.5 10q12 0 39.5 -5.5t48.5 -5.5q66 0 123 30.5t105 102t81 129t71 172.5t54 168.5t49 176.5q1 3 1.5 5t1 4.5t1.5 4.5q24 87 56.5 153t62.5 98t56.5 52.5t42.5 24.5l16 4q-53 28 -156 49.5t-217 21.5q-93 0 -151 -42.5t-58 -112.5 q0 -43 15.5 -78.5t34.5 -54t34.5 -35t15.5 -25.5q0 -39 -43 -39q-58 0 -127 31t-123.5 94t-54.5 139q0 61 27 109t69 77t97 48.5t107 27t104 7.5q127 0 351 -34t407 -34q72 0 125.5 10.5t75.5 23.5t38.5 23.5t24.5 10.5q19 0 31 -12t12 -29q0 -16 -24.5 -53.5t-62 -79 t-91.5 -72.5t-105 -31q-58 0 -117.5 9t-89.5 17l-30 9q-13 -5 -29 -28t-43.5 -101t-52.5 -199q-8 -38 -21 -105t-22.5 -118.5t-25.5 -122t-32 -125t-40 -118.5t-50.5 -111t-63.5 -93t-78.5 -75t-96 -47t-115.5 -18q-116 0 -205.5 45.5t-89.5 87.5z" />
<glyph unicode="U" horiz-adv-x="1712" d="M-20 1012q0 91 72.5 180t182 151.5t238 101t240.5 38.5q126 0 206 -59t80 -156q0 -75 -38.5 -187t-93.5 -227t-110 -229t-93.5 -220.5t-38.5 -173.5q0 -88 90 -88q37 0 88.5 35.5t101.5 87t107.5 123t98.5 128t83 118.5q54 191 137.5 391.5t145.5 306.5q30 50 85.5 82.5 t102 42.5t88.5 10q59 0 59 -28q0 -17 -49 -74q-31 -38 -94 -171.5t-128.5 -299.5t-114 -348t-48.5 -295q0 -67 33 -101t82 -34q31 0 65 18t60.5 44t48 52t33.5 44l12 18q16 29 41 29q17 0 30 -12t13 -29q0 -8 -4.5 -20.5t-9.5 -20.5l-4 -9q-6 -10 -17.5 -27t-48 -60.5 t-75.5 -76.5t-97 -60t-115 -27q-73 0 -141 34.5t-113 100.5t-45 147q0 47 4 74q-34 -50 -69.5 -94t-86.5 -94t-102.5 -85.5t-115.5 -59t-127 -23.5q-114 0 -199.5 70t-85.5 165q0 73 41 185.5t99 229.5t116.5 233.5t99.5 226t41 178.5q0 43 -18 67.5t-70 24.5 q-38 0 -90 -20.5t-106.5 -57.5t-101.5 -83.5t-77 -105.5t-30 -116q0 -43 16 -81.5t35 -60t35 -40.5t16 -27q0 -41 -43 -41q-42 0 -98 22.5t-107 59t-86.5 91.5t-35.5 112z" />
<glyph unicode="V" horiz-adv-x="1513" d="M20 893q0 84 55 172.5t144 161.5t195.5 131.5t216 91.5t198.5 33q123 0 201 -67t78 -167q0 -96 -39 -247t-86 -281t-86 -266t-39 -207q110 98 220 226.5t210 277.5t162.5 310.5t62.5 295.5q0 27 -8 60.5t-8 37.5q0 12 7 19.5t18 7.5q41 0 98 -26.5t103 -76t46 -102.5 q0 -100 -58.5 -230t-148.5 -256t-211 -263.5t-232.5 -247t-225.5 -211.5q-35 -31 -54 -46.5t-43.5 -29.5t-41.5 -14q-44 0 -105 78t-61 147q0 80 28 196t67.5 233t79 232t67.5 223.5t28 178.5q0 40 -22.5 66t-65.5 26q-75 0 -160 -50.5t-150.5 -125.5t-109 -164t-43.5 -162 q0 -54 16 -98t34.5 -66t34.5 -39.5t16 -25.5q0 -39 -43 -39q-42 0 -100 25t-113 64.5t-93.5 97.5t-38.5 116z" />
<glyph unicode="W" horiz-adv-x="2054" d="M20 893q0 84 55 172.5t144 161.5t195.5 131.5t216 91.5t198.5 33q128 0 203.5 -64.5t75.5 -187.5q0 -84 -54.5 -228t-119.5 -274.5t-119.5 -270.5t-54.5 -216q0 -39 24.5 -63.5t63.5 -24.5q29 0 69 23t76 56t67.5 66.5t50.5 56.5l19 23q1 8 2.5 22.5t8 58.5t15 87 t23 101.5t32 108.5t43 101t54 87t67 58.5t81.5 22.5q51 0 83 -31.5t32 -79.5q0 -56 -29.5 -136.5t-71.5 -155t-84.5 -141t-71.5 -106.5l-30 -40q1 -7 3.5 -19t12 -43t21.5 -54.5t34.5 -42.5t49.5 -19q95 0 189 112t160.5 279t107.5 362.5t41 360.5q0 51 -6.5 91.5t-12.5 63 t-6 29.5q0 12 7 19.5t18 7.5q41 0 100.5 -26.5t108.5 -76.5t49 -102q0 -150 -39.5 -328t-111.5 -347.5t-164 -310t-207 -226.5t-230 -86q-46 0 -85.5 13t-65.5 33.5t-46.5 45.5t-32 50.5t-18.5 46t-9 33.5l-3 13q-8 -10 -23 -25.5t-61.5 -56t-93.5 -71.5t-112.5 -56.5 t-125.5 -25.5q-103 0 -177.5 61.5t-74.5 161.5q0 78 39 190t94.5 225.5t110.5 228t94 227.5t39 194q0 40 -22.5 66t-65.5 26q-60 0 -142 -51t-152 -125t-119.5 -164t-49.5 -162q0 -54 16 -98t34.5 -66t34.5 -39.5t16 -25.5q0 -39 -43 -39q-42 0 -100 25t-113 64.5 t-93.5 97.5t-38.5 116z" />
<glyph unicode="X" horiz-adv-x="1763" d="M117 334q0 58 39 112.5t96 90.5t117.5 57.5t107.5 21.5q21 0 35 -9t14 -21q0 -16 -8.5 -27.5t-32.5 -34.5q-129 -117 -129 -231q0 -70 33.5 -104.5t89.5 -34.5q107 0 243 133q96 94 303 361q15 19 79 102q-2 152 -2 493q0 62 -20.5 89.5t-75.5 27.5q-47 0 -107 -29.5 t-114 -77.5t-91 -117t-37 -139q0 -43 16 -81.5t35.5 -61t35.5 -41.5t16 -27q0 -38 -43 -38q-58 0 -133 35.5t-134 103t-59 143.5q0 92 63.5 178t161.5 145t217 94.5t230 35.5q126 0 210.5 -64.5t88.5 -169.5q1 -20 2 -78t2 -86q151 184 277.5 291t228.5 107q56 0 112 -51 t56 -82q0 -20 -11.5 -30.5t-29.5 -10.5q-257 0 -631 -459v-420q0 -140 49.5 -226.5t126.5 -86.5q31 0 65 18t60.5 44t48 52t33.5 44l12 18q16 29 41 29q17 0 30 -12t13 -29q0 -8 -4.5 -20.5t-8.5 -20.5l-5 -9q-6 -10 -17.5 -27t-48 -60.5t-75 -76.5t-96.5 -60t-115 -27 q-161 0 -266 92.5t-105 240.5v183q-174 -245 -240 -324q-151 -180 -256 -191q-8 -1 -16 -1q-90 0 -179.5 36t-153.5 89t-104 115t-40 114z" />
<glyph unicode="Y" horiz-adv-x="1583" d="M0 1012q0 121 116.5 232.5t281 175t315.5 63.5q125 0 212 -68t87 -166q0 -77 -27 -167.5t-65 -171t-76 -157t-65 -149t-27 -123.5q0 -50 25.5 -84.5t70.5 -34.5t100.5 33.5t108 88t92.5 103t74 97.5l24 76q69 217 114 317.5t136 255.5q29 51 79 83t93 42t84 10 q59 0 59 -28q0 -17 -49 -74q-44 -53 -131.5 -240.5t-144.5 -380.5q-24 -81 -65.5 -226.5t-72.5 -251t-59 -193.5q202 76 293 219q16 29 41 29q17 0 30 -12t13 -29q0 -8 -4.5 -20.5t-8.5 -20.5l-5 -9q-104 -173 -400 -276q-48 -129 -98.5 -222.5t-115.5 -168t-147.5 -111.5 t-182.5 -37q-102 0 -190.5 44t-137.5 110t-49 133q0 35 13 65.5t31.5 54t54 44.5t66.5 35.5t83.5 28.5t90 22.5t101 18t101.5 15t106 13.5q10 0 16 2q61 154 135 383q-219 -209 -403 -209q-107 0 -195 73t-88 167q0 68 31 157.5t75 178t88.5 177t75.5 179.5t31 160 q0 43 -18 67.5t-70 24.5q-38 0 -90 -20.5t-106.5 -57.5t-101.5 -83.5t-77 -105.5t-30 -116q0 -43 16 -81.5t35 -60t35 -40.5t16 -27q0 -41 -43 -41q-42 0 -95 22.5t-100 59t-79.5 91t-32.5 112.5zM530 -369q0 -40 31 -69t70 -29q84 0 157.5 84.5t149.5 257.5 q-174 -33 -291 -101t-117 -143z" />
<glyph unicode="Z" horiz-adv-x="1253" d="M-2 152q0 42 106 176t231 269.5t275 289.5q202 205 291.5 292.5t126.5 112.5q-37 0 -178 17.5t-232 17.5q-96 0 -156.5 -38.5t-60.5 -106.5q0 -43 16 -78.5t35.5 -54t35.5 -35t16 -25.5q0 -39 -43 -39q-42 0 -99 21t-110.5 55.5t-91 88t-37.5 110.5q0 107 109 182.5 t268 75.5t350 -20.5t213 -20.5q49 0 122 20.5t107 20.5q39 0 91.5 -47t52.5 -70q0 -19 -11.5 -30.5t-40.5 -28.5q-131 -82 -587 -559q-121 -127 -250.5 -271.5t-198.5 -225.5l-69 -81q18 8 48.5 20.5t118 33t164.5 20.5q89 0 223.5 -23.5t210.5 -23.5q39 0 75.5 10t59.5 24 t40.5 28t25.5 24l8 10q16 29 41 29q17 0 30 -12t13 -29q0 -8 -4.5 -20.5t-8.5 -20.5l-5 -9q-6 -10 -17 -27t-49 -60.5t-79 -76.5t-104 -60t-128 -27q-76 0 -141.5 14.5t-107 32.5t-110 32.5t-147.5 14.5q-50 0 -103 -24.5t-95.5 -49.5t-67.5 -25q-51 0 -111.5 60t-60.5 117z " />
<glyph unicode="[" horiz-adv-x="448" d="M-4 -92v1585q0 27 14.5 42t38.5 15h311q5 0 12 -1t19 -12t12 -32q0 -33 -12.5 -45t-36.5 -12h-133v-1491h133q24 0 36.5 -12t12.5 -45q0 -21 -10.5 -32t-21.5 -12l-11 -1q-252 2 -311 2q-22 0 -35 11t-15.5 20.5t-2.5 19.5z" />
<glyph unicode="\" horiz-adv-x="690" d="M-39 1444q0 18 52 31.5t108 13.5q14 0 27 -9.5t18 -21.5l500 -1403q10 -23 10 -35q0 -21 -18 -26.5t-52 -5.5h-86q-34 0 -45 28l-502 1381q-12 28 -12 47z" />
<glyph unicode="]" horiz-adv-x="563" d="M53 -100q0 33 12.5 45t36.5 12h134v1491h-134q-24 0 -36.5 12t-12.5 45q0 21 10.5 32t21.5 12l11 1h312q22 0 35 -11.5t15.5 -21.5t2.5 -20v-1585q0 -27 -14.5 -41t-38.5 -14l-312 -2q-5 0 -12 1t-19 12t-12 32z" />
<glyph unicode="^" horiz-adv-x="841" d="M25 829q0 6 81.5 127.5t162.5 239.5l81 119q24 31 72 31q39 0 78 -46q327 -457 327 -471q0 -22 -53 -40.5t-82 -18.5q-22 0 -35 18l-233 349l-225 -344q-14 -19 -39 -19q-26 0 -80.5 15t-54.5 40z" />
<glyph unicode="_" horiz-adv-x="1300" d="M61 -190q0 26 21 70t45 44h1092q22 0 29 -5.5t7 -22.5q0 -26 -23.5 -72.5t-47.5 -46.5h-1092q-31 0 -31 33z" />
<glyph unicode="`" horiz-adv-x="413" d="M23 1208q0 33 40.5 84t65.5 51q34 0 49 -40q28 -71 84.5 -146.5t102.5 -103.5q19 -10 25.5 -18t6.5 -21t-9.5 -22t-27.5 -9q-47 0 -136 42.5t-152 96.5q-30 26 -39.5 43t-9.5 43z" />
<glyph unicode="a" horiz-adv-x="972" d="M-25 193q0 108 42.5 219t108.5 196t152 139t168 54q46 0 86.5 -10t64.5 -24t41.5 -28t24.5 -24l7 -10q55 0 100 -24t45 -73q0 -23 -29.5 -103t-59.5 -175.5t-30 -155.5q0 -25 16 -41t42 -16q31 0 65 18t60.5 44t48 52t33.5 44l12 18q16 29 41 29q17 0 30 -12t13 -29 q0 -8 -4.5 -20.5t-9.5 -20.5l-5 -9q-6 -10 -17.5 -27t-48 -60.5t-75 -76.5t-96.5 -60t-115 -27q-88 0 -146.5 45t-68.5 129q-5 -7 -15.5 -19t-42 -42t-64 -52.5t-79 -41.5t-90.5 -19q-85 0 -145 60.5t-60 152.5zM225 227q0 -92 60 -92q47 0 114 81t115.5 191.5t48.5 186.5 q0 42 -21 65t-53 23q-57 0 -120 -77.5t-103.5 -185t-40.5 -192.5z" />
<glyph unicode="b" d="M-12 289q0 143 28.5 301.5t82 305.5t123 266.5t158 191t179.5 71.5q65 0 124.5 -61t59.5 -119q0 -28 -10 -62t-27 -69t-38.5 -71.5t-46 -71.5t-48 -67t-47 -60t-40 -47.5t-28.5 -32.5l-12 -14q9 7 26 16.5t53.5 22t68.5 12.5q80 0 141.5 -69.5t61.5 -149.5 q0 -108 -38.5 -222t-109.5 -204q6 -2 21 -2q39 0 78 14.5t67 35t50.5 40.5t34.5 34l11 15q16 29 41 29q17 0 30 -12t13 -29q0 -8 -4.5 -20.5t-8.5 -20.5l-5 -9q-5 -7 -14 -19t-42 -42.5t-71 -53.5t-100 -42t-129 -19q-45 0 -70 4q-105 -79 -246 -79q-70 0 -143 40 t-123.5 113t-50.5 156zM217 238q0 -64 24.5 -107t63.5 -43q31 0 68 29q-17 17 -17 35q0 32 38 66t65 34h6q76 159 76 309q0 66 -16 95.5t-64 29.5q-23 0 -53 -16.5t-64 -53.5t-62 -88t-46.5 -127t-18.5 -163zM285 698q113 108 225.5 284t112.5 265q0 41 -39 41 q-36 0 -92 -84t-112.5 -221.5t-94.5 -284.5z" />
<glyph unicode="c" horiz-adv-x="757" d="M-8 291q0 99 42.5 194.5t108.5 163.5t148 110t160 42q103 0 168 -61.5t65 -137.5q0 -52 -41.5 -104t-81.5 -52q-41 0 -72.5 26t-31.5 60q0 24 13 43t28 29.5t28 24.5t13 28q0 17 -17.5 30t-42.5 13q-58 0 -113 -57t-88.5 -147t-33.5 -181q0 -102 56.5 -155.5t145.5 -53.5 q52 0 103.5 19.5t87.5 46.5t64.5 54.5t42.5 47.5l14 19q20 29 45 29q19 0 31 -12t12 -29q0 -8 -6 -20.5t-12 -20.5l-5 -9q-7 -10 -20 -27t-58 -60.5t-95 -76.5t-128.5 -60t-159.5 -27q-70 0 -133 17t-117.5 52t-87 97.5t-32.5 144.5z" />
<glyph unicode="d" horiz-adv-x="1103" d="M-12 231q0 97 32.5 188t85 158.5t116.5 119t130 78t123 26.5q36 0 68 -8.5t47 -16.5l14 -8q49 176 116.5 320t157 240.5t179.5 96.5q64 0 121 -60t57 -130q0 -56 -46.5 -160.5t-112.5 -214.5t-132.5 -212t-113.5 -167l-46 -65q-8 -47 -8 -103q0 -89 28 -142.5t83 -53.5 q31 0 65 18t60 44t47.5 52t32.5 44l12 18q16 29 41 29q17 0 30 -12t13 -29q0 -8 -5 -20.5t-9 -20.5l-5 -9q-6 -10 -17.5 -27t-48 -60.5t-75 -76.5t-96.5 -60t-115 -27q-55 0 -104 21t-81 52.5t-52 65t-23 61.5q-7 -8 -19 -21.5t-50 -48t-75.5 -61t-90.5 -48t-101 -21.5 q-92 0 -162.5 71t-70.5 180zM242 236q0 -55 20 -86t55 -31q38 0 94.5 42.5t94.5 84.5l37 43q2 137 35 364q-23 33 -58 33q-62 0 -128.5 -77.5t-108 -183t-41.5 -189.5zM797 567q13 21 35 57.5t78 136t99 185.5t78 179t35 143q0 35 -28 35q-34 0 -91 -108t-114 -281t-92 -347 z" />
<glyph unicode="e" horiz-adv-x="731" d="M-16 281q0 90 28.5 173.5t74.5 145t103.5 108t117.5 70t114 23.5q92 0 158.5 -65.5t66.5 -149.5q0 -32 -9.5 -69t-34 -79.5t-61 -76t-96 -56t-133.5 -22.5q-10 0 -29.5 3t-33.5 6l-14 3q0 -88 52 -139.5t128 -51.5q55 0 107.5 19.5t88.5 47.5t64 55.5t42 47.5l13 19 q16 29 41 29q17 0 30 -12t13 -29q0 -8 -4.5 -20.5t-8.5 -20.5l-5 -9q-3 -5 -9 -14t-27 -35t-45.5 -50t-65 -53t-84 -49.5t-103.5 -35t-123 -14.5q-155 0 -255.5 85t-100.5 216zM246 379q70 0 134 52t98 115t34 109q0 41 -37 41q-53 0 -108 -57.5t-88 -131.5t-33 -128z" />
<glyph unicode="f" horiz-adv-x="628" d="M-59 -139q0 196 38.5 418t105.5 422t150 364.5t180.5 262t188.5 97.5q67 0 128 -61t61 -119q0 -83 -88.5 -255t-217.5 -346.5t-237 -260.5q-30 -83 -41 -207q5 -7 15.5 -16.5t45 -26t72.5 -16.5q50 0 94.5 15.5t81 44.5t60.5 55t51 61q16 29 41 29q17 0 30 -12t13 -29 q0 -8 -4.5 -20.5t-9.5 -20.5l-5 -9q-22 -31 -38.5 -52t-50.5 -52.5t-69 -51t-87.5 -34t-112.5 -14.5q5 -4 13 -11.5t28 -34t35.5 -56t28 -76.5t12.5 -97q0 -86 -58.5 -162.5t-150.5 -76.5q-38 0 -78 11t-81 37t-72.5 64.5t-51.5 99.5t-20 136zM170 -182q0 -58 7.5 -101.5 t20.5 -67t26.5 -35t27.5 -11.5q35 0 52.5 43t17.5 100q0 50 -14 101.5t-34 89.5t-40 68.5t-34 46.5l-14 16q-16 -139 -16 -250zM303 551q63 48 156 193t161 293.5t68 209.5q0 19 -11.5 30t-31.5 11q-54 0 -158.5 -229t-183.5 -508z" />
<glyph unicode="g" horiz-adv-x="942" d="M-29 193q0 108 42.5 219t108.5 196t152 139t168 54q46 0 86.5 -10t64.5 -24t41.5 -28t24.5 -24l7 -10q55 0 100 -24t45 -73q0 -38 -115 -463l-18 -67q177 97 264 215q20 29 45 29q19 0 31 -12t12 -29q0 -7 -5.5 -19.5t-10.5 -21.5l-6 -9q-55 -74 -137 -136t-222 -130 q-16 -61 -31 -110.5t-37.5 -108.5t-46.5 -104t-57.5 -89t-70.5 -73t-85 -46.5t-102 -17.5q-94 0 -162.5 57t-68.5 138q0 191 438 358q28 112 41 185q-5 -7 -15.5 -19t-42 -42t-64 -52.5t-79 -41.5t-90.5 -19q-85 0 -145 60.5t-60 152.5zM131 -434q0 -41 37 -41 q120 0 223 323q-112 -62 -186 -147t-74 -135zM221 227q0 -92 60 -92q47 0 114.5 81t116.5 191.5t49 186.5q0 42 -21.5 65t-54.5 23q-57 0 -120 -77.5t-103.5 -185t-40.5 -192.5z" />
<glyph unicode="h" horiz-adv-x="999" d="M-31 90q0 87 23.5 218t64.5 280t102.5 298t133 269t161.5 195t181 75q66 0 125 -61t59 -119q0 -59 -39 -144t-95 -164.5t-89.5 -123t-50.5 -63.5q8 6 27.5 16t61.5 22.5t81 12.5q46 0 88.5 -45t42.5 -97q0 -42 -20.5 -103.5t-45 -116t-45 -122.5t-20.5 -122 q0 -36 17.5 -57t47.5 -21q31 0 65 18t60.5 44t48 52t33.5 44l12 18q16 29 41 29q17 0 30 -12t13 -29q0 -8 -4.5 -20.5t-8.5 -20.5l-5 -9q-6 -10 -17.5 -27t-48 -60.5t-75 -76.5t-96.5 -60t-115 -27q-117 0 -188.5 62.5t-71.5 162.5q0 63 26.5 140t53 140t26.5 93 q0 59 -45 59q-54 0 -108.5 -45t-98.5 -123t-72 -196t-28 -253q0 -40 -37 -40q-73 0 -137 28.5t-64 81.5zM330 651q112 93 250.5 299.5t138.5 296.5q0 41 -39 41q-56 0 -151.5 -177.5t-198.5 -459.5z" />
<glyph unicode="i" horiz-adv-x="518" d="M-29 205q0 97 53 264t107 293q17 39 55 39q43 0 102.5 -46t59.5 -71q0 -40 -18 -100.5t-39.5 -115.5t-39.5 -130.5t-18 -142.5q0 -36 17.5 -57t48.5 -21t65 18t60.5 44t48 52t33.5 44l12 18q16 29 41 29q17 0 30 -12t13 -29q0 -8 -4.5 -20.5t-9.5 -20.5l-4 -9 q-6 -10 -17.5 -27t-48 -60.5t-75.5 -76.5t-97 -60t-115 -27q-117 0 -188.5 62.5t-71.5 162.5zM252 1085q0 79 52.5 143t119.5 64q45 0 74.5 -31t29.5 -81q0 -82 -50 -146.5t-116 -64.5q-46 0 -78 31.5t-32 84.5z" />
<glyph unicode="j" horiz-adv-x="440" d="M-592 -389q0 208 479 360q19 56 33 107q106 353 201 684q14 39 57 39q42 0 101 -46t59 -71q0 -84 -168 -584q-3 -6 -8 -26q189 95 278 219q20 29 45 29q19 0 31 -12t12 -29q0 -9 -5.5 -21.5t-10.5 -20.5l-6 -8q-62 -79 -153.5 -143t-231.5 -127q-33 -93 -63.5 -165 t-75 -146.5t-92.5 -123t-112.5 -79.5t-137.5 -31q-95 0 -163.5 57t-68.5 138zM-449 -442q0 -14 9 -23.5t22 -9.5q77 0 141 85.5t121 233.5q-123 -59 -208 -143.5t-85 -142.5zM217 1085q0 79 52.5 143t119.5 64q45 0 75 -31t30 -81q0 -82 -50 -146.5t-116 -64.5 q-46 0 -78.5 31.5t-32.5 84.5z" />
<glyph unicode="k" horiz-adv-x="954" d="M-31 88q0 79 16.5 189t49.5 236t77 254.5t102.5 246.5t123 209.5t142.5 146.5t157 55q65 0 123.5 -61t58.5 -119q0 -28 -9.5 -62t-26.5 -68.5t-38 -71t-45.5 -71t-48 -66t-46 -59t-39 -47t-28.5 -32.5l-12 -14q94 47 176 47q53 0 95.5 -48t42.5 -110q0 -43 -33.5 -89 t-81.5 -80.5t-96 -63t-81 -43.5l-34 -15q0 -16 20 -47t51.5 -63t78 -56t90.5 -24q33 0 66 13.5t56 33t41.5 38.5t27.5 33l9 13q16 29 41 29q17 0 30 -12t13 -29q0 -8 -4.5 -20.5t-9.5 -20.5l-4 -9q-6 -10 -17.5 -27t-48.5 -60.5t-76 -76.5t-96.5 -60t-113.5 -27 q-71 0 -160.5 55.5t-152 133.5t-62.5 140q0 15 30 35.5t73.5 45.5t86.5 54.5t73 71t30 86.5q0 57 -47 57q-56 0 -114 -45.5t-107 -125.5t-80 -203.5t-31 -264.5q0 -40 -37 -40q-24 0 -54.5 5t-65 16.5t-58 34t-23.5 52.5zM332 672q115 103 251 295.5t136 279.5q0 41 -37 41 q-56 0 -152.5 -171t-197.5 -445z" />
<glyph unicode="l" horiz-adv-x="585" d="M-12 287q0 122 33.5 276t93.5 303.5t134 276t164 204.5t175 78q66 0 119 -55t53 -113q0 -84 -84 -248t-203.5 -327t-220.5 -248q-16 -83 -16 -155t34.5 -117t96.5 -45q31 0 65 18t60.5 44t48 52t33.5 44l12 18q16 29 41 29q17 0 30 -12t13 -29q0 -8 -5 -20.5t-9 -20.5 l-5 -9q-6 -10 -17.5 -27t-48 -60.5t-75 -76.5t-96.5 -60t-115 -27q-128 0 -219.5 84t-91.5 223zM283 573q103 86 238.5 338.5t135.5 348.5q0 28 -24 28q-37 0 -103.5 -106t-136.5 -275.5t-110 -333.5z" />
<glyph unicode="m" horiz-adv-x="1400" d="M-35 92q0 236 166 649q16 39 55 39q73 0 144 -110q6 5 16.5 14t43.5 31.5t65 40t76.5 31.5t82.5 14q117 0 168 -152q6 6 18 16.5t47 36.5t70 46t83 36.5t90 16.5q55 0 104 -48t49 -102q0 -45 -31.5 -124.5t-63.5 -170t-32 -161.5q0 -36 17.5 -57t48.5 -21t65 18t60.5 44 t48 52t33.5 44l12 18q16 29 41 29q17 0 30 -12t13 -29q0 -8 -4.5 -20.5t-9.5 -20.5l-5 -9q-6 -10 -17.5 -27t-48 -60.5t-75 -76.5t-96.5 -60t-115 -27q-117 0 -188.5 62.5t-71.5 162.5q0 79 26 157.5t52 139.5t26 98q0 39 -36 39q-38 0 -98 -69.5t-107 -186.5 q-86 -208 -86 -363q0 -25 -10.5 -32.5t-34.5 -7.5q-83 0 -138 31.5t-55 80.5q0 74 30.5 178.5t60.5 195t30 130.5q0 43 -37 43q-39 0 -85.5 -42.5t-89 -117.5t-71 -197t-28.5 -262q0 -25 -10.5 -32.5t-34.5 -7.5q-83 0 -138 31.5t-55 80.5z" />
<glyph unicode="n" horiz-adv-x="1001" d="M-35 92q0 236 166 649q16 39 55 39q73 0 144 -110q6 5 17 14t45.5 31.5t70.5 40t87.5 31.5t100.5 14q66 0 120 -57t54 -119q0 -59 -54 -206t-54 -224q0 -36 17.5 -57t47.5 -21q31 0 65 18t60.5 44t48 52t33.5 44l12 18q16 29 41 29q17 0 30 -12t13 -29q0 -8 -4.5 -20.5 t-8.5 -20.5l-5 -9q-6 -10 -17.5 -27t-48 -60.5t-75 -76.5t-96.5 -60t-115 -27q-115 0 -187.5 59t-72.5 147q0 71 26 155t52 159t26 125q0 13 -12 22.5t-29 9.5q-37 0 -79.5 -28t-84.5 -84t-75.5 -130.5t-54.5 -178t-21 -216.5q0 -25 -10.5 -32.5t-34.5 -7.5q-83 0 -138 31.5 t-55 80.5z" />
<glyph unicode="o" d="M-12 268q0 124 44 227.5t114 168.5t152.5 101t164.5 36q131 0 216 -82.5t85 -220.5q0 -82 -33.5 -173t-93.5 -167q20 -4 33 -4q39 0 78 14.5t67 35t50.5 40.5t34.5 34l11 15q16 29 41 29q17 0 30 -12t13 -29q0 -8 -4.5 -20.5t-8.5 -20.5l-5 -9q-5 -7 -14 -19t-42 -42.5 t-71 -53.5t-100 -42t-129 -19q-37 0 -80 6q-105 -81 -234 -81t-224 84.5t-95 203.5zM229 217q0 -62 27 -100.5t72 -38.5q33 0 63 24q-35 21 -35 50q0 32 38 66t65 34q10 0 22 -4q30 74 47 161.5t17 157.5q0 129 -80 129q-35 0 -76 -37t-76.5 -98.5t-59.5 -153t-24 -190.5z " />
<glyph unicode="p" horiz-adv-x="952" d="M-162 -401q0 106 104 513t185 629q16 39 57 39q71 0 142 -110q6 5 16.5 14t42 31.5t62 40t71 31.5t74.5 14q104 0 175 -80.5t71 -175.5q0 -88 -39 -195t-107 -194q6 -2 19 -2q39 0 78 14.5t67 35t50.5 40.5t33.5 34l12 15q16 29 41 29q17 0 30 -12t13 -29 q0 -8 -4.5 -20.5t-9.5 -20.5l-4 -9q-5 -7 -14 -19t-42 -42.5t-71 -53.5t-100 -42t-129 -19q-18 0 -64 4q-102 -79 -219 -79q-37 0 -71.5 10.5t-57.5 26t-41 31t-27 26.5l-8 10q-37 -96 -74 -283.5t-37 -302.5q0 -25 -8 -35t-30 -10q-71 0 -129 35.5t-58 110.5zM227 250 q0 -63 32 -110.5t81 -47.5q32 0 68 31q-11 15 -11 29q0 31 36.5 64.5t64.5 35.5q38 79 63 168.5t25 140.5q0 101 -70 101q-51 0 -120.5 -72t-119 -171t-49.5 -169z" />
<glyph unicode="q" horiz-adv-x="948" d="M-29 193q0 108 42.5 219t108.5 196t152 139t168 54q46 0 86.5 -10t64.5 -24t41.5 -28t24.5 -24l7 -10q55 0 100 -24t45 -73q0 -19 -22.5 -100.5t-57.5 -208t-55 -221.5q38 0 80.5 22t75 54t60 63.5t42.5 53.5l14 22q16 29 41 29q17 0 30 -12t13 -29q0 -8 -4.5 -20.5 t-9.5 -20.5l-4 -9q-5 -8 -14.5 -22.5t-40.5 -53t-64 -70.5t-82 -63.5t-98 -44.5q3 -4 9 -10.5t20.5 -27t25.5 -42t20 -52.5t9 -60q0 -48 -67.5 -138t-148 -160.5t-116.5 -70.5q-41 0 -71.5 38t-30.5 89q0 69 12.5 161t25 154.5t36 166t28.5 129.5q-5 -7 -15.5 -19t-42 -42 t-64 -52.5t-79 -41.5t-90.5 -19q-85 0 -145 60.5t-60 152.5zM221 227q0 -92 60 -92q47 0 114.5 81t116.5 191.5t49 186.5q0 42 -21.5 65t-54.5 23q-57 0 -120 -77.5t-103.5 -185t-40.5 -192.5zM563 -420l11 16.5t25.5 41.5t32 61.5t25 71.5t11.5 75q0 22 -8 45.5t-16 36.5 l-9 13q-22 -69 -40 -159.5t-25 -145.5z" />
<glyph unicode="r" horiz-adv-x="804" d="M-23 244q0 6 3 14t6 13t8 12.5t6 9.5q119 170 178 364q-3 2 -7.5 6t-16 18t-20.5 30.5t-16 42.5t-7 55q0 60 39 106t79 46q41 0 84 -37.5t43 -69.5q0 -29 -13 -67t-13 -52q0 -21 24 -32t62 -11q51 0 101 13.5t69 13.5q36 0 60 -29t24 -69q0 -30 -24 -83.5t-52 -105 t-52 -120t-24 -124.5q0 -34 18 -52.5t50 -18.5q31 0 65 18t60.5 44t48 52t33.5 44l12 18q16 29 41 29q17 0 30 -12t13 -29q0 -8 -4.5 -20.5t-9.5 -20.5l-5 -9q-6 -10 -17.5 -27t-48 -60.5t-75 -76.5t-96.5 -60t-115 -27q-115 0 -187.5 59t-72.5 145q0 61 20 126.5t44.5 110 t44.5 86.5t20 62q0 18 -30.5 30.5t-61.5 15.5l-31 3q-89 -228 -198 -387q-22 -30 -46 -30q-15 0 -29 14t-14 29z" />
<glyph unicode="s" horiz-adv-x="837" d="M-47 266q0 33 20.5 62.5t49.5 47t57.5 30.5t49.5 18l20 6q43 68 137 213q130 193 213 193q30 0 65 -29.5t35 -46.5q0 -11 -24.5 -57.5t-24.5 -77.5q0 -69 20 -131t40 -117.5t20 -106.5q0 -46 -11.5 -85t-23.5 -55l-12 -15q45 12 88 35t72 46.5t51 46t33 36.5l10 14 q16 29 41 29q17 0 30 -12t13 -29q0 -8 -5 -20.5t-9 -20.5l-5 -9q-3 -6 -10 -15.5t-31.5 -37t-54 -52.5t-79.5 -56t-105.5 -53t-134 -37t-164.5 -15q-73 0 -143 30t-119 75t-79 98t-30 98zM174 289q0 -64 9 -114t32.5 -85t58.5 -35q47 0 81 51.5t34 120.5q0 55 -31.5 168 t-31.5 152q-152 -231 -152 -258z" />
<glyph unicode="t" horiz-adv-x="557" d="M-20 223q0 82 37 236.5t94 322.5h-56q-16 0 -16 19q0 17 20.5 44t40.5 27h41q68 184 119 275q17 39 55 39q44 0 102 -47t58 -76q0 -5 -3 -16t-10 -31t-14 -38t-19 -50l-21 -56h137q16 0 16 -18q0 -17 -21 -44.5t-40 -27.5h-127q-144 -385 -144 -559q0 -45 32 -75.5 t77 -30.5q31 0 65 18t60.5 44t48 52t33.5 44l12 18q16 29 41 29q17 0 30 -12t13 -29q0 -8 -4.5 -20.5t-8.5 -20.5l-5 -9q-6 -10 -17.5 -27t-48 -60.5t-75.5 -76.5t-97 -60t-115 -27q-66 0 -132 30t-112 87.5t-46 125.5z" />
<glyph unicode="u" horiz-adv-x="999" d="M-29 178q0 98 55.5 283.5t104.5 300.5q17 39 55 39q43 0 102.5 -46t59.5 -71q0 -49 -33 -136.5t-66.5 -190t-33.5 -187.5q0 -26 12.5 -43.5t34.5 -17.5q47 0 100 45.5t80 99.5q24 47 86.5 251t85.5 257q17 39 58 39q42 0 100.5 -46t58.5 -71q0 -49 -29 -130.5t-58 -177.5 t-29 -181q0 -36 17.5 -57t47.5 -21q31 0 65 18t60.5 44t48 52t33.5 44l12 18q16 29 41 29q17 0 30 -12t13 -29q0 -8 -4.5 -20.5t-8.5 -20.5l-5 -9q-6 -10 -17.5 -27t-48 -60.5t-75 -76.5t-96.5 -60t-115 -27q-107 0 -166.5 43.5t-81.5 109.5q-55 -64 -131 -108.5t-150 -44.5 q-75 0 -144 59.5t-69 138.5z" />
<glyph unicode="v" horiz-adv-x="851" d="M-29 123q0 150 51.5 328t108.5 311q17 39 55 39q42 0 102 -55.5t60 -81.5q0 -51 -33 -138t-66.5 -175.5t-33.5 -143.5q0 -24 9 -39.5t26 -15.5q12 0 29 10v10q0 32 37.5 66t64.5 34h2q74 102 126 232.5t52 255.5q0 41 43 41q52 0 108 -50t56 -116q0 -78 -82 -205.5 t-197 -228.5q55 -47 121 -47q39 0 78 14.5t67.5 35t51 40.5t33.5 34l12 15q16 29 41 29q17 0 30 -12t13 -29q0 -8 -4.5 -20.5t-9.5 -20.5l-4 -9q-5 -7 -14 -19t-42.5 -42.5t-71.5 -53.5t-100 -42t-129 -19q-44 0 -103 12.5t-104 32.5q-189 -120 -280 -120q-35 0 -69 45.5 t-34 97.5z" />
<glyph unicode="w" horiz-adv-x="1378" d="M-29 178q0 98 55.5 283.5t104.5 300.5q17 39 55 39q43 0 102.5 -46t59.5 -71q0 -49 -33 -136.5t-66.5 -190t-33.5 -187.5q0 -26 12.5 -43.5t34.5 -17.5q48 0 106.5 60t94.5 150q30 77 83 236.5t72 206.5q17 39 58 39q42 0 101 -46t59 -71q0 -39 -20 -103.5t-43.5 -125 t-43.5 -142.5t-20 -151q0 -62 53 -62q30 0 69 27q-8 11 -8 25q0 32 37 65t64 35q53 99 85.5 237.5t32.5 270.5q0 41 43 41q51 0 107.5 -50t56.5 -116q0 -102 -52 -228.5t-138 -230.5q37 -22 78 -22q39 0 78 14.5t67 35t50.5 40.5t33.5 34l12 15q16 29 41 29q17 0 30 -12 t13 -29q0 -8 -4.5 -20.5t-9.5 -20.5l-4 -9q-5 -7 -14 -19t-42.5 -42.5t-71.5 -53.5t-100 -42t-129 -19q-59 0 -139 17q-116 -92 -235 -92q-42 0 -82.5 17t-68 41t-49 47.5t-31.5 40.5l-11 17q-5 -7 -15 -18t-40.5 -39t-62.5 -49.5t-78.5 -39t-90.5 -17.5q-75 0 -144 59.5 t-69 138.5z" />
<glyph unicode="x" horiz-adv-x="929" d="M-23 244q0 6 3 14t6 13t8 12.5t6 9.5q119 170 178 364q20 63 95 103.5t143 40.5q73 0 103 -75.5t38 -264.5q47 62 73.5 130.5t26.5 102.5q0 33 84.5 70t116.5 37q39 0 39 -37q0 -45 -111 -188t-225 -228q14 -231 150 -231q31 0 65 18t60.5 44t48 52t33.5 44l12 18 q16 29 41 29q17 0 30 -12t13 -29q0 -8 -5 -20.5t-9 -20.5l-5 -9q-6 -10 -17.5 -27t-48 -60.5t-75 -76.5t-96.5 -60t-115 -27q-114 0 -193 51.5t-110 161.5q-218 -213 -309 -213q-15 0 -22 6t-7 24q0 31 35 92t65 68q92 20 220 123q-6 53 -15 135q-11 104 -18 136t-21 32 q-13 0 -24 -25q-73 -187 -178 -340q-22 -30 -46 -30q-15 0 -29 14t-14 29z" />
<glyph unicode="y" horiz-adv-x="954" d="M-20 178q0 98 55 284t104 300q17 39 56 39q43 0 102 -46t59 -71q0 -42 -33 -133.5t-66.5 -197.5t-33.5 -183q0 -26 12.5 -43.5t34.5 -17.5q46 0 98.5 46t82.5 99q27 49 55 123t44 127.5t41 143t32 114.5q4 18 20 28.5t37 10.5q42 0 101 -46t59 -71q0 -40 -41 -205 t-90 -334l-25 -92q169 100 270 240q20 29 45 29q19 0 31 -12t12 -29q0 -8 -5.5 -20.5t-10.5 -20.5l-6 -9q-126 -169 -367 -294q-20 -70 -39 -125t-46 -119t-59.5 -110t-73 -86t-92.5 -60.5t-112 -20.5q-94 0 -162.5 57t-68.5 138q0 41 21.5 78.5t56.5 68t93 63t116 58 t141 58.5q22 85 45 196q-55 -64 -130.5 -108.5t-149.5 -44.5q-75 0 -144 59.5t-69 138.5zM143 -434q0 -41 37 -41q63 0 116.5 79.5t94.5 205.5q-107 -61 -177.5 -131t-70.5 -113z" />
<glyph unicode="z" horiz-adv-x="962" d="M-23 244q0 6 3 14t6 13t8 12.5t6 9.5q119 170 178 364q27 86 71 115t120 29q71 0 169 -19.5t140 -19.5q36 0 80.5 19.5t54.5 19.5q29 0 56.5 -40.5t27.5 -74.5q0 -25 -93 -102t-232.5 -186t-209.5 -179q63 0 120 -16t92 -35t81 -35t88 -16q31 0 65 18t60.5 44t48.5 52 t34 44l12 18q16 29 41 29q17 0 30 -12t13 -29q0 -8 -4.5 -20.5t-9.5 -20.5l-5 -9q-6 -10 -17.5 -27t-48 -60.5t-75 -76.5t-96.5 -60t-115 -27q-55 0 -141.5 19t-155.5 19q-54 0 -121 -19t-86 -19q-35 0 -66.5 34.5t-31.5 65.5q0 36 94.5 120.5t223 190t177.5 164.5 q-40 0 -114.5 20.5t-114.5 20.5q-43 0 -75 -30.5t-70 -104.5q-81 -160 -129 -230q-22 -30 -46 -30q-15 0 -29 14t-14 29z" />
<glyph unicode="{" horiz-adv-x="555" d="M-16 121q0 59 17.5 122t38.5 108.5t38.5 107.5t17.5 119q0 26 -9.5 48.5t-21 35.5t-21 26.5t-9.5 22.5q0 37 63 67q131 67 207 264q15 38 37.5 99.5t33.5 88.5t28 65t33.5 62.5t37.5 47.5q62 67 151 97t148 30q41 0 41 -29q0 -24 -47 -39q-56 -18 -92.5 -56t-65.5 -116 q-24 -64 -43.5 -160.5t-44.5 -158.5q-16 -41 -51 -81t-74 -68.5t-75.5 -51t-59.5 -34.5l-24 -11q4 -3 11.5 -8.5t25.5 -23.5t32 -37.5t25.5 -49.5t11.5 -61q0 -60 -25.5 -127.5t-55.5 -117.5t-55.5 -116t-25.5 -123q0 -67 41 -108q3 -3 9 -8.5t8.5 -8t5.5 -7t4.5 -9 t1.5 -10.5q0 -14 -11 -22.5t-28 -8.5q-90 0 -159.5 65.5t-69.5 174.5z" />
<glyph unicode="|" horiz-adv-x="532" d="M164 -59v1491q0 51 100 51q105 0 105 -51v-1495q0 -23 -21 -34.5t-78 -11.5q-106 0 -106 50z" />
<glyph unicode="}" horiz-adv-x="555" d="M-16 -90q0 24 47 39q55 18 91 56t66 116q24 64 43.5 160.5t44.5 158.5q25 64 96.5 125.5t129.5 90.5l59 30q-4 3 -11.5 8.5t-25.5 23.5t-32 37.5t-25.5 49.5t-11.5 61q0 50 16.5 102t40.5 97.5t47.5 90.5t40 96t16.5 98q0 67 -41 108q-3 3 -9 8.5t-8 8t-5.5 7t-4.5 9 t-1 10.5q0 14 11 22.5t28 8.5q90 0 159.5 -65.5t69.5 -174.5q0 -59 -17.5 -122t-39 -108.5t-39 -107t-17.5 -118.5q0 -33 15.5 -60t31 -45t15.5 -29q0 -36 -64 -67q-129 -67 -206 -264q-15 -38 -37.5 -99.5t-33.5 -88.5t-28 -65t-33.5 -62.5t-37.5 -47.5q-62 -67 -151 -97 t-148 -30q-41 0 -41 29z" />
<glyph unicode="~" horiz-adv-x="954" d="M43 528q0 16 13 46.5t36 60.5q42 55 91.5 84t133.5 29q48 0 100 -17.5t90 -38t89.5 -38t99.5 -17.5q53 0 96.5 17.5t67 35t29.5 17.5q9 0 16.5 -6.5t7.5 -16.5q0 -21 -18.5 -58t-48.5 -69q-33 -35 -54 -53.5t-60 -35.5t-85 -17q-57 0 -127.5 30t-145.5 60t-141 30 q-38 0 -75 -16.5t-60.5 -32.5t-29.5 -16q-25 0 -25 22z" />
<glyph unicode="&#xa1;" horiz-adv-x="589" d="M6 -125q0 35 60.5 178t148 342t127.5 307q19 55 57 72q59 27 107 27q39 0 39 -35q0 -19 -70.5 -245t-141.5 -469.5t-71 -307.5q0 -35 -57 -35q-54 0 -126.5 55.5t-72.5 110.5zM377 979q0 60 47 116t113 56q49 0 77.5 -29.5t28.5 -79.5q0 -58 -49.5 -113t-110.5 -55 q-47 0 -76.5 28t-29.5 77z" />
<glyph unicode="&#xa2;" horiz-adv-x="727" d="M20 303q0 152 98.5 262.5t264.5 134.5v54q0 24 23.5 38.5t50.5 14.5q30 0 52.5 -14t22.5 -39v-52q79 -10 117.5 -44t38.5 -80q0 -34 -19 -54t-46 -20q-23 0 -38.5 16.5t-15.5 42.5q0 38 -37 45v-438q45 11 97 47q39 27 49 27q13 0 21 -8.5t8 -18.5q0 -27 -48 -72 q-63 -63 -127 -90v-75q0 -22 -19.5 -38t-49.5 -16q-29 0 -54.5 14t-25.5 37v41h-21q-152 0 -247 76t-95 209zM299 346q0 -107 84 -162v357q-84 -101 -84 -195z" />
<glyph unicode="&#xa3;" horiz-adv-x="899" d="M4 135q0 16 13.5 36.5t32 40.5t40.5 58.5t35 83.5q19 68 25 248h-97q-28 0 -28 31q0 26 20 69t43 43h64v54q0 256 111.5 397t309.5 141q176 0 264.5 -64t88.5 -159q0 -55 -28 -110.5t-68.5 -94.5t-85 -63.5t-78.5 -24.5q-15 0 -23 10t-8 25q0 3 21.5 82t21.5 145 q0 62 -22.5 93.5t-63.5 31.5q-68 0 -110 -67.5t-42 -179.5q0 -84 -4 -216h103q20 0 27 -5.5t7 -22.5q0 -25 -22.5 -70t-46.5 -45h-80q-23 -245 -96 -352q40 4 69 4q43 0 124.5 -5t105.5 -5q64 0 92 14t63 55q26 33 41 33q31 0 31 -37q0 -27 -12 -65.5t-37.5 -83t-60 -82.5 t-85.5 -63t-108 -25q-69 0 -171 26.5t-167 26.5q-24 0 -65.5 -21.5t-63.5 -21.5q-30 0 -55 48.5t-25 86.5z" />
<glyph unicode="&#xa5;" horiz-adv-x="952" d="M25 395q0 24 11.5 41.5t23.5 23.5l12 5h159l21 94h-178l-2 1l-2.5 2.5l-4 4t-4.5 5.5t-4.5 8t-4 11t-2.5 13.5t-1 16.5q0 29 11.5 47.5t23.5 21.5l12 4h166l-205 559q0 3 0.5 7.5t4 16.5t10.5 21.5t23 17t38 7.5q34 0 61 -6.5t40 -15.5t21.5 -17.5t10.5 -15.5l2 -6 l154 -420l285 420q1 3 3.5 7t14.5 15.5t28 20t46 15.5t67 7q70 0 70 -51l-4 -25l-414 -557h146q2 0 4.5 -0.5t9.5 -3.5t12.5 -9.5t10 -20t4.5 -31.5q0 -31 -16 -48.5t-32 -19.5l-16 -2h-184l-21 -94h211q6 0 10 -1.5t10 -7t9.5 -20.5t3.5 -39q0 -29 -15.5 -45.5t-30.5 -17.5 l-16 -2h-204l-58 -285q0 -2 -1.5 -6t-8 -14t-16.5 -17.5t-29.5 -13.5t-44.5 -6q-31 0 -53.5 6t-32 14t-15 16.5t-5.5 14.5v6l57 285h-158q-1 0 -2.5 0.5t-5.5 4.5t-7.5 10t-6 18.5t-2.5 29.5z" />
<glyph unicode="&#xa6;" horiz-adv-x="256" d="M47 283q0 23 56 47t83 24q17 0 23 -7.5t6 -29.5v-604q0 -23 -53.5 -44t-81.5 -21q-33 0 -33 30v605zM47 600v604q0 23 56 47.5t83 24.5q17 0 23 -7.5t6 -29.5v-604q0 -23 -53.5 -44.5t-81.5 -21.5q-33 0 -33 31z" />
<glyph unicode="&#xa7;" horiz-adv-x="772" d="M20 59q0 46 32 75.5t69 29.5q30 0 50.5 -18.5t29 -40t21.5 -40t30 -18.5q37 0 53.5 31.5t16.5 77.5q0 39 -25.5 86.5t-61.5 95.5t-72 102t-61.5 125.5t-25.5 145.5q0 140 75 263.5t197 196t256 72.5q65 0 106.5 -30.5t41.5 -79.5t-26.5 -78t-68.5 -29q-31 0 -51 12 t-28.5 29t-14.5 33.5t-15 28.5t-24 12q-36 0 -53.5 -30t-17.5 -73q0 -39 24.5 -82.5t59.5 -87.5t70.5 -94.5t60 -121.5t24.5 -150q0 -141 -69.5 -269t-190 -207t-258.5 -79q-76 0 -115 30.5t-39 81.5zM233 793q0 -51 23 -106t56 -103.5t66 -98.5t56 -109t23 -116 q0 -21 -3.5 -46.5t-7.5 -40.5l-4 -15q4 4 10.5 12t24 33.5t30.5 51.5t23.5 64t10.5 74q0 54 -35.5 124.5t-77.5 129t-77.5 133.5t-35.5 138q0 29 4.5 56t8.5 40l4 12q-34 -30 -66.5 -93t-32.5 -140z" />
<glyph unicode="&#xa8;" horiz-adv-x="610" d="M43 1085q0 56 42.5 107t98.5 51q38 0 62 -28t24 -70q0 -58 -42 -109t-103 -51q-35 0 -58.5 28.5t-23.5 71.5zM340 1085q0 56 42.5 107t98.5 51q38 0 62 -28t24 -70q0 -58 -42 -109t-103 -51q-35 0 -58.5 28.5t-23.5 71.5z" />
<glyph unicode="&#xa9;" horiz-adv-x="1024" d="M25 889q0 96 38.5 185t103.5 154t154.5 103.5t186.5 38.5q98 0 188 -38.5t155 -103.5t103.5 -153.5t38.5 -185.5q0 -131 -65.5 -243t-177 -177.5t-242.5 -65.5q-97 0 -186.5 39t-154.5 104t-103.5 155t-38.5 188zM145 889q0 -153 106 -259t257 -106q154 0 260 105.5 t106 259.5q0 151 -106.5 256.5t-259.5 105.5q-151 0 -257 -105.5t-106 -256.5zM211 883q0 134 90.5 217.5t235.5 83.5q58 0 111.5 -21t53.5 -43q0 -82 -38 -82q-6 0 -46 18.5t-77 18.5q-93 0 -147 -50.5t-54 -137.5q0 -89 51.5 -140t140.5 -51q49 0 91 17.5t51 17.5 q41 0 41 -59q0 -28 -35.5 -47.5t-77 -26t-82.5 -6.5q-139 0 -224 74t-85 217z" />
<glyph unicode="&#xaa;" horiz-adv-x="675" d="M4 1049q0 89 43.5 176.5t111.5 142.5t136 55q29 0 53.5 -6t39 -14.5t25.5 -17.5t15 -15l4 -6q33 0 61.5 -15t28.5 -44q0 -14 -36.5 -117t-36.5 -152q0 -14 9.5 -24.5t24.5 -10.5q31 0 65 27.5t52 54.5l18 27q11 18 27 18q9 0 18 -8t9 -18q0 -4 -3 -11.5t-7 -12.5l-3 -5 l-11 -16.5t-29.5 -37.5t-46.5 -47t-59.5 -37t-70.5 -17q-54 0 -90.5 27.5t-42.5 78.5q-3 -4 -9.5 -11.5t-26 -25.5t-39.5 -32t-49 -25.5t-56 -11.5q-52 0 -88.5 37t-36.5 94zM158 1069q0 -55 37 -55q44 0 108 104.5t64 177.5q0 25 -12.5 39.5t-32.5 14.5q-35 0 -74.5 -48 t-64.5 -114.5t-25 -118.5z" />
<glyph unicode="&#xab;" horiz-adv-x="1128" d="M41 580q0 17 2 32.5t4 26.5t8.5 25t10 21.5t14.5 22.5t15.5 21t20 25t21.5 26q69 85 350 332q38 33 64 33q27 0 66.5 -41t39.5 -72q0 -6 -1.5 -11.5t-2.5 -9t-5.5 -9t-6 -7l-8 -8l-8.5 -8.5q-219 -198 -310 -295q-53 -57 -53 -102q0 -37 45 -86q120 -130 320 -318 q14 -12 19 -17.5t8 -14t3 -21.5q0 -29 -37.5 -70t-68.5 -41q-26 0 -53 23q-217 193 -367 354q-28 31 -42 48.5t-31 58t-17 82.5zM471 580q0 17 2 32.5t4 26.5t8.5 25t10 21.5t14.5 22.5t15.5 21t20 25t21.5 26q67 82 351 332q1 1 7 6.5t7.5 6.5t7.5 5.5t9.5 6t9 4t11 3.5 t11.5 1q27 0 66.5 -41t39.5 -72q0 -6 -1.5 -11.5t-2.5 -9t-5.5 -9t-6 -7l-8 -8l-8.5 -8.5q-219 -198 -310 -295q-53 -57 -53 -102q0 -37 45 -86q120 -130 320 -318q14 -12 19 -17.5t8 -14t3 -21.5q0 -29 -37.5 -70t-68.5 -41q-26 0 -53 23q-217 193 -367 354 q-28 31 -42 48.5t-31 58t-17 82.5z" />
<glyph unicode="&#xad;" horiz-adv-x="890" d="M35 643q0 12 8.5 20.5t17.5 8.5t51 -24.5t83 -24.5q115 0 282.5 23.5t218.5 23.5q49 0 111.5 -67t62.5 -99q0 -11 -11 -22t-19 -11q-1 0 -47.5 20.5t-87.5 20.5q-66 0 -137.5 -17t-122 -37.5t-109 -37.5t-100.5 -17q-48 0 -97.5 52.5t-76.5 108t-27 79.5z" />
<glyph unicode="&#xae;" horiz-adv-x="1005" d="M12 889q0 130 65 241.5t176 176.5t241 65q199 0 342 -142.5t143 -340.5q0 -130 -65.5 -241t-177 -175.5t-242.5 -64.5q-130 0 -241 64.5t-176 175.5t-65 241zM127 889q0 -151 108.5 -257t258.5 -106q153 0 259.5 105.5t106.5 257.5t-107 259t-259 107 q-150 0 -258.5 -107.5t-108.5 -258.5zM299 655v488q0 8 7 15.5t16 8.5q114 13 145 13q115 0 180 -47q53 -37 53 -115q0 -80 -75 -131q37 -34 51 -90l41 -135q2 -4 2 -11q0 -9 -6.5 -15.5t-16.5 -6.5h-78q-3 0 -9.5 4.5t-6.5 7.5q-20 30 -45 125q-20 77 -90 80h-47v-191 q0 -26 -23 -26h-73q-11 0 -18 7t-7 19zM420 942h51q49 0 78 18.5t29 49.5q0 67 -109 67q-35 0 -49 -4v-131z" />
<glyph unicode="&#xaf;" horiz-adv-x="735" d="M61 1030q0 29 19.5 76t44.5 47h522q23 0 31 -6t8 -25q0 -28 -22.5 -76.5t-47.5 -48.5h-522q-33 0 -33 33z" />
<glyph unicode="&#xb0;" horiz-adv-x="495" d="M31 1055q0 91 64 155t155 64t155 -64t64 -155t-64 -155t-155 -64t-155 64t-64 155zM154 1055q0 -40 28 -68.5t68 -28.5q39 0 66.5 28.5t27.5 68.5t-27 67t-67 27t-68 -27t-28 -67z" />
<glyph unicode="&#xb1;" horiz-adv-x="1015" d="M41 35q0 26 31 90.5t55 64.5h747q22 0 29.5 -5.5t7.5 -22.5q0 -25 -34 -92.5t-58 -67.5h-747q-31 0 -31 33zM72 696q0 32 11 62t28 30h301v299q0 20 30 31.5t62 11.5q33 0 64.5 -10.5t31.5 -27.5v-304h299q20 0 31.5 -30t11.5 -62t-11 -64t-28 -32h-303v-297 q0 -20 -31.5 -31.5t-64.5 -11.5q-32 0 -62 11t-30 28v301h-297q-20 0 -31.5 31.5t-11.5 64.5z" />
<glyph unicode="&#xb2;" horiz-adv-x="825" d="M-4 692q0 49 40.5 86t100.5 37q39 0 195 -37q127 110 224 257.5t97 256.5q0 37 -26 60.5t-64 23.5q-71 0 -152 -83t-81 -173q0 -31 11 -49.5t21.5 -22.5t20.5 -4q14 0 14 -12q0 -14 -28 -33.5t-70 -19.5q-52 0 -94.5 32.5t-42.5 84.5q0 74 43 141t109 111.5t145 71 t153 26.5q115 0 176.5 -51.5t61.5 -147.5q0 -95 -116 -235t-275 -260q63 -13 116 -13q40 0 72.5 13.5t49.5 27t22 13.5q8 0 14 -6t6 -13q0 -9 -16 -38.5t-42 -64t-65.5 -61t-78.5 -26.5q-28 0 -67 13t-66 26t-78 39q-127 -78 -197 -78q-58 0 -95.5 32t-37.5 76zM82 700 q0 -32 43 -32q44 0 108 39q-69 26 -98 26q-25 0 -39 -10t-14 -23z" />
<glyph unicode="&#xb3;" horiz-adv-x="776" d="M16 735q0 31 24.5 59.5t57 45.5t60.5 27t39 10q26 0 26 -21q0 -10 -12 -22q-39 -34 -39 -86q0 -36 29.5 -64.5t79.5 -28.5q90 0 154.5 93t64.5 237q0 51 -24 81t-66 30q-94 -107 -160 -107q-30 0 -48 18t-18 46q0 22 17.5 41t43 29.5t51 18.5t42.5 10l18 3l111 102 q-30 0 -58 1t-68.5 6t-69.5 13t-50.5 24t-21.5 38q0 29 36.5 55t77 39t62.5 13q20 0 20 -16q0 -4 -13 -18.5t-13 -25.5q0 -25 52.5 -42t119.5 -17q3 5 8.5 13t22.5 28.5t34.5 36t41.5 28.5t46 13q28 0 47 -15.5t19 -41.5q0 -39 -34 -69t-103 -44l-125 -119q36 0 69.5 -10 t64 -31t48.5 -59.5t18 -89.5q0 -77 -41 -149.5t-104.5 -122.5t-141 -80.5t-149.5 -30.5q-107 0 -176.5 42t-69.5 109z" />
<glyph unicode="&#xb4;" horiz-adv-x="403" d="M12 1014q0 22 33 39q97 59 199 221q14 23 23.5 32t25.5 9q25 0 64.5 -51t39.5 -84q0 -26 -9.5 -43t-39.5 -43q-59 -50 -150.5 -80.5t-148.5 -30.5q-17 0 -27 9t-10 22z" />
<glyph unicode="&#xb6;" horiz-adv-x="950" d="M10 1024q0 85 40 150.5t107 103.5t144 57t160 19h424q27 0 38 -16t11 -58q0 -70 -47 -70h-94v-1177q0 -21 -25 -34t-51 -13q-28 0 -51 12.5t-23 34.5v1177h-115v-1177q0 -21 -25.5 -34t-49.5 -13q-30 0 -55 12.5t-25 34.5v653q-154 5 -258.5 95t-104.5 243z" />
<glyph unicode="&#xb7;" horiz-adv-x="299" d="M41 618q0 52 41 101t94 49q36 0 59 -27t23 -67q0 -55 -40.5 -103.5t-98.5 -48.5q-34 0 -56 27.5t-22 68.5z" />
<glyph unicode="&#xb8;" horiz-adv-x="536" d="M12 -350q0 35 24.5 62.5t55.5 27.5q25 0 42 -16.5t38.5 -33t58.5 -16.5q61 0 121 42t60 65q0 10 -11 10q-33 0 -96 -15.5t-84 -15.5q-24 0 -39.5 17.5t-15.5 36.5q0 26 8 72.5t16 79.5l7 34h114q0 -94 39 -94q18 0 56.5 4t52.5 4q30 0 45.5 -20t15.5 -54t-13.5 -72.5 t-42.5 -77t-69.5 -69.5t-99.5 -50.5t-127 -19.5q-67 0 -111.5 27.5t-44.5 71.5z" />
<glyph unicode="&#xb9;" horiz-adv-x="512" d="M25 1202q0 56 79 135q13 13 27 13q4 0 8 -4t4 -9q0 -65 52 -65q18 0 38.5 4t31.5 8l11 4l8.5 17t23 38t35 48t43.5 38t50 17q37 0 58.5 -21.5t21.5 -56.5q0 -26 -27 -64t-71 -73q-32 -25 -89.5 -134.5t-106 -253t-48.5 -235.5q0 -12 -4 -18t-18 -6q-26 0 -75.5 36 t-49.5 66q0 62 49.5 187t99.5 219l49 94q-67 -45 -135 -45q-26 0 -45.5 17t-19.5 44z" />
<glyph unicode="&#xba;" horiz-adv-x="528" d="M20 1092q0 77 27.5 142t71 105t95 62t101.5 22q82 0 135.5 -51t53.5 -137q0 -51 -21 -107.5t-57 -105t-91 -80t-116 -31.5q-80 0 -139.5 54t-59.5 127zM170 1061q0 -39 17 -63.5t44 -24.5q29 0 55.5 32t43.5 79t27 99t10 95q0 80 -50 80q-48 0 -97.5 -88.5t-49.5 -208.5z " />
<glyph unicode="&#xbb;" horiz-adv-x="1128" d="M41 125q0 13 3.5 22t8.5 14t19 17q193 181 319 318q45 49 45 86q0 45 -53 102q-97 103 -309 295q-2 2 -10 9.5t-10 10t-6.5 8.5t-5.5 12t-1 13q0 31 39.5 72t66.5 41q26 0 64 -33q281 -247 350 -332q6 -7 21.5 -26t20 -25t15.5 -21t14.5 -22.5t10 -21.5t8.5 -25t4 -26.5 t2 -32.5q0 -42 -17 -82.5t-31 -58t-42 -48.5q-155 -166 -366 -354q-27 -23 -54 -23q-31 0 -68.5 41t-37.5 70zM471 125q0 13 3.5 22t8.5 14t19 17q193 181 319 318q45 49 45 86q0 45 -53 102q-97 103 -309 295q-2 2 -10 9.5t-10 10t-6.5 8.5t-5.5 12t-1 13q0 31 40 72t67 41 q6 0 11.5 -1t11 -3.5t9 -4t9.5 -6t7.5 -5.5t7.5 -6.5t7 -6.5q281 -247 350 -332q6 -7 21.5 -26t20 -25t15.5 -21t14.5 -22.5t10 -21.5t8.5 -25t4 -26.5t2 -32.5q0 -42 -17 -82.5t-31 -58t-42 -48.5q-155 -166 -366 -354q-27 -23 -53 -23q-31 0 -69 41t-38 70z" />
<glyph unicode="&#xbc;" horiz-adv-x="1292" d="M25 1202q0 -27 19.5 -44t45.5 -17q30 0 64 11.5t52 22.5l19 11q-22 -40 -55 -104t-88 -199t-55 -197q0 -30 49.5 -66t75.5 -36q14 0 18 6t4 18q0 92 48.5 235.5t106 253t89.5 134.5q44 35 71 73t27 64q0 35 -21.5 56.5t-58.5 21.5q-38 0 -78 -39.5t-61 -78.5l-21 -40 q-40 -16 -81 -16q-52 0 -52 65q0 5 -4 9t-8 4q-14 0 -27 -13q-79 -79 -79 -135zM100 33q0 2 9 33l542 1370q3 10 14.5 19t22.5 9q45 0 87 -13t42 -30q0 -24 -10 -47l-543 -1345q-9 -29 -37 -29h-69q-18 0 -28.5 1.5t-20 9t-9.5 22.5zM483 395q0 -30 26.5 -53t59.5 -23 q35 0 72 13t57 26l19 13q11 0 37 -15.5t67.5 -41.5t73.5 -42q-45 -115 -45 -168q0 -39 40.5 -69.5t70.5 -30.5q22 0 22 23q0 97 39 219q29 4 58 22t53 44t39.5 46.5t27.5 40.5q6 12 6 21q0 3 -4 6.5t-8 3.5q-10 0 -18 -8q-44 -35 -107 -47q69 170 195 377q18 29 38 54.5 t29.5 37t9.5 14.5q0 12 -10 12q-28 0 -79 -15.5t-81 -45.5q-49 -49 -114 -170.5t-119 -257.5q-36 7 -71.5 20.5t-53.5 22.5l-18 10q8 9 21.5 25t47.5 61t60 86t47.5 90t21.5 82q0 43 -33.5 67.5t-80.5 24.5q-54 0 -119.5 -38.5t-65.5 -59.5q0 -6 6.5 -12t12.5 -6 q3 0 32.5 15t51.5 15q20 0 32.5 -12.5t12.5 -34.5q0 -34 -15 -75.5t-36 -75.5t-42 -63t-36 -45l-15 -17q-51 14 -112 14q-39 0 -71 -21.5t-32 -58.5z" />
<glyph unicode="&#xbd;" horiz-adv-x="1273" d="M25 1202q0 -27 19.5 -44t45.5 -17q30 0 64 11.5t52 22.5l19 11q-22 -40 -55 -104t-88 -199t-55 -197q0 -30 49.5 -66t75.5 -36q14 0 18 6t4 18q0 92 48.5 235.5t106 253t89.5 134.5q44 35 71 73t27 64q0 35 -21.5 56.5t-58.5 21.5q-38 0 -78 -39.5t-61 -78.5l-21 -40 q-40 -16 -81 -16q-52 0 -52 65q0 5 -4 9t-8 4q-14 0 -27 -13q-79 -79 -79 -135zM100 33q0 2 9 33l542 1370q3 10 14.5 19t22.5 9q45 0 87 -13t42 -30q0 -24 -10 -47l-543 -1345q-9 -29 -37 -29h-69q-18 0 -28.5 1.5t-20 9t-9.5 22.5zM379 111q0 -44 37.5 -76.5t95.5 -32.5 q70 0 197 78q51 -26 78 -39t66 -26t67 -13q39 0 78.5 27t65.5 61.5t42 64t16 38.5q0 7 -6 12.5t-14 5.5q-5 0 -22 -13.5t-49.5 -26.5t-72.5 -13q-58 0 -116 12q159 120 275 260.5t116 235.5t-61.5 146.5t-176.5 51.5q-74 0 -153 -26.5t-145 -71t-109 -111.5t-43 -141 q0 -52 42.5 -84.5t94.5 -32.5q42 0 70 20t28 34q0 12 -14 12q-10 0 -20.5 4t-21.5 22.5t-11 49.5q0 90 81 173t152 83q38 0 64 -23.5t26 -60.5q0 -109 -97 -256.5t-224 -257.5q-152 36 -195 36q-60 0 -100.5 -36.5t-40.5 -85.5zM465 119q0 13 14 23t39 10q27 0 98 -27 q-64 -39 -108 -39q-43 0 -43 33z" />
<glyph unicode="&#xbe;" horiz-adv-x="1662" d="M16 735q0 -67 69.5 -109t176.5 -42q72 0 149.5 30.5t141 80.5t104.5 122.5t41 149.5q0 51 -18 89.5t-48.5 59.5t-64 31t-69.5 10l125 119q69 14 103 44t34 69q0 26 -19 41.5t-47 15.5q-35 0 -73 -30t-59 -60l-21 -29q-67 0 -119.5 17t-52.5 42q0 11 13 25.5t13 18.5 q0 16 -20 16q-22 0 -62.5 -13t-77 -39t-36.5 -55q0 -22 21.5 -38t50.5 -24t69.5 -13t68.5 -6t58 -1l-111 -102q-7 -1 -18.5 -3t-41 -10t-52.5 -18.5t-41.5 -29.5t-18.5 -41q0 -28 18 -46t48 -18q66 0 160 107q42 0 66 -30t24 -81q0 -144 -64.5 -237t-154.5 -93 q-50 0 -79.5 28.5t-29.5 64.5q0 52 39 86q12 12 12 22q0 21 -26 21q-11 0 -39 -10t-60.5 -27t-57 -45.5t-24.5 -59.5zM449 33q0 5 8 33l542 1370q3 10 14.5 19t22.5 9q45 0 87 -13t42 -30q0 -24 -10 -47l-543 -1345q-9 -29 -37 -29h-69q-18 0 -28.5 1.5t-19.5 9t-9 22.5z M831 395q0 -30 27 -53t60 -23q35 0 71.5 13t56.5 26l19 13q11 0 37 -15.5t67.5 -41.5t73.5 -42q-45 -115 -45 -168q0 -39 40.5 -69.5t70.5 -30.5q22 0 22 23q0 97 39 219q29 4 58 22t53 44t39.5 46.5t27.5 40.5q6 12 6 21q0 3 -4 6.5t-8 3.5q-10 0 -18 -8q-44 -35 -107 -47 q69 170 195 377q18 29 38 54.5t30 37t10 14.5q0 12 -11 12q-28 0 -78.5 -15.5t-80.5 -45.5q-49 -49 -114.5 -171t-119.5 -257q-36 7 -71.5 20.5t-53.5 22.5l-18 10q8 9 21.5 25t47.5 61t60 86t47.5 90t21.5 82q0 43 -33.5 67.5t-80.5 24.5q-54 0 -119.5 -38.5t-65.5 -59.5 q0 -6 6.5 -12t12.5 -6q3 0 32.5 15t51.5 15q20 0 32.5 -12.5t12.5 -34.5q0 -55 -36 -124t-72 -111l-35 -41q-52 14 -113 14q-39 0 -71 -21.5t-32 -58.5z" />
<glyph unicode="&#xbf;" horiz-adv-x="892" d="M4 43q0 65 26.5 126.5t70.5 111.5t98 97.5t112 91t108.5 83.5t91.5 84t58 84q19 46 60 51q30 4 71.5 17.5t53.5 13.5q11 0 20.5 -9.5t9.5 -23.5q0 -40 -26.5 -88.5t-69 -97.5t-94.5 -103.5t-103.5 -113.5t-94 -119.5t-69 -130.5t-26.5 -137q0 -63 37 -98.5t90 -35.5 q81 0 144 61.5t63 158.5q0 44 -11.5 78t-23.5 53.5t-12 27.5q0 21 35 21q53 0 113 -29t104.5 -83t44.5 -116q0 -85 -61.5 -153.5t-165 -106t-226.5 -37.5q-203 0 -315.5 83.5t-112.5 238.5zM606 1001q0 60 47 116.5t113 56.5q49 0 77.5 -29.5t28.5 -79.5q0 -58 -49 -113 t-110 -55q-47 0 -77 28t-30 76z" />
<glyph unicode="&#xc0;" horiz-adv-x="1998" d="M0 518q0 204 141.5 340.5t368.5 136.5q220 0 549 -131q81 133 142.5 224t126 171t120.5 126t116.5 72t123.5 26q38 0 76.5 -13.5t56.5 -25t30 -21.5q73 45 166 45q62 0 62 -28q0 -11 -49 -68q-44 -56 -137 -280.5t-158 -446.5h24q44 0 101 25.5t63 25.5q7 0 13 -6.5 t6 -17.5q0 -36 -82.5 -113t-169.5 -94q-27 -135 -27 -213q0 -67 33.5 -101t83.5 -34q31 0 65 18t60.5 44t48 52t33.5 44l12 18q16 29 41 29q17 0 30 -12t13 -29q0 -8 -4.5 -20.5t-9.5 -20.5l-5 -9q-6 -10 -17.5 -27t-48 -60.5t-75 -76.5t-96.5 -60t-115 -27 q-119 0 -205 79.5t-86 202.5q0 117 31 260q-47 23 -140.5 76t-133.5 74q-21 -37 -59 -106q-56 -100 -83 -147.5t-74.5 -124t-78.5 -112t-78.5 -83t-90 -68t-98.5 -36t-118 -15.5q-89 0 -179.5 45t-160.5 117.5t-114 172.5t-44 203zM193 438q0 -110 75 -181t183 -71 q36 0 69 8t66.5 28.5t61 42t62.5 64t62 78t68.5 100t72 114t82.5 135.5q-175 69 -331 69q-218 0 -344.5 -105.5t-126.5 -281.5zM1243 786q168 -68 252 -94q98 328 268 641l15 25q-24 8 -45 8q-44 0 -86 -22.5t-82 -61.5t-92.5 -116t-102 -160t-127.5 -220zM1569 1776 q0 33 40.5 84t65.5 51q33 0 49 -41q28 -71 84.5 -146.5t102.5 -103.5q33 -17 33 -39q0 -13 -9.5 -22t-27.5 -9q-47 0 -136.5 43t-152.5 97q-30 26 -39.5 43t-9.5 43z" />
<glyph unicode="&#xc1;" horiz-adv-x="1998" d="M0 518q0 204 141.5 340.5t368.5 136.5q220 0 549 -131q81 133 142.5 224t126 171t120.5 126t116.5 72t123.5 26q38 0 76.5 -13.5t56.5 -25t30 -21.5q73 45 166 45q62 0 62 -28q0 -11 -49 -68q-44 -56 -137 -280.5t-158 -446.5h24q44 0 101 25.5t63 25.5q7 0 13 -6.5 t6 -17.5q0 -36 -82.5 -113t-169.5 -94q-27 -135 -27 -213q0 -67 33.5 -101t83.5 -34q31 0 65 18t60.5 44t48 52t33.5 44l12 18q16 29 41 29q17 0 30 -12t13 -29q0 -8 -4.5 -20.5t-9.5 -20.5l-5 -9q-6 -10 -17.5 -27t-48 -60.5t-75 -76.5t-96.5 -60t-115 -27 q-119 0 -205 79.5t-86 202.5q0 117 31 260q-47 23 -140.5 76t-133.5 74q-21 -37 -59 -106q-56 -100 -83 -147.5t-74.5 -124t-78.5 -112t-78.5 -83t-90 -68t-98.5 -36t-118 -15.5q-89 0 -179.5 45t-160.5 117.5t-114 172.5t-44 203zM193 438q0 -110 75 -181t183 -71 q36 0 69 8t66.5 28.5t61 42t62.5 64t62 78t68.5 100t72 114t82.5 135.5q-175 69 -331 69q-218 0 -344.5 -105.5t-126.5 -281.5zM1243 786q168 -68 252 -94q98 328 268 641l15 25q-24 8 -45 8q-44 0 -86 -22.5t-82 -61.5t-92.5 -116t-102 -160t-127.5 -220zM1763 1579 q0 22 33 39q97 59 199 221q14 23 23.5 32t25.5 9q25 0 64.5 -51t39.5 -84q0 -26 -9.5 -43t-39.5 -43q-59 -50 -150.5 -80.5t-148.5 -30.5q-17 0 -27 9t-10 22z" />
<glyph unicode="&#xc2;" horiz-adv-x="1998" d="M0 518q0 204 141.5 340.5t368.5 136.5q220 0 549 -131q81 133 142.5 224t126 171t120.5 126t116.5 72t123.5 26q38 0 76.5 -13.5t56.5 -25t30 -21.5q73 45 166 45q62 0 62 -28q0 -11 -49 -68q-44 -56 -137 -280.5t-158 -446.5h24q44 0 101 25.5t63 25.5q7 0 13 -6.5 t6 -17.5q0 -36 -82.5 -113t-169.5 -94q-27 -135 -27 -213q0 -67 33.5 -101t83.5 -34q31 0 65 18t60.5 44t48 52t33.5 44l12 18q16 29 41 29q17 0 30 -12t13 -29q0 -8 -4.5 -20.5t-9.5 -20.5l-5 -9q-6 -10 -17.5 -27t-48 -60.5t-75 -76.5t-96.5 -60t-115 -27 q-119 0 -205 79.5t-86 202.5q0 117 31 260q-47 23 -140.5 76t-133.5 74q-21 -37 -59 -106q-56 -100 -83 -147.5t-74.5 -124t-78.5 -112t-78.5 -83t-90 -68t-98.5 -36t-118 -15.5q-89 0 -179.5 45t-160.5 117.5t-114 172.5t-44 203zM193 438q0 -110 75 -181t183 -71 q36 0 69 8t66.5 28.5t61 42t62.5 64t62 78t68.5 100t72 114t82.5 135.5q-175 69 -331 69q-218 0 -344.5 -105.5t-126.5 -281.5zM1243 786q168 -68 252 -94q98 328 268 641l15 25q-24 8 -45 8q-44 0 -86 -22.5t-82 -61.5t-92.5 -116t-102 -160t-127.5 -220zM1522 1597 q0 30 32 50q115 77 201 170q3 4 12.5 15t12.5 15t11.5 12.5t14 11.5t14 7.5t18 6t20.5 1.5q21 0 34.5 -7t18.5 -14.5t14.5 -26.5t16.5 -30q60 -97 135 -159q22 -14 29.5 -23.5t7.5 -23.5q0 -13 -11.5 -26t-27.5 -13q-25 0 -89 27t-133 83q-13 13 -22 13q-7 0 -29 -13 q-73 -41 -148 -75.5t-95 -34.5q-15 0 -26 11t-11 23z" />
<glyph unicode="&#xc3;" horiz-adv-x="1998" d="M0 518q0 204 141.5 340.5t368.5 136.5q220 0 549 -131q81 133 142.5 224t126 171t120.5 126t116.5 72t123.5 26q38 0 76.5 -13.5t56.5 -25t30 -21.5q73 45 166 45q62 0 62 -28q0 -11 -49 -68q-44 -56 -137 -280.5t-158 -446.5h24q44 0 101 25.5t63 25.5q7 0 13 -6.5 t6 -17.5q0 -36 -82.5 -113t-169.5 -94q-27 -135 -27 -213q0 -67 33.5 -101t83.5 -34q31 0 65 18t60.5 44t48 52t33.5 44l12 18q16 29 41 29q17 0 30 -12t13 -29q0 -8 -4.5 -20.5t-9.5 -20.5l-5 -9q-6 -10 -17.5 -27t-48 -60.5t-75 -76.5t-96.5 -60t-115 -27 q-119 0 -205 79.5t-86 202.5q0 117 31 260q-47 23 -140.5 76t-133.5 74q-21 -37 -59 -106q-56 -100 -83 -147.5t-74.5 -124t-78.5 -112t-78.5 -83t-90 -68t-98.5 -36t-118 -15.5q-89 0 -179.5 45t-160.5 117.5t-114 172.5t-44 203zM193 438q0 -110 75 -181t183 -71 q36 0 69 8t66.5 28.5t61 42t62.5 64t62 78t68.5 100t72 114t82.5 135.5q-175 69 -331 69q-218 0 -344.5 -105.5t-126.5 -281.5zM1243 786q168 -68 252 -94q98 328 268 641l15 25q-24 8 -45 8q-44 0 -86 -22.5t-82 -61.5t-92.5 -116t-102 -160t-127.5 -220zM1481 1606 q0 16 22 47q33 46 85.5 86.5t101.5 40.5q50 0 170.5 -39t171.5 -39q38 0 86.5 23.5t54.5 23.5q27 0 27 -20q0 -17 -13 -39q-100 -144 -196 -144q-49 0 -180 37t-179 37q-29 0 -74 -20.5t-51 -20.5q-10 0 -18 8t-8 19z" />
<glyph unicode="&#xc4;" horiz-adv-x="1998" d="M0 518q0 204 141.5 340.5t368.5 136.5q220 0 549 -131q81 133 142.5 224t126 171t120.5 126t116.5 72t123.5 26q38 0 76.5 -13.5t56.5 -25t30 -21.5q73 45 166 45q62 0 62 -28q0 -11 -49 -68q-44 -56 -137 -280.5t-158 -446.5h24q44 0 101 25.5t63 25.5q7 0 13 -6.5 t6 -17.5q0 -36 -82.5 -113t-169.5 -94q-27 -135 -27 -213q0 -67 33.5 -101t83.5 -34q31 0 65 18t60.5 44t48 52t33.5 44l12 18q16 29 41 29q17 0 30 -12t13 -29q0 -8 -4.5 -20.5t-9.5 -20.5l-5 -9q-6 -10 -17.5 -27t-48 -60.5t-75 -76.5t-96.5 -60t-115 -27 q-119 0 -205 79.5t-86 202.5q0 117 31 260q-47 23 -140.5 76t-133.5 74q-21 -37 -59 -106q-56 -100 -83 -147.5t-74.5 -124t-78.5 -112t-78.5 -83t-90 -68t-98.5 -36t-118 -15.5q-89 0 -179.5 45t-160.5 117.5t-114 172.5t-44 203zM193 438q0 -110 75 -181t183 -71 q36 0 69 8t66.5 28.5t61 42t62.5 64t62 78t68.5 100t72 114t82.5 135.5q-175 69 -331 69q-218 0 -344.5 -105.5t-126.5 -281.5zM1243 786q168 -68 252 -94q98 328 268 641l15 25q-24 8 -45 8q-44 0 -86 -22.5t-82 -61.5t-92.5 -116t-102 -160t-127.5 -220zM1612 1694 q0 55 42.5 106t98.5 51q38 0 62 -28t24 -70q0 -58 -42 -109t-103 -51q-35 0 -58.5 29t-23.5 72zM1909 1694q0 55 42.5 106t98.5 51q38 0 62 -28t24 -70q0 -58 -42 -109t-103 -51q-35 0 -58.5 29t-23.5 72z" />
<glyph unicode="&#xc5;" horiz-adv-x="1998" d="M0 518q0 204 141.5 340.5t368.5 136.5q220 0 549 -131q81 133 142.5 224t126 171t120.5 126t116.5 72t123.5 26q38 0 76.5 -13.5t56.5 -25t30 -21.5q73 45 166 45q62 0 62 -28q0 -11 -49 -68q-44 -56 -137 -280.5t-158 -446.5h24q44 0 101 25.5t63 25.5q7 0 13 -6.5 t6 -17.5q0 -36 -82.5 -113t-169.5 -94q-27 -135 -27 -213q0 -67 33.5 -101t83.5 -34q31 0 65 18t60.5 44t48 52t33.5 44l12 18q16 29 41 29q17 0 30 -12t13 -29q0 -8 -4.5 -20.5t-9.5 -20.5l-5 -9q-6 -10 -17.5 -27t-48 -60.5t-75 -76.5t-96.5 -60t-115 -27 q-119 0 -205 79.5t-86 202.5q0 117 31 260q-47 23 -140.5 76t-133.5 74q-21 -37 -59 -106q-56 -100 -83 -147.5t-74.5 -124t-78.5 -112t-78.5 -83t-90 -68t-98.5 -36t-118 -15.5q-89 0 -179.5 45t-160.5 117.5t-114 172.5t-44 203zM193 438q0 -110 75 -181t183 -71 q36 0 69 8t66.5 28.5t61 42t62.5 64t62 78t68.5 100t72 114t82.5 135.5q-175 69 -331 69q-218 0 -344.5 -105.5t-126.5 -281.5zM1243 786q168 -68 252 -94q98 328 268 641l15 25q-24 8 -45 8q-44 0 -86 -22.5t-82 -61.5t-92.5 -116t-102 -160t-127.5 -220zM1653 1778 q0 89 62 151t151 62t151 -62t62 -151t-62 -151t-151 -62t-151 62t-62 151zM1776 1778q0 -37 26.5 -63.5t63.5 -26.5q36 0 61 26.5t25 63.5t-24.5 61.5t-61.5 24.5t-63.5 -25t-26.5 -61z" />
<glyph unicode="&#xc6;" horiz-adv-x="2357" d="M0 518q0 204 141.5 340.5t368.5 136.5q220 0 549 -131q81 133 142.5 224t126 171t120.5 126t116.5 72t123.5 26q38 0 92 -26.5t83.5 -47.5t45.5 -35q146 109 383 109q111 0 187.5 -51.5t76.5 -131.5q0 -50 -47.5 -106t-99.5 -89.5t-74 -33.5q-17 0 -26 7.5t-9 17.5 q0 11 14 34t31 47.5t31 64.5t14 81q0 32 -30 52t-74 20q-54 0 -110.5 -29t-102.5 -77.5t-75.5 -119t-29.5 -147.5q0 -44 12 -86.5t24 -63.5l13 -20q58 12 142 12q120 0 120 -71q0 -34 -37.5 -64.5t-93.5 -30.5q-44 0 -85.5 10t-60.5 20l-20 9q-6 -3 -15.5 -9t-37.5 -26 t-53.5 -43t-56.5 -60.5t-53.5 -77.5t-38 -94t-15.5 -110q0 -127 68.5 -190.5t199.5 -63.5q100 0 204 70t173 160q18 29 43 29q19 0 31 -12t12 -29q0 -8 -5.5 -20.5t-11.5 -20.5l-5 -9q-34 -47 -79 -91.5t-109.5 -92t-149 -77t-172.5 -29.5q-70 0 -137.5 13t-131 41.5 t-111 70.5t-76 105.5t-28.5 139.5q0 40 11 97q2 22 9 62t9 50q-45 22 -138.5 75t-139.5 77q-21 -37 -59 -106q-56 -100 -83 -147.5t-74.5 -124t-78.5 -112t-78.5 -83t-90 -68t-98.5 -36t-118 -15.5q-89 0 -179.5 45t-160.5 117.5t-114 172.5t-44 203zM193 438 q0 -110 75 -181t183 -71q36 0 69 8t66.5 28.5t61 42t62.5 64t62 78t68.5 100t72 114t82.5 135.5q-175 69 -331 69q-218 0 -344.5 -105.5t-126.5 -281.5zM1243 786q181 -72 254 -96q95 328 266 643l15 25q-24 8 -45 8q-44 0 -86 -22.5t-82 -61.5t-92.5 -116t-102 -160 t-127.5 -220zM1774 774q20 9 40 17t31.5 12.5t12.5 5.5q-1 0 -9 4t-22 14t-27 21z" />
<glyph unicode="&#xc7;" horiz-adv-x="1349" d="M0 995q0 65 34 129t86.5 112t112.5 85t114 56.5t89 19.5t35 -23q0 -8 -4 -14t-18 -17t-17 -14q-25 -19 -39.5 -30.5t-40.5 -40t-41 -55.5t-27 -70t-12 -91q0 -173 164 -241q77 182 209 339.5t282.5 250t280.5 92.5q59 0 115 -28.5t94 -71.5t61 -93t23 -94 q0 -65 -36.5 -139.5t-109.5 -147.5t-170.5 -133t-231 -98t-279.5 -41q-25 -109 -25 -207q0 -191 77 -279t228 -88q106 0 215.5 65.5t180.5 164.5q16 29 41 29q19 0 31 -12t12 -29q0 -8 -5 -20.5t-9 -20.5l-5 -9q-72 -109 -194 -190.5t-275 -97.5q0 -82 39 -82q18 0 56.5 4 t52.5 4q30 0 45.5 -20t15.5 -54t-13.5 -72.5t-42.5 -77t-69.5 -69.5t-99.5 -50.5t-127 -19.5q-67 0 -111.5 27.5t-44.5 71.5q0 35 24.5 62.5t55.5 27.5q25 0 42 -16.5t38.5 -33t58.5 -16.5q61 0 121 42t60 65q0 10 -11 10q-34 0 -96 -15.5t-84 -15.5q-24 0 -39.5 17.5 t-15.5 36.5q0 59 26 176q-91 8 -173 41.5t-149.5 92t-107 151t-39.5 206.5q0 105 33 230q-179 43 -285 135.5t-106 193.5zM711 760q107 3 205 38t168 89t122.5 120t78.5 133t26 126q0 34 -21.5 55.5t-58.5 21.5q-87 0 -188.5 -80.5t-189.5 -214.5t-142 -288z" />
<glyph unicode="&#xc8;" horiz-adv-x="974" d="M20 1188q0 62 50 129.5t108 107t90 39.5q8 0 13.5 -5.5t5.5 -12.5q0 -3 -18.5 -36t-18.5 -62q0 -98 108 -166q65 127 227 214t324 87q111 0 188 -51.5t77 -131.5q0 -107 -163 -191.5t-425 -102.5q2 -41 14 -79.5t24 -56.5l11 -18q57 12 141 12q121 0 121 -71 q0 -34 -37.5 -64.5t-93.5 -30.5q-44 0 -85.5 10t-60.5 20l-20 9q-6 -3 -15.5 -9t-37.5 -26t-53.5 -43t-56.5 -60.5t-53.5 -77.5t-38 -94t-15.5 -110q0 -127 68.5 -190.5t199.5 -63.5q108 0 207.5 61.5t169.5 168.5q16 29 41 29q19 0 31 -12t12 -29q0 -8 -4.5 -20t-8.5 -20 l-4 -8q-75 -123 -207.5 -207.5t-306.5 -84.5q-89 0 -172 21.5t-154 64t-114 116t-43 168.5q0 69 21 132.5t55.5 110.5t77 88t86 69t82.5 49t66.5 32.5t37.5 15.5q3 1 4 1q-4 1 -15.5 7.5t-31.5 23t-39 37.5t-36 55.5t-23 73.5q-153 13 -231.5 60t-78.5 122zM598 1122 q176 0 293 56.5t117 144.5q0 32 -30.5 52t-74.5 20q-95 0 -184 -78t-121 -195zM715 1792q0 33 40.5 84t65.5 51q33 0 49 -41q28 -71 84.5 -146.5t102.5 -103.5q33 -17 33 -39q0 -13 -9.5 -21.5t-27.5 -8.5q-47 0 -136.5 42.5t-152.5 96.5q-30 26 -39.5 43t-9.5 43z" />
<glyph unicode="&#xc9;" horiz-adv-x="974" d="M20 1188q0 62 50 129.5t108 107t90 39.5q8 0 13.5 -5.5t5.5 -12.5q0 -3 -18.5 -36t-18.5 -62q0 -98 108 -166q65 127 227 214t324 87q111 0 188 -51.5t77 -131.5q0 -107 -163 -191.5t-425 -102.5q2 -41 14 -79.5t24 -56.5l11 -18q57 12 141 12q121 0 121 -71 q0 -34 -37.5 -64.5t-93.5 -30.5q-44 0 -85.5 10t-60.5 20l-20 9q-6 -3 -15.5 -9t-37.5 -26t-53.5 -43t-56.5 -60.5t-53.5 -77.5t-38 -94t-15.5 -110q0 -127 68.5 -190.5t199.5 -63.5q108 0 207.5 61.5t169.5 168.5q16 29 41 29q19 0 31 -12t12 -29q0 -8 -4.5 -20t-8.5 -20 l-4 -8q-75 -123 -207.5 -207.5t-306.5 -84.5q-89 0 -172 21.5t-154 64t-114 116t-43 168.5q0 69 21 132.5t55.5 110.5t77 88t86 69t82.5 49t66.5 32.5t37.5 15.5q3 1 4 1q-4 1 -15.5 7.5t-31.5 23t-39 37.5t-36 55.5t-23 73.5q-153 13 -231.5 60t-78.5 122zM598 1122 q176 0 293 56.5t117 144.5q0 32 -30.5 52t-74.5 20q-95 0 -184 -78t-121 -195zM745 1597q0 22 33 39q45 27 98 86.5t101 135.5q13 22 23 31t26 9q25 0 64.5 -51t39.5 -84q0 -26 -9.5 -43t-39.5 -43q-59 -50 -150.5 -80t-148.5 -30q-17 0 -27 9t-10 21z" />
<glyph unicode="&#xca;" horiz-adv-x="974" d="M20 1188q0 62 50 129.5t108 107t90 39.5q8 0 13.5 -5.5t5.5 -12.5q0 -3 -18.5 -36t-18.5 -62q0 -98 108 -166q65 127 227 214t324 87q111 0 188 -51.5t77 -131.5q0 -107 -163 -191.5t-425 -102.5q2 -41 14 -79.5t24 -56.5l11 -18q57 12 141 12q121 0 121 -71 q0 -34 -37.5 -64.5t-93.5 -30.5q-44 0 -85.5 10t-60.5 20l-20 9q-6 -3 -15.5 -9t-37.5 -26t-53.5 -43t-56.5 -60.5t-53.5 -77.5t-38 -94t-15.5 -110q0 -127 68.5 -190.5t199.5 -63.5q108 0 207.5 61.5t169.5 168.5q16 29 41 29q19 0 31 -12t12 -29q0 -8 -4.5 -20t-8.5 -20 l-4 -8q-75 -123 -207.5 -207.5t-306.5 -84.5q-89 0 -172 21.5t-154 64t-114 116t-43 168.5q0 69 21 132.5t55.5 110.5t77 88t86 69t82.5 49t66.5 32.5t37.5 15.5q3 1 4 1q-4 1 -15.5 7.5t-31.5 23t-39 37.5t-36 55.5t-23 73.5q-153 13 -231.5 60t-78.5 122zM598 1122 q176 0 293 56.5t117 144.5q0 32 -30.5 52t-74.5 20q-95 0 -184 -78t-121 -195zM602 1571q0 28 33 49q115 77 201 170q4 4 14.5 17.5t14.5 18t13.5 13t17 12t18.5 6.5t24 3q21 0 34.5 -7t18.5 -14.5t14.5 -26.5t16.5 -30q61 -99 135 -160q22 -14 29.5 -23.5t7.5 -23.5 q0 -13 -11.5 -26t-27.5 -13q-24 0 -88 27.5t-133 83.5q-12 12 -23 12q-8 0 -28 -12q-74 -42 -149 -76.5t-95 -34.5q-15 0 -26 11t-11 24z" />
<glyph unicode="&#xcb;" horiz-adv-x="974" d="M20 1188q0 62 50 129.5t108 107t90 39.5q8 0 13.5 -5.5t5.5 -12.5q0 -3 -18.5 -36t-18.5 -62q0 -98 108 -166q65 127 227 214t324 87q111 0 188 -51.5t77 -131.5q0 -107 -163 -191.5t-425 -102.5q2 -41 14 -79.5t24 -56.5l11 -18q57 12 141 12q121 0 121 -71 q0 -34 -37.5 -64.5t-93.5 -30.5q-44 0 -85.5 10t-60.5 20l-20 9q-6 -3 -15.5 -9t-37.5 -26t-53.5 -43t-56.5 -60.5t-53.5 -77.5t-38 -94t-15.5 -110q0 -127 68.5 -190.5t199.5 -63.5q108 0 207.5 61.5t169.5 168.5q16 29 41 29q19 0 31 -12t12 -29q0 -8 -4.5 -20t-8.5 -20 l-4 -8q-75 -123 -207.5 -207.5t-306.5 -84.5q-89 0 -172 21.5t-154 64t-114 116t-43 168.5q0 69 21 132.5t55.5 110.5t77 88t86 69t82.5 49t66.5 32.5t37.5 15.5q3 1 4 1q-4 1 -15.5 7.5t-31.5 23t-39 37.5t-36 55.5t-23 73.5q-153 13 -231.5 60t-78.5 122zM598 1122 q176 0 293 56.5t117 144.5q0 32 -30.5 52t-74.5 20q-95 0 -184 -78t-121 -195zM680 1659q0 56 42.5 107t98.5 51q38 0 62 -28.5t24 -70.5q0 -58 -42 -108.5t-103 -50.5q-35 0 -58.5 28.5t-23.5 71.5zM977 1659q0 56 42.5 107t98.5 51q38 0 62 -28.5t24 -70.5 q0 -58 -42 -108.5t-103 -50.5q-35 0 -58.5 28.5t-23.5 71.5z" />
<glyph unicode="&#xcc;" horiz-adv-x="1099" d="M16 328q0 -38 18.5 -84t55.5 -92.5t85 -85t113 -62.5t134 -24q127 0 230 55t176 157.5t121.5 236.5t76.5 304q49 295 70.5 397t46.5 127q51 10 94 49.5t43 92.5q0 38 -26 61t-62 23q-114 0 -193 -109q-69 -14 -136 -31t-145 -43.5t-145.5 -57t-131 -72t-109 -88 t-72.5 -106t-27 -124.5q0 -67 33 -128.5t80.5 -101t98 -62.5t87.5 -23q19 0 30 7.5t11 18.5q0 5 -1.5 9t-5.5 8.5t-7 7t-9.5 7.5t-8.5 7q-72 58 -72 150q0 78 27 147.5t70 118t95.5 89.5t104.5 66.5t95 43.5t70 25l27 7q-71 -164 -157 -489q-149 -567 -477 -567 q-82 0 -144 46.5t-100 104.5q0 1 -5.5 8t-7.5 9t-8 5t-12 3q-31 0 -31 -41zM944 1800q0 33 41 84t66 51q33 0 49 -41q28 -71 84 -146t102 -103q33 -17 33 -39q0 -13 -9.5 -22t-27.5 -9q-47 0 -136.5 42.5t-152.5 96.5q-30 26 -39.5 43t-9.5 43z" />
<glyph unicode="&#xcd;" horiz-adv-x="1099" d="M16 328q0 -38 18.5 -84t55.5 -92.5t85 -85t113 -62.5t134 -24q127 0 230 55t176 157.5t121.5 236.5t76.5 304q49 295 70.5 397t46.5 127q51 10 94 49.5t43 92.5q0 38 -26 61t-62 23q-114 0 -193 -109q-69 -14 -136 -31t-145 -43.5t-145.5 -57t-131 -72t-109 -88 t-72.5 -106t-27 -124.5q0 -67 33 -128.5t80.5 -101t98 -62.5t87.5 -23q19 0 30 7.5t11 18.5q0 5 -1.5 9t-5.5 8.5t-7 7t-9.5 7.5t-8.5 7q-72 58 -72 150q0 78 27 147.5t70 118t95.5 89.5t104.5 66.5t95 43.5t70 25l27 7q-71 -164 -157 -489q-149 -567 -477 -567 q-82 0 -144 46.5t-100 104.5q0 1 -5.5 8t-7.5 9t-8 5t-12 3q-31 0 -31 -41zM893 1561q0 12 6.5 20t26.5 18q94 57 198 222q13 22 23.5 31.5t26.5 9.5q25 0 64.5 -51.5t39.5 -84.5q0 -26 -9.5 -43t-39.5 -43q-59 -50 -150.5 -80t-148.5 -30q-17 0 -27 9t-10 22z" />
<glyph unicode="&#xce;" horiz-adv-x="1099" d="M16 328q0 -38 18.5 -84t55.5 -92.5t85 -85t113 -62.5t134 -24q127 0 230 55t176 157.5t121.5 236.5t76.5 304q49 295 70.5 397t46.5 127q51 10 94 49.5t43 92.5q0 38 -26 61t-62 23q-114 0 -193 -109q-69 -14 -136 -31t-145 -43.5t-145.5 -57t-131 -72t-109 -88 t-72.5 -106t-27 -124.5q0 -67 33 -128.5t80.5 -101t98 -62.5t87.5 -23q19 0 30 7.5t11 18.5q0 5 -1.5 9t-5.5 8.5t-7 7t-9.5 7.5t-8.5 7q-72 58 -72 150q0 78 27 147.5t70 118t95.5 89.5t104.5 66.5t95 43.5t70 25l27 7q-71 -164 -157 -489q-149 -567 -477 -567 q-82 0 -144 46.5t-100 104.5q0 1 -5.5 8t-7.5 9t-8 5t-12 3q-31 0 -31 -41zM872 1563q0 28 33 49q115 77 201 170q3 4 14 17.5t14.5 17.5t13.5 13t17 12t18.5 6t24.5 3q21 0 34.5 -6.5t18.5 -14t14.5 -26.5t16.5 -30q61 -99 135 -160q22 -14 29.5 -23.5t7.5 -23.5 q0 -13 -11.5 -26t-27.5 -13q-25 0 -88.5 27t-132.5 83q-13 13 -22 13q-7 0 -29 -13q-73 -41 -148.5 -75.5t-95.5 -34.5q-15 0 -26 11t-11 24z" />
<glyph unicode="&#xcf;" horiz-adv-x="1099" d="M16 328q0 -38 18.5 -84t55.5 -92.5t85 -85t113 -62.5t134 -24q127 0 230 55t176 157.5t121.5 236.5t76.5 304q49 295 70.5 397t46.5 127q51 10 94 49.5t43 92.5q0 38 -26 61t-62 23q-114 0 -193 -109q-69 -14 -136 -31t-145 -43.5t-145.5 -57t-131 -72t-109 -88 t-72.5 -106t-27 -124.5q0 -67 33 -128.5t80.5 -101t98 -62.5t87.5 -23q19 0 30 7.5t11 18.5q0 5 -1.5 9t-5.5 8.5t-7 7t-9.5 7.5t-8.5 7q-72 58 -72 150q0 78 27 147.5t70 118t95.5 89.5t104.5 66.5t95 43.5t70 25l27 7q-71 -164 -157 -489q-149 -567 -477 -567 q-82 0 -144 46.5t-100 104.5q0 1 -5.5 8t-7.5 9t-8 5t-12 3q-31 0 -31 -41zM938 1663q0 56 42.5 107t98.5 51q38 0 62 -28.5t24 -70.5q0 -58 -42 -108.5t-103 -50.5q-35 0 -58.5 28.5t-23.5 71.5zM1235 1663q0 56 42.5 107t98.5 51q38 0 62 -28.5t24 -70.5q0 -58 -42 -108.5 t-103 -50.5q-35 0 -58.5 28.5t-23.5 71.5z" />
<glyph unicode="&#xd0;" horiz-adv-x="1900" d="M0 213q0 107 82 174.5t180 67.5q82 0 163 -28t181 -79q12 19 27 53l20 48h-14q-48 0 -97.5 52t-76.5 107.5t-27 79.5q0 12 9 20.5t18 8.5t50.5 -24.5t82.5 -24.5q98 0 137 4q8 22 27 75.5t28.5 78.5t26.5 72.5t27.5 72.5t25.5 62.5t25.5 58.5t23 44.5t23 36.5t19.5 19 q66 44 134.5 64t114.5 20q33 0 33 -29q0 -6 -18 -29.5t-48 -67.5t-51 -91q-7 -15 -25 -66.5t-49.5 -138.5t-58.5 -160h4q49 0 111.5 -67t62.5 -99q0 -11 -11 -21.5t-19 -10.5q-1 0 -48 20.5t-87 20.5q-34 0 -74 -7q-42 -102 -82 -190q-10 -22 -53 -96q168 -86 288 -86 q107 0 202.5 62t160 163t102 229t37.5 260q0 124 -40.5 221.5t-109.5 155.5t-154 87.5t-181 29.5q-594 0 -594 -360q0 -43 15.5 -78.5t34.5 -54t34.5 -34.5t15.5 -24q0 -39 -43 -39q-33 0 -75.5 11.5t-86 35t-80 54.5t-60 74t-23.5 89q0 110 73 197t197 139.5t276 79.5 t320 27q97 0 197 -24t199.5 -77.5t176 -130t124.5 -192t48 -252.5q0 -154 -50 -303.5t-135.5 -265.5t-210 -187t-263.5 -71q-120 0 -237 39t-253 108q-150 -147 -374 -147q-132 0 -230 65t-98 168zM168 197q0 -41 35.5 -67t85.5 -26q135 0 235 117q-159 78 -248 78 q-46 0 -77 -30t-31 -72z" />
<glyph unicode="&#xd1;" horiz-adv-x="1751" d="M0 334q0 -52 40 -114t104 -115t153.5 -89t179.5 -36q54 0 105.5 22.5t94 58t85.5 93.5t76 113t68.5 134t59 139t52 145.5t44 136t38.5 126.5q0 -147 8 -398t18 -339q10 -91 56 -161t92 -70q31 0 98 51t94 110q22 47 64 165.5t83.5 238.5t101.5 258t119.5 242.5 t136.5 174.5t153 70q16 0 26.5 10.5t10.5 28.5q0 41 -78 88t-162 47q-53 0 -114.5 -77.5t-114.5 -190.5t-109 -260t-94 -266.5t-72.5 -231t-42.5 -133.5q-13 89 -21.5 206t-12 204t-7.5 223t-6 195q-3 68 -29.5 127.5t-66 99t-87.5 68.5t-94.5 42t-86.5 13 q-111 0 -234 -38.5t-224.5 -101t-168 -151t-66.5 -180.5q0 -57 35 -112t86.5 -91.5t107 -59t97.5 -22.5q43 0 43 41q0 8 -16 27t-35 40.5t-35 60t-16 81.5q0 71 43 143.5t104 123.5t127 83.5t113 32.5q54 0 80 -26t26 -66q0 -94 -69.5 -282.5t-166.5 -375t-213 -327 t-198 -140.5q-60 0 -101.5 42.5t-41.5 107.5q0 127 129 233q24 21 32.5 32.5t8.5 27.5q0 12 -14.5 21t-37.5 9q-46 0 -106.5 -21.5t-117 -57.5t-95.5 -90.5t-39 -112.5zM1159 1581q0 15 23 47q33 46 85 86.5t101 40.5q50 0 170.5 -39t171.5 -39q38 0 86.5 23.5t54.5 23.5 q27 0 27 -20q0 -19 -12 -39q-99 -143 -197 -143q-49 0 -179.5 36.5t-178.5 36.5q-29 0 -74 -20.5t-51 -20.5q-10 0 -18.5 8t-8.5 19z" />
<glyph unicode="&#xd2;" horiz-adv-x="1181" d="M2 455q0 196 72 387.5t183.5 330.5t251 224.5t271.5 85.5q198 0 332.5 -131.5t134.5 -329.5q0 -115 -28 -238t-78 -238t-124 -218.5t-161 -180.5t-194 -122t-218 -45q-88 0 -168.5 36t-141 98t-96.5 151t-36 190zM250 502q0 -180 72 -288t167 -108q100 0 194.5 103.5 t159.5 263t104.5 350.5t39.5 365q0 84 -43 133t-106 49q-122 0 -221 -116.5t-99 -276.5q0 -90 44.5 -147.5t101.5 -57.5q17 0 31 4t18 4q24 0 24 -24q0 -15 -16.5 -33t-58.5 -34.5t-99 -16.5q-87 0 -161 84.5t-74 206.5q-3 -6 -8.5 -18.5t-19 -56.5t-23.5 -93t-18.5 -128.5 t-8.5 -164.5zM733 1774q0 33 41 84t66 51q33 0 49 -41q28 -71 84 -146.5t102 -103.5q33 -17 33 -39q0 -13 -9.5 -22t-27.5 -9q-47 0 -136.5 43t-152.5 97q-30 26 -39.5 43t-9.5 43z" />
<glyph unicode="&#xd3;" horiz-adv-x="1181" d="M2 455q0 196 72 387.5t183.5 330.5t251 224.5t271.5 85.5q198 0 332.5 -131.5t134.5 -329.5q0 -115 -28 -238t-78 -238t-124 -218.5t-161 -180.5t-194 -122t-218 -45q-88 0 -168.5 36t-141 98t-96.5 151t-36 190zM250 502q0 -180 72 -288t167 -108q100 0 194.5 103.5 t159.5 263t104.5 350.5t39.5 365q0 84 -43 133t-106 49q-122 0 -221 -116.5t-99 -276.5q0 -90 44.5 -147.5t101.5 -57.5q17 0 31 4t18 4q24 0 24 -24q0 -15 -16.5 -33t-58.5 -34.5t-99 -16.5q-87 0 -161 84.5t-74 206.5q-3 -6 -8.5 -18.5t-19 -56.5t-23.5 -93t-18.5 -128.5 t-8.5 -164.5zM686 1610q0 22 33 39q97 59 199 221q14 23 23.5 32t25.5 9q25 0 64.5 -51t39.5 -84q0 -26 -9.5 -43t-39.5 -43q-59 -50 -150.5 -80.5t-148.5 -30.5q-17 0 -27 9t-10 22z" />
<glyph unicode="&#xd4;" horiz-adv-x="1181" d="M2 455q0 196 72 387.5t183.5 330.5t251 224.5t271.5 85.5q198 0 332.5 -131.5t134.5 -329.5q0 -115 -28 -238t-78 -238t-124 -218.5t-161 -180.5t-194 -122t-218 -45q-88 0 -168.5 36t-141 98t-96.5 151t-36 190zM250 502q0 -180 72 -288t167 -108q100 0 194.5 103.5 t159.5 263t104.5 350.5t39.5 365q0 84 -43 133t-106 49q-122 0 -221 -116.5t-99 -276.5q0 -90 44.5 -147.5t101.5 -57.5q17 0 31 4t18 4q24 0 24 -24q0 -15 -16.5 -33t-58.5 -34.5t-99 -16.5q-87 0 -161 84.5t-74 206.5q-3 -6 -8.5 -18.5t-19 -56.5t-23.5 -93t-18.5 -128.5 t-8.5 -164.5zM530 1597q0 29 33 50q115 77 201 170q3 4 14 17.5t14.5 17.5t13.5 13t17 12t18.5 6t24.5 3q21 0 34.5 -7t18.5 -14.5t14.5 -26.5t16.5 -30q60 -97 135 -159q22 -14 29.5 -23.5t7.5 -23.5q0 -13 -11.5 -26t-27.5 -13q-25 0 -88.5 27t-132.5 83q-13 13 -22 13 q-7 0 -29 -13q-73 -41 -148.5 -75.5t-95.5 -34.5q-15 0 -26 11t-11 23z" />
<glyph unicode="&#xd5;" horiz-adv-x="1181" d="M2 455q0 196 72 387.5t183.5 330.5t251 224.5t271.5 85.5q198 0 332.5 -131.5t134.5 -329.5q0 -115 -28 -238t-78 -238t-124 -218.5t-161 -180.5t-194 -122t-218 -45q-88 0 -168.5 36t-141 98t-96.5 151t-36 190zM250 502q0 -180 72 -288t167 -108q100 0 194.5 103.5 t159.5 263t104.5 350.5t39.5 365q0 84 -43 133t-106 49q-122 0 -221 -116.5t-99 -276.5q0 -90 44.5 -147.5t101.5 -57.5q17 0 31 4t18 4q24 0 24 -24q0 -15 -16.5 -33t-58.5 -34.5t-99 -16.5q-87 0 -161 84.5t-74 206.5q-3 -6 -8.5 -18.5t-19 -56.5t-23.5 -93t-18.5 -128.5 t-8.5 -164.5zM573 1616q0 15 23 47q33 46 85 86.5t101 40.5q50 0 170.5 -39t171.5 -39q38 0 87 23.5t55 23.5q26 0 26 -20q0 -19 -12 -39q-100 -144 -197 -144q-49 0 -179.5 37t-178.5 37q-29 0 -74 -20.5t-51 -20.5q-10 0 -18.5 8t-8.5 19z" />
<glyph unicode="&#xd6;" horiz-adv-x="1181" d="M2 455q0 196 72 387.5t183.5 330.5t251 224.5t271.5 85.5q198 0 332.5 -131.5t134.5 -329.5q0 -115 -28 -238t-78 -238t-124 -218.5t-161 -180.5t-194 -122t-218 -45q-88 0 -168.5 36t-141 98t-96.5 151t-36 190zM250 502q0 -180 72 -288t167 -108q100 0 194.5 103.5 t159.5 263t104.5 350.5t39.5 365q0 84 -43 133t-106 49q-122 0 -221 -116.5t-99 -276.5q0 -90 44.5 -147.5t101.5 -57.5q17 0 31 4t18 4q24 0 24 -24q0 -15 -16.5 -33t-58.5 -34.5t-99 -16.5q-87 0 -161 84.5t-74 206.5q-3 -6 -8.5 -18.5t-19 -56.5t-23.5 -93t-18.5 -128.5 t-8.5 -164.5zM592 1673q0 56 42.5 107t98.5 51q38 0 62 -28t24 -70q0 -58 -42 -109t-103 -51q-35 0 -58.5 28.5t-23.5 71.5zM889 1673q0 56 42.5 107t98.5 51q38 0 62 -28t24 -70q0 -58 -42 -109t-103 -51q-35 0 -58.5 28.5t-23.5 71.5z" />
<glyph unicode="&#xd7;" horiz-adv-x="782" d="M29 385q0 10 4 14l213 213l-211 211q-6 6 -6 17q0 17 14 41t31 41q16 16 39 28.5t39 12.5q9 0 14 -5l213 -213l211 211q7 7 18 7q37 0 78 -41q16 -16 30.5 -41t14.5 -41q0 -9 -4 -13l-215 -215l211 -211q6 -6 6 -18q0 -37 -41 -78q-16 -16 -41 -30.5t-41 -14.5 q-8 0 -12 4l-215 215l-211 -211q-6 -6 -16 -6q-17 0 -41 14t-41 31q-16 16 -28.5 39t-12.5 39z" />
<glyph unicode="&#xd8;" horiz-adv-x="1181" d="M2 455q0 196 72 387.5t183.5 330.5t251 224.5t271.5 85.5q22 0 58 -4l30 71q3 13 12 24t19 11q41 0 78 -15t37 -36t-8 -53l-19 -43q119 -55 189.5 -165.5t70.5 -250.5q0 -115 -28 -238t-78 -238t-124 -218.5t-161 -180.5t-194 -122t-218 -45q-32 0 -67 6l-23 -56 q-8 -32 -32 -32h-62q-16 0 -25 1.5t-17.5 10t-8.5 24.5q0 9 8 41l23 56q-108 61 -173 172t-65 252zM250 502q0 -172 67 -283l476 1147q-115 -13 -217 -89t-173 -193t-112 -269t-41 -313zM432 117q33 -11 57 -11q100 0 194.5 103.5t159.5 263t104.5 350.5t39.5 365 q0 87 -47 137z" />
<glyph unicode="&#xd9;" horiz-adv-x="1712" d="M-20 1012q0 91 72.5 180t182 151.5t238 101t240.5 38.5q126 0 206 -59t80 -156q0 -75 -38.5 -187t-93.5 -227t-110 -229t-93.5 -220.5t-38.5 -173.5q0 -88 90 -88q37 0 88.5 35.5t101.5 87t107.5 123t98.5 128t83 118.5q54 191 137.5 391.5t145.5 306.5q30 50 85.5 82.5 t102 42.5t88.5 10q59 0 59 -28q0 -17 -49 -74q-31 -38 -94 -171.5t-128.5 -299.5t-114 -348t-48.5 -295q0 -67 33 -101t82 -34q31 0 65 18t60.5 44t48 52t33.5 44l12 18q16 29 41 29q17 0 30 -12t13 -29q0 -8 -4.5 -20.5t-9.5 -20.5l-4 -9q-6 -10 -17.5 -27t-48 -60.5 t-75.5 -76.5t-97 -60t-115 -27q-73 0 -141 34.5t-113 100.5t-45 147q0 47 4 74q-34 -50 -69.5 -94t-86.5 -94t-102.5 -85.5t-115.5 -59t-127 -23.5q-114 0 -199.5 70t-85.5 165q0 73 41 185.5t99 229.5t116.5 233.5t99.5 226t41 178.5q0 43 -18 67.5t-70 24.5 q-38 0 -90 -20.5t-106.5 -57.5t-101.5 -83.5t-77 -105.5t-30 -116q0 -43 16 -81.5t35 -60t35 -40.5t16 -27q0 -41 -43 -41q-42 0 -98 22.5t-107 59t-86.5 91.5t-35.5 112zM1026 1708q0 33 41 84t66 51q33 0 49 -41q28 -71 84 -146.5t102 -103.5q33 -17 33 -39 q0 -13 -9.5 -21.5t-27.5 -8.5q-47 0 -136.5 42.5t-152.5 96.5q-30 26 -39.5 43t-9.5 43z" />
<glyph unicode="&#xda;" horiz-adv-x="1712" d="M-20 1012q0 91 72.5 180t182 151.5t238 101t240.5 38.5q126 0 206 -59t80 -156q0 -75 -38.5 -187t-93.5 -227t-110 -229t-93.5 -220.5t-38.5 -173.5q0 -88 90 -88q37 0 88.5 35.5t101.5 87t107.5 123t98.5 128t83 118.5q54 191 137.5 391.5t145.5 306.5q30 50 85.5 82.5 t102 42.5t88.5 10q59 0 59 -28q0 -17 -49 -74q-31 -38 -94 -171.5t-128.5 -299.5t-114 -348t-48.5 -295q0 -67 33 -101t82 -34q31 0 65 18t60.5 44t48 52t33.5 44l12 18q16 29 41 29q17 0 30 -12t13 -29q0 -8 -4.5 -20.5t-9.5 -20.5l-4 -9q-6 -10 -17.5 -27t-48 -60.5 t-75.5 -76.5t-97 -60t-115 -27q-73 0 -141 34.5t-113 100.5t-45 147q0 47 4 74q-34 -50 -69.5 -94t-86.5 -94t-102.5 -85.5t-115.5 -59t-127 -23.5q-114 0 -199.5 70t-85.5 165q0 73 41 185.5t99 229.5t116.5 233.5t99.5 226t41 178.5q0 43 -18 67.5t-70 24.5 q-38 0 -90 -20.5t-106.5 -57.5t-101.5 -83.5t-77 -105.5t-30 -116q0 -43 16 -81.5t35 -60t35 -40.5t16 -27q0 -41 -43 -41q-42 0 -98 22.5t-107 59t-86.5 91.5t-35.5 112zM1163 1501q0 22 33 39q97 59 199 221q14 23 23.5 32t25.5 9q25 0 64.5 -51t39.5 -84q0 -26 -9.5 -43 t-39.5 -43q-59 -50 -150.5 -80.5t-148.5 -30.5q-17 0 -27 9t-10 22z" />
<glyph unicode="&#xdb;" horiz-adv-x="1712" d="M-20 1012q0 91 72.5 180t182 151.5t238 101t240.5 38.5q126 0 206 -59t80 -156q0 -75 -38.5 -187t-93.5 -227t-110 -229t-93.5 -220.5t-38.5 -173.5q0 -88 90 -88q37 0 88.5 35.5t101.5 87t107.5 123t98.5 128t83 118.5q54 191 137.5 391.5t145.5 306.5q30 50 85.5 82.5 t102 42.5t88.5 10q59 0 59 -28q0 -17 -49 -74q-31 -38 -94 -171.5t-128.5 -299.5t-114 -348t-48.5 -295q0 -67 33 -101t82 -34q31 0 65 18t60.5 44t48 52t33.5 44l12 18q16 29 41 29q17 0 30 -12t13 -29q0 -8 -4.5 -20.5t-9.5 -20.5l-4 -9q-6 -10 -17.5 -27t-48 -60.5 t-75.5 -76.5t-97 -60t-115 -27q-73 0 -141 34.5t-113 100.5t-45 147q0 47 4 74q-34 -50 -69.5 -94t-86.5 -94t-102.5 -85.5t-115.5 -59t-127 -23.5q-114 0 -199.5 70t-85.5 165q0 73 41 185.5t99 229.5t116.5 233.5t99.5 226t41 178.5q0 43 -18 67.5t-70 24.5 q-38 0 -90 -20.5t-106.5 -57.5t-101.5 -83.5t-77 -105.5t-30 -116q0 -43 16 -81.5t35 -60t35 -40.5t16 -27q0 -41 -43 -41q-42 0 -98 22.5t-107 59t-86.5 91.5t-35.5 112zM983 1573q0 28 33 49q115 77 201 170q4 4 14.5 17.5t14.5 18t13.5 13t17 12t18.5 6.5t24 3 q21 0 34.5 -7t18.5 -14.5t14.5 -26.5t16.5 -30q61 -99 135 -160q22 -14 29.5 -23.5t7.5 -23.5q0 -13 -11.5 -26t-27.5 -13q-24 0 -88 27.5t-133 83.5q-12 12 -23 12q-8 0 -28 -12q-74 -42 -149 -76.5t-95 -34.5q-14 0 -25.5 11t-11.5 24z" />
<glyph unicode="&#xdc;" horiz-adv-x="1712" d="M-20 1012q0 91 72.5 180t182 151.5t238 101t240.5 38.5q126 0 206 -59t80 -156q0 -75 -38.5 -187t-93.5 -227t-110 -229t-93.5 -220.5t-38.5 -173.5q0 -88 90 -88q37 0 88.5 35.5t101.5 87t107.5 123t98.5 128t83 118.5q54 191 137.5 391.5t145.5 306.5q30 50 85.5 82.5 t102 42.5t88.5 10q59 0 59 -28q0 -17 -49 -74q-31 -38 -94 -171.5t-128.5 -299.5t-114 -348t-48.5 -295q0 -67 33 -101t82 -34q31 0 65 18t60.5 44t48 52t33.5 44l12 18q16 29 41 29q17 0 30 -12t13 -29q0 -8 -4.5 -20.5t-9.5 -20.5l-4 -9q-6 -10 -17.5 -27t-48 -60.5 t-75.5 -76.5t-97 -60t-115 -27q-73 0 -141 34.5t-113 100.5t-45 147q0 47 4 74q-34 -50 -69.5 -94t-86.5 -94t-102.5 -85.5t-115.5 -59t-127 -23.5q-114 0 -199.5 70t-85.5 165q0 73 41 185.5t99 229.5t116.5 233.5t99.5 226t41 178.5q0 43 -18 67.5t-70 24.5 q-38 0 -90 -20.5t-106.5 -57.5t-101.5 -83.5t-77 -105.5t-30 -116q0 -43 16 -81.5t35 -60t35 -40.5t16 -27q0 -41 -43 -41q-42 0 -98 22.5t-107 59t-86.5 91.5t-35.5 112zM1001 1606q0 55 43 106t99 51q38 0 62 -28t24 -70q0 -58 -42.5 -109t-103.5 -51q-35 0 -58.5 29 t-23.5 72zM1298 1606q0 55 43 106t99 51q38 0 62 -28t24 -70q0 -58 -42.5 -109t-103.5 -51q-35 0 -58.5 29t-23.5 72z" />
<glyph unicode="&#xdd;" horiz-adv-x="1583" d="M0 1012q0 121 116.5 232.5t281 175t315.5 63.5q125 0 212 -68t87 -166q0 -77 -27 -167.5t-65 -171t-76 -157t-65 -149t-27 -123.5q0 -50 25.5 -84.5t70.5 -34.5t100.5 33.5t108 88t92.5 103t74 97.5q87 271 135.5 383t138.5 266q29 51 79 83t93 42t84 10q59 0 59 -28 q0 -17 -49 -74q-44 -53 -131.5 -240.5t-144.5 -380.5q-24 -81 -65.5 -226.5t-72.5 -251t-59 -193.5q202 76 293 219q16 29 41 29q17 0 30 -12t13 -29q0 -8 -4.5 -20.5t-8.5 -20.5l-5 -9q-104 -173 -400 -276q-48 -129 -98.5 -222.5t-115.5 -168t-147.5 -111.5t-182.5 -37 q-102 0 -190.5 44t-137.5 110t-49 133q0 35 13 65.5t31.5 54t54 44.5t66.5 35.5t83.5 28.5t90 22.5t101 18t101.5 15t106 13.5q10 0 16 2q61 154 135 383q-219 -209 -403 -209q-107 0 -195 73t-88 167q0 68 31 157.5t75 178t88.5 177t75.5 179.5t31 160q0 43 -18 67.5 t-70 24.5q-38 0 -90 -20.5t-106.5 -57.5t-101.5 -83.5t-77 -105.5t-30 -116q0 -43 16 -81.5t35 -60t35 -40.5t16 -27q0 -41 -43 -41q-42 0 -95 22.5t-100 59t-79.5 91t-32.5 112.5zM530 -369q0 -40 31 -69t70 -29q84 0 157.5 84.5t149.5 257.5q-174 -33 -291 -101t-117 -143 zM1135 1403q0 13 6.5 21t25.5 18q97 59 199 221q14 23 23.5 32t25.5 9q25 0 65 -51t40 -84q0 -25 -10 -42.5t-40 -43.5q-59 -50 -150.5 -80.5t-148.5 -30.5q-17 0 -26.5 9t-9.5 22z" />
<glyph unicode="&#xdf;" horiz-adv-x="993" d="M-31 90q0 87 23.5 217.5t64.5 279.5t102.5 297.5t133 268.5t161.5 195t181 75q63 0 131.5 -34.5t117 -96t48.5 -129.5q0 -53 -25 -108t-62 -98.5t-81 -87t-81 -76t-62 -62t-25 -47.5q0 -20 22 -51.5t53 -70t62.5 -83t53.5 -104.5t22 -121q0 -16 -7.5 -44.5t-14.5 -49.5 l-7 -21q53 13 106 51.5t80 70.5l27 32q16 29 41 29q17 0 30 -12t13 -29q0 -8 -4.5 -20.5t-8.5 -20.5l-5 -9q-51 -82 -220.5 -168t-322.5 -86q-103 0 -162 39t-59 80q0 32 41.5 69.5t69.5 37.5q33 0 70.5 -16t59.5 -32l21 -16q25 39 25 86q0 64 -21.5 128.5t-47.5 108.5 t-47.5 97t-21.5 96q0 45 29.5 104t71.5 118t83.5 119t71 124.5t29.5 116.5q0 21 -15 36t-34 15q-71 0 -144 -97t-130 -247t-103 -322.5t-71 -333t-25 -268.5q0 -40 -37 -40q-73 0 -137 28.5t-64 81.5z" />
<glyph unicode="&#xe0;" horiz-adv-x="972" d="M-25 193q0 108 42.5 219t108.5 196t152 139t168 54q46 0 86.5 -10t64.5 -24t41.5 -28t24.5 -24l7 -10q55 0 100 -24t45 -73q0 -23 -29.5 -103t-59.5 -175.5t-30 -155.5q0 -25 16 -41t42 -16q31 0 65 18t60.5 44t48 52t33.5 44l12 18q16 29 41 29q17 0 30 -12t13 -29 q0 -8 -4.5 -20.5t-9.5 -20.5l-5 -9q-6 -10 -17.5 -27t-48 -60.5t-75 -76.5t-96.5 -60t-115 -27q-88 0 -146.5 45t-68.5 129q-5 -7 -15.5 -19t-42 -42t-64 -52.5t-79 -41.5t-90.5 -19q-85 0 -145 60.5t-60 152.5zM225 227q0 -92 60 -92q47 0 114 81t115.5 191.5t48.5 186.5 q0 42 -21 65t-53 23q-57 0 -120 -77.5t-103.5 -185t-40.5 -192.5zM352 1071q0 33 41 84t66 51q33 0 49 -41q28 -71 84 -146.5t102 -103.5q20 -10 26.5 -18t6.5 -20q0 -13 -9.5 -22t-27.5 -9q-47 0 -136.5 42.5t-152.5 96.5q-30 26 -39.5 43t-9.5 43z" />
<glyph unicode="&#xe1;" horiz-adv-x="972" d="M-25 193q0 108 42.5 219t108.5 196t152 139t168 54q46 0 86.5 -10t64.5 -24t41.5 -28t24.5 -24l7 -10q55 0 100 -24t45 -73q0 -23 -29.5 -103t-59.5 -175.5t-30 -155.5q0 -25 16 -41t42 -16q31 0 65 18t60.5 44t48 52t33.5 44l12 18q16 29 41 29q17 0 30 -12t13 -29 q0 -8 -4.5 -20.5t-9.5 -20.5l-5 -9q-6 -10 -17.5 -27t-48 -60.5t-75 -76.5t-96.5 -60t-115 -27q-88 0 -146.5 45t-68.5 129q-5 -7 -15.5 -19t-42 -42t-64 -52.5t-79 -41.5t-90.5 -19q-85 0 -145 60.5t-60 152.5zM225 227q0 -92 60 -92q47 0 114 81t115.5 191.5t48.5 186.5 q0 42 -21 65t-53 23q-57 0 -120 -77.5t-103.5 -185t-40.5 -192.5zM442 909q0 22 33 39q97 59 199 221q14 23 23.5 32t25.5 9q25 0 64.5 -51t39.5 -84q0 -26 -9.5 -43t-39.5 -43q-59 -50 -150.5 -80t-148.5 -30q-17 0 -27 9t-10 21z" />
<glyph unicode="&#xe2;" horiz-adv-x="972" d="M-25 193q0 108 42.5 219t108.5 196t152 139t168 54q46 0 86.5 -10t64.5 -24t41.5 -28t24.5 -24l7 -10q55 0 100 -24t45 -73q0 -23 -29.5 -103t-59.5 -175.5t-30 -155.5q0 -25 16 -41t42 -16q31 0 65 18t60.5 44t48 52t33.5 44l12 18q16 29 41 29q17 0 30 -12t13 -29 q0 -8 -4.5 -20.5t-9.5 -20.5l-5 -9q-6 -10 -17.5 -27t-48 -60.5t-75 -76.5t-96.5 -60t-115 -27q-88 0 -146.5 45t-68.5 129q-5 -7 -15.5 -19t-42 -42t-64 -52.5t-79 -41.5t-90.5 -19q-85 0 -145 60.5t-60 152.5zM225 227q0 -92 60 -92q47 0 114 81t115.5 191.5t48.5 186.5 q0 42 -21 65t-53 23q-57 0 -120 -77.5t-103.5 -185t-40.5 -192.5zM283 899q0 29 32 49q115 77 201 170q4 4 14.5 17.5t14.5 18t13.5 13t17 12t18.5 6.5t24 3q21 0 34.5 -7t18.5 -14.5t14.5 -26.5t16.5 -30q60 -97 136 -160q21 -14 28.5 -23.5t7.5 -23.5q0 -13 -11 -26 t-27 -13q-24 0 -88.5 27.5t-133.5 83.5q-12 12 -22 12q-9 0 -29 -12q-74 -42 -149 -76.5t-95 -34.5q-14 0 -25 11t-11 24z" />
<glyph unicode="&#xe3;" horiz-adv-x="972" d="M-25 193q0 108 42.5 219t108.5 196t152 139t168 54q46 0 86.5 -10t64.5 -24t41.5 -28t24.5 -24l7 -10q55 0 100 -24t45 -73q0 -23 -29.5 -103t-59.5 -175.5t-30 -155.5q0 -25 16 -41t42 -16q31 0 65 18t60.5 44t48 52t33.5 44l12 18q16 29 41 29q17 0 30 -12t13 -29 q0 -8 -4.5 -20.5t-9.5 -20.5l-5 -9q-6 -10 -17.5 -27t-48 -60.5t-75 -76.5t-96.5 -60t-115 -27q-88 0 -146.5 45t-68.5 129q-5 -7 -15.5 -19t-42 -42t-64 -52.5t-79 -41.5t-90.5 -19q-85 0 -145 60.5t-60 152.5zM219 915q0 16 23 48q33 46 85 86.5t101 40.5q50 0 170.5 -39 t171.5 -39q38 0 86.5 23.5t54.5 23.5q10 0 18.5 -5.5t8.5 -15.5q0 -19 -12 -39q-99 -143 -197 -143q-49 0 -179.5 37t-178.5 37q-29 0 -74 -20.5t-51 -20.5q-10 0 -18.5 7.5t-8.5 18.5zM225 227q0 -92 60 -92q47 0 114 81t115.5 191.5t48.5 186.5q0 42 -21 65t-53 23 q-57 0 -120 -77.5t-103.5 -185t-40.5 -192.5z" />
<glyph unicode="&#xe4;" horiz-adv-x="972" d="M-25 193q0 108 42.5 219t108.5 196t152 139t168 54q46 0 86.5 -10t64.5 -24t41.5 -28t24.5 -24l7 -10q55 0 100 -24t45 -73q0 -23 -29.5 -103t-59.5 -175.5t-30 -155.5q0 -25 16 -41t42 -16q31 0 65 18t60.5 44t48 52t33.5 44l12 18q16 29 41 29q17 0 30 -12t13 -29 q0 -8 -4.5 -20.5t-9.5 -20.5l-5 -9q-6 -10 -17.5 -27t-48 -60.5t-75 -76.5t-96.5 -60t-115 -27q-88 0 -146.5 45t-68.5 129q-5 -7 -15.5 -19t-42 -42t-64 -52.5t-79 -41.5t-90.5 -19q-85 0 -145 60.5t-60 152.5zM225 227q0 -92 60 -92q47 0 114 81t115.5 191.5t48.5 186.5 q0 42 -21 65t-53 23q-57 0 -120 -77.5t-103.5 -185t-40.5 -192.5zM244 963q0 55 42.5 106t98.5 51q38 0 62 -28t24 -70q0 -58 -42 -109t-103 -51q-35 0 -58.5 29t-23.5 72zM541 963q0 55 42.5 106t98.5 51q38 0 62 -28t24 -70q0 -58 -42 -109t-103 -51q-35 0 -58.5 29 t-23.5 72z" />
<glyph unicode="&#xe5;" horiz-adv-x="972" d="M-25 193q0 108 42.5 219t108.5 196t152 139t168 54q46 0 86.5 -10t64.5 -24t41.5 -28t24.5 -24l7 -10q55 0 100 -24t45 -73q0 -23 -29.5 -103t-59.5 -175.5t-30 -155.5q0 -25 16 -41t42 -16q31 0 65 18t60.5 44t48 52t33.5 44l12 18q16 29 41 29q17 0 30 -12t13 -29 q0 -8 -4.5 -20.5t-9.5 -20.5l-5 -9q-6 -10 -17.5 -27t-48 -60.5t-75 -76.5t-96.5 -60t-115 -27q-88 0 -146.5 45t-68.5 129q-5 -7 -15.5 -19t-42 -42t-64 -52.5t-79 -41.5t-90.5 -19q-85 0 -145 60.5t-60 152.5zM225 227q0 -92 60 -92q47 0 114 81t115.5 191.5t48.5 186.5 q0 42 -21 65t-53 23q-57 0 -120 -77.5t-103.5 -185t-40.5 -192.5zM395 1096q0 89 62 151t151 62t151 -62t62 -151t-62 -151t-151 -62t-151 62t-62 151zM518 1096q0 -37 26.5 -63.5t63.5 -26.5q36 0 61 26.5t25 63.5t-24.5 61.5t-61.5 24.5t-63.5 -25t-26.5 -61z" />
<glyph unicode="&#xe6;" horiz-adv-x="1232" d="M-25 193q0 108 42.5 219t108.5 196t152 139t168 54q46 0 87 -11t66.5 -27.5t44 -32.5t26.5 -27l8 -11q36 37 120 73t146 36q92 0 158.5 -65.5t66.5 -149.5q0 -32 -9.5 -69t-34 -79.5t-60.5 -76t-95.5 -56t-133.5 -22.5q-10 0 -29.5 3t-34.5 6l-14 3q0 -90 43 -140.5 t117 -50.5q55 0 107.5 19.5t88.5 47.5t64 55.5t42 47.5l13 19q18 29 45 29q17 0 30 -12t13 -29q0 -8 -6.5 -20.5t-12.5 -20.5l-6 -9q-6 -10 -17.5 -27t-53 -60.5t-89.5 -76.5t-127.5 -60t-166.5 -27q-128 0 -214.5 59.5t-113.5 161.5q-17 -21 -45.5 -50t-77 -71.5 t-105.5 -71t-106 -28.5q-85 0 -145 60.5t-60 152.5zM225 227q0 -92 60 -92q47 0 114 81t115.5 191.5t48.5 186.5q0 42 -21 65t-53 23q-57 0 -120 -77.5t-103.5 -185t-40.5 -192.5zM768 379q70 0 134 52t98 115t34 109q0 41 -37 41q-53 0 -108 -57.5t-88 -131.5t-33 -128z " />
<glyph unicode="&#xe7;" horiz-adv-x="757" d="M-8 291q0 99 42.5 194.5t108.5 163.5t148 110t160 42q103 0 168 -61.5t65 -137.5q0 -52 -41.5 -104t-81.5 -52q-41 0 -72.5 26t-31.5 60q0 24 13 43t28 29.5t28 24.5t13 28q0 17 -17.5 30t-42.5 13q-58 0 -113 -57t-88.5 -147t-33.5 -181q0 -102 56.5 -155.5t145.5 -53.5 q52 0 103.5 19.5t87.5 46.5t64.5 54.5t42.5 47.5l14 19q20 29 45 29q19 0 31 -12t12 -29q0 -8 -6 -20.5t-12 -20.5l-5 -9q-6 -8 -17 -22.5t-49 -52.5t-79.5 -68.5t-107.5 -61t-134 -40.5q0 -28 9 -51t28 -23q17 0 52.5 4t49.5 4q27 0 42.5 -19.5t15.5 -50.5 q0 -41 -21.5 -86.5t-60.5 -87t-104.5 -69t-143.5 -27.5q-63 0 -104 25.5t-41 66.5q0 33 22 58.5t51 25.5q19 0 33 -9.5t23 -21t28 -21t47 -9.5q57 0 112.5 39t55.5 61q0 10 -10 10q-31 0 -89 -15t-79 -15q-23 0 -37 17t-14 34q0 50 23 156q-65 4 -122 23t-105 54.5t-76.5 95 t-28.5 136.5z" />
<glyph unicode="&#xe8;" horiz-adv-x="731" d="M-16 281q0 90 28.5 173.5t74.5 145t103.5 108t117.5 70t114 23.5q92 0 158.5 -65.5t66.5 -149.5q0 -32 -9.5 -69t-34 -79.5t-61 -76t-96 -56t-133.5 -22.5q-10 0 -29.5 3t-33.5 6l-14 3q0 -88 52 -139.5t128 -51.5q55 0 107.5 19.5t88.5 47.5t64 55.5t42 47.5l13 19 q16 29 41 29q17 0 30 -12t13 -29q0 -8 -4.5 -20.5t-8.5 -20.5l-5 -9q-3 -5 -9 -14t-27 -35t-45.5 -50t-65 -53t-84 -49.5t-103.5 -35t-123 -14.5q-155 0 -255.5 85t-100.5 216zM246 379q70 0 134 52t98 115t34 109q0 41 -37 41q-53 0 -108 -57.5t-88 -131.5t-33 -128z M252 1098q0 33 40.5 84t65.5 51q34 0 50 -41q28 -71 84 -146.5t102 -103.5q33 -17 33 -39q0 -13 -9.5 -22t-27.5 -9q-47 0 -136.5 43t-152.5 97q-30 26 -39.5 43t-9.5 43z" />
<glyph unicode="&#xe9;" horiz-adv-x="731" d="M-16 281q0 90 28.5 173.5t74.5 145t103.5 108t117.5 70t114 23.5q92 0 158.5 -65.5t66.5 -149.5q0 -32 -9.5 -69t-34 -79.5t-61 -76t-96 -56t-133.5 -22.5q-10 0 -29.5 3t-33.5 6l-14 3q0 -88 52 -139.5t128 -51.5q55 0 107.5 19.5t88.5 47.5t64 55.5t42 47.5l13 19 q16 29 41 29q17 0 30 -12t13 -29q0 -8 -4.5 -20.5t-8.5 -20.5l-5 -9q-3 -5 -9 -14t-27 -35t-45.5 -50t-65 -53t-84 -49.5t-103.5 -35t-123 -14.5q-155 0 -255.5 85t-100.5 216zM246 379q70 0 134 52t98 115t34 109q0 41 -37 41q-53 0 -108 -57.5t-88 -131.5t-33 -128z M266 918q0 12 6.5 20t26.5 18q45 27 98 86.5t101 135.5q14 23 23.5 32t25.5 9q25 0 64.5 -51.5t39.5 -84.5q0 -26 -9.5 -43t-39.5 -43q-59 -50 -150.5 -80t-148.5 -30q-17 0 -27 9t-10 22z" />
<glyph unicode="&#xea;" horiz-adv-x="731" d="M-16 281q0 90 28.5 173.5t74.5 145t103.5 108t117.5 70t114 23.5q92 0 158.5 -65.5t66.5 -149.5q0 -32 -9.5 -69t-34 -79.5t-61 -76t-96 -56t-133.5 -22.5q-10 0 -29.5 3t-33.5 6l-14 3q0 -88 52 -139.5t128 -51.5q55 0 107.5 19.5t88.5 47.5t64 55.5t42 47.5l13 19 q16 29 41 29q17 0 30 -12t13 -29q0 -8 -4.5 -20.5t-8.5 -20.5l-5 -9q-3 -5 -9 -14t-27 -35t-45.5 -50t-65 -53t-84 -49.5t-103.5 -35t-123 -14.5q-155 0 -255.5 85t-100.5 216zM147 891q0 28 33 49q115 77 201 170q4 4 14.5 17.5t14.5 18t13.5 13t17 12t18.5 6.5t24 3 q21 0 34.5 -7t18.5 -14.5t14.5 -26.5t16.5 -30q61 -99 135 -160q22 -14 29.5 -23.5t7.5 -23.5q0 -13 -11.5 -26t-27.5 -13q-24 0 -88 27.5t-133 83.5q-12 12 -22 12q-9 0 -29 -12q-74 -42 -149 -76.5t-95 -34.5q-14 0 -25.5 11t-11.5 24zM246 379q70 0 134 52t98 115t34 109 q0 41 -37 41q-53 0 -108 -57.5t-88 -131.5t-33 -128z" />
<glyph unicode="&#xeb;" horiz-adv-x="731" d="M-16 281q0 90 28.5 173.5t74.5 145t103.5 108t117.5 70t114 23.5q92 0 158.5 -65.5t66.5 -149.5q0 -32 -9.5 -69t-34 -79.5t-61 -76t-96 -56t-133.5 -22.5q-10 0 -29.5 3t-33.5 6l-14 3q0 -88 52 -139.5t128 -51.5q55 0 107.5 19.5t88.5 47.5t64 55.5t42 47.5l13 19 q16 29 41 29q17 0 30 -12t13 -29q0 -8 -4.5 -20.5t-8.5 -20.5l-5 -9q-3 -5 -9 -14t-27 -35t-45.5 -50t-65 -53t-84 -49.5t-103.5 -35t-123 -14.5q-155 0 -255.5 85t-100.5 216zM201 983q0 56 42.5 107t98.5 51q38 0 62 -28.5t24 -70.5q0 -58 -42 -108.5t-103 -50.5 q-35 0 -58.5 28.5t-23.5 71.5zM246 379q70 0 134 52t98 115t34 109q0 41 -37 41q-53 0 -108 -57.5t-88 -131.5t-33 -128zM498 983q0 56 42.5 107t98.5 51q38 0 62 -28.5t24 -70.5q0 -58 -42 -108.5t-103 -50.5q-35 0 -58.5 28.5t-23.5 71.5z" />
<glyph unicode="&#xec;" horiz-adv-x="518" d="M-29 205q0 97 53 264t107 293q17 39 55 39q43 0 102.5 -46t59.5 -71q0 -40 -18 -100.5t-39.5 -115.5t-39.5 -130.5t-18 -142.5q0 -36 17.5 -57t48.5 -21t65 18t60.5 44t48 52t33.5 44l12 18q16 29 41 29q17 0 30 -12t13 -29q0 -8 -4.5 -20.5t-9.5 -20.5l-4 -9 q-6 -10 -17.5 -27t-48 -60.5t-75.5 -76.5t-97 -60t-115 -27q-117 0 -188.5 62.5t-71.5 162.5zM84 1114q0 33 40.5 84t65.5 51q34 0 50 -41q28 -71 84 -146.5t102 -103.5q20 -10 26.5 -18t6.5 -20q0 -13 -9.5 -22t-27.5 -9q-47 0 -136.5 42.5t-152.5 96.5q-30 26 -39.5 43 t-9.5 43z" />
<glyph unicode="&#xed;" horiz-adv-x="518" d="M-29 205q0 97 53 264t107 293q17 39 55 39q43 0 102.5 -46t59.5 -71q0 -40 -18 -100.5t-39.5 -115.5t-39.5 -130.5t-18 -142.5q0 -36 17.5 -57t48.5 -21t65 18t60.5 44t48 52t33.5 44l12 18q16 29 41 29q17 0 30 -12t13 -29q0 -8 -4.5 -20.5t-9.5 -20.5l-4 -9 q-6 -10 -17.5 -27t-48 -60.5t-75.5 -76.5t-97 -60t-115 -27q-117 0 -188.5 62.5t-71.5 162.5zM106 922q0 22 33 39q97 59 199 221q14 23 23.5 32t25.5 9q25 0 65 -51.5t40 -84.5q0 -25 -10 -42.5t-40 -43.5q-59 -50 -150.5 -80t-148.5 -30q-17 0 -27 9t-10 22z" />
<glyph unicode="&#xee;" horiz-adv-x="518" d="M-33 889q0 28 33 49q115 77 201 170q4 4 14.5 17.5t14.5 18t13.5 13t17 12t18.5 6.5t24 3q21 0 34.5 -7t18.5 -14.5t14.5 -26.5t16.5 -30q61 -99 135 -160q22 -14 29.5 -23.5t7.5 -23.5q0 -13 -11.5 -26t-27.5 -13q-24 0 -88 27.5t-133 83.5q-12 12 -23 12q-8 0 -28 -12 q-74 -42 -149 -76.5t-95 -34.5q-14 0 -25.5 11t-11.5 24zM-29 205q0 97 53 264t107 293q17 39 55 39q43 0 102.5 -46t59.5 -71q0 -40 -18 -100.5t-39.5 -115.5t-39.5 -130.5t-18 -142.5q0 -36 17.5 -57t48.5 -21t65 18t60.5 44t48 52t33.5 44l12 18q16 29 41 29q17 0 30 -12 t13 -29q0 -8 -4.5 -20.5t-9.5 -20.5l-4 -9q-6 -10 -17.5 -27t-48 -60.5t-75.5 -76.5t-97 -60t-115 -27q-117 0 -188.5 62.5t-71.5 162.5z" />
<glyph unicode="&#xef;" horiz-adv-x="518" d="M-29 205q0 97 53 264t107 293q17 39 55 39q43 0 102.5 -46t59.5 -71q0 -40 -18 -100.5t-39.5 -115.5t-39.5 -130.5t-18 -142.5q0 -36 17.5 -57t48.5 -21t65 18t60.5 44t48 52t33.5 44l12 18q16 29 41 29q17 0 30 -12t13 -29q0 -8 -4.5 -20.5t-9.5 -20.5l-4 -9 q-6 -10 -17.5 -27t-48 -60.5t-75.5 -76.5t-97 -60t-115 -27q-117 0 -188.5 62.5t-71.5 162.5zM25 995q0 56 42.5 107t98.5 51q38 0 62 -28t24 -70q0 -58 -42.5 -109t-103.5 -51q-35 0 -58 28.5t-23 71.5zM322 995q0 56 42.5 107t98.5 51q38 0 62 -28t24 -70 q0 -58 -42.5 -109t-103.5 -51q-35 0 -58 28.5t-23 71.5z" />
<glyph unicode="&#xf0;" horiz-adv-x="829" d="M-16 285q0 70 21.5 149.5t64 156.5t99 139.5t134.5 101t162 38.5l-72 101l-172 -68q-16 -5 -22 6q-8 11 -5.5 58.5t19.5 54.5l113 43q-57 80 -80 113q-13 22 -13 34q0 20 56.5 55.5t83.5 35.5q21 0 35 -19l98 -147l172 67q17 7 24 -4q8 -11 5 -59.5t-19 -55.5l-117 -45 q13 -21 51.5 -79t53.5 -81.5t42 -70t38.5 -73.5t21.5 -60.5t10 -59.5q0 -67 -22.5 -150t-66.5 -168.5t-102 -156.5t-137 -116t-163 -45q-32 0 -71 9.5t-82.5 33t-78.5 57.5t-58 87.5t-23 117.5zM203 190q0 -104 90 -104q51 0 120.5 102t119 238.5t49.5 228.5 q0 33 -21.5 58.5t-52.5 25.5q-53 0 -126 -92t-126 -223.5t-53 -233.5z" />
<glyph unicode="&#xf1;" horiz-adv-x="1001" d="M-35 92q0 236 166 649q16 39 55 39q73 0 144 -110q6 5 17 14t45.5 31.5t70.5 40t87.5 31.5t100.5 14q66 0 120 -57t54 -119q0 -59 -54 -206t-54 -224q0 -36 17.5 -57t47.5 -21q31 0 65 18t60.5 44t48 52t33.5 44l12 18q16 29 41 29q17 0 30 -12t13 -29q0 -8 -4.5 -20.5 t-8.5 -20.5l-5 -9q-6 -10 -17.5 -27t-48 -60.5t-75 -76.5t-96.5 -60t-115 -27q-115 0 -187.5 59t-72.5 147q0 71 26 155t52 159t26 125q0 13 -12 22.5t-29 9.5q-37 0 -79.5 -28t-84.5 -84t-75.5 -130.5t-54.5 -178t-21 -216.5q0 -25 -10.5 -32.5t-34.5 -7.5q-83 0 -138 31.5 t-55 80.5zM195 952q0 16 22 47q33 46 85 86.5t101 40.5q50 0 170.5 -38.5t171.5 -38.5q38 0 87 23.5t55 23.5q10 0 18 -5.5t8 -15.5q0 -19 -12 -39q-99 -143 -196 -143q-49 0 -180 37t-179 37q-29 0 -74 -20.5t-51 -20.5q-10 0 -18 7.5t-8 18.5z" />
<glyph unicode="&#xf2;" d="M-12 268q0 124 44 227.5t114 168.5t152.5 101t164.5 36q131 0 216 -82.5t85 -220.5q0 -82 -33.5 -173t-93.5 -167q20 -4 33 -4q39 0 78 14.5t67 35t50.5 40.5t34.5 34l11 15q16 29 41 29q17 0 30 -12t13 -29q0 -8 -4.5 -20.5t-8.5 -20.5l-5 -9q-5 -7 -14 -19t-42 -42.5 t-71 -53.5t-100 -42t-129 -19q-37 0 -80 6q-105 -81 -234 -81t-224 84.5t-95 203.5zM229 217q0 -62 27 -100.5t72 -38.5q33 0 63 24q-35 21 -35 50q0 32 38 66t65 34q10 0 22 -4q30 74 47 161.5t17 157.5q0 129 -80 129q-35 0 -76 -37t-76.5 -98.5t-59.5 -153t-24 -190.5z M317 1112q0 33 41 84t66 51q33 0 49 -41q28 -71 84 -146.5t102 -103.5q20 -10 26.5 -18t6.5 -20q0 -13 -9.5 -22t-27.5 -9q-47 0 -136 42.5t-152 96.5q-30 26 -40 43.5t-10 42.5z" />
<glyph unicode="&#xf3;" d="M-12 268q0 124 44 227.5t114 168.5t152.5 101t164.5 36q131 0 216 -82.5t85 -220.5q0 -82 -33.5 -173t-93.5 -167q20 -4 33 -4q39 0 78 14.5t67 35t50.5 40.5t34.5 34l11 15q16 29 41 29q17 0 30 -12t13 -29q0 -8 -4.5 -20.5t-8.5 -20.5l-5 -9q-5 -7 -14 -19t-42 -42.5 t-71 -53.5t-100 -42t-129 -19q-37 0 -80 6q-105 -81 -234 -81t-224 84.5t-95 203.5zM229 217q0 -62 27 -100.5t72 -38.5q33 0 63 24q-35 21 -35 50q0 32 38 66t65 34q10 0 22 -4q30 74 47 161.5t17 157.5q0 129 -80 129q-35 0 -76 -37t-76.5 -98.5t-59.5 -153t-24 -190.5z M356 926q0 22 33 39q97 59 199 221q14 23 23.5 32t25.5 9q25 0 64.5 -51t39.5 -84q0 -26 -9.5 -43t-39.5 -43q-59 -50 -150.5 -80.5t-148.5 -30.5q-17 0 -27 9t-10 22z" />
<glyph unicode="&#xf4;" d="M-12 268q0 124 44 227.5t114 168.5t152.5 101t164.5 36q131 0 216 -82.5t85 -220.5q0 -82 -33.5 -173t-93.5 -167q20 -4 33 -4q39 0 78 14.5t67 35t50.5 40.5t34.5 34l11 15q16 29 41 29q17 0 30 -12t13 -29q0 -8 -4.5 -20.5t-8.5 -20.5l-5 -9q-5 -7 -14 -19t-42 -42.5 t-71 -53.5t-100 -42t-129 -19q-37 0 -80 6q-105 -81 -234 -81t-224 84.5t-95 203.5zM213 883q0 28 33 49q112 75 200 170q3 4 12.5 15t12.5 15t11.5 12.5t14 11.5t14 7.5t18 6t20.5 1.5q21 0 34.5 -6.5t18.5 -14t14.5 -26.5t16.5 -30q61 -99 135 -160q22 -14 29.5 -23.5 t7.5 -23.5q0 -13 -11.5 -26t-27.5 -13q-25 0 -88.5 27t-132.5 83q-13 13 -23 13q-6 0 -28 -13q-73 -41 -148.5 -75.5t-95.5 -34.5q-14 0 -25.5 11t-11.5 24zM229 217q0 -62 27 -100.5t72 -38.5q33 0 63 24q-35 21 -35 50q0 32 38 66t65 34q10 0 22 -4q30 74 47 161.5 t17 157.5q0 129 -80 129q-35 0 -76 -37t-76.5 -98.5t-59.5 -153t-24 -190.5z" />
<glyph unicode="&#xf5;" d="M-12 268q0 124 44 227.5t114 168.5t152.5 101t164.5 36q131 0 216 -82.5t85 -220.5q0 -82 -33.5 -173t-93.5 -167q20 -4 33 -4q39 0 78 14.5t67 35t50.5 40.5t34.5 34l11 15q16 29 41 29q17 0 30 -12t13 -29q0 -8 -4.5 -20.5t-8.5 -20.5l-5 -9q-5 -7 -14 -19t-42 -42.5 t-71 -53.5t-100 -42t-129 -19q-37 0 -80 6q-105 -81 -234 -81t-224 84.5t-95 203.5zM178 928q0 15 23 47q33 46 85 86.5t101 40.5q50 0 170.5 -39t171.5 -39q38 0 86.5 23.5t54.5 23.5q27 0 27 -20q0 -19 -12 -39q-100 -144 -197 -144q-49 0 -179.5 37t-178.5 37 q-29 0 -74 -20.5t-51 -20.5q-10 0 -18.5 8t-8.5 19zM229 217q0 -62 27 -100.5t72 -38.5q33 0 63 24q-35 21 -35 50q0 32 38 66t65 34q10 0 22 -4q30 74 47 161.5t17 157.5q0 129 -80 129q-35 0 -76 -37t-76.5 -98.5t-59.5 -153t-24 -190.5z" />
<glyph unicode="&#xf6;" d="M-12 268q0 124 44 227.5t114 168.5t152.5 101t164.5 36q131 0 216 -82.5t85 -220.5q0 -82 -33.5 -173t-93.5 -167q20 -4 33 -4q39 0 78 14.5t67 35t50.5 40.5t34.5 34l11 15q16 29 41 29q17 0 30 -12t13 -29q0 -8 -4.5 -20.5t-8.5 -20.5l-5 -9q-5 -7 -14 -19t-42 -42.5 t-71 -53.5t-100 -42t-129 -19q-37 0 -80 6q-105 -81 -234 -81t-224 84.5t-95 203.5zM229 217q0 -62 27 -100.5t72 -38.5q33 0 63 24q-35 21 -35 50q0 32 38 66t65 34q10 0 22 -4q30 74 47 161.5t17 157.5q0 129 -80 129q-35 0 -76 -37t-76.5 -98.5t-59.5 -153t-24 -190.5z M274 989q0 55 43 106.5t99 51.5q38 0 62 -28t24 -70q0 -58 -42.5 -109t-103.5 -51q-35 0 -58.5 28.5t-23.5 71.5zM571 989q0 55 43 106.5t99 51.5q38 0 62 -28t24 -70q0 -58 -42.5 -109t-103.5 -51q-35 0 -58.5 28.5t-23.5 71.5z" />
<glyph unicode="&#xf7;" horiz-adv-x="993" d="M82 633q0 26 31 90.5t55 64.5h747q22 0 29.5 -5.5t7.5 -22.5q0 -25 -34 -92.5t-58 -67.5h-747q-31 0 -31 33zM315 354q0 55 45 106.5t103 51.5q40 0 65 -28t25 -70q0 -58 -44 -109t-108 -51q-37 0 -61.5 28.5t-24.5 71.5zM479 985q0 55 45 106.5t103 51.5 q39 0 64.5 -28.5t25.5 -70.5q0 -58 -45 -108.5t-109 -50.5q-37 0 -60.5 28.5t-23.5 71.5z" />
<glyph unicode="&#xf8;" d="M-12 268q0 124 44 227.5t114 168.5t152.5 101t164.5 36q18 0 26 -2l27 57q9 18 29 18q35 0 67.5 -8.5t32.5 -19.5q0 -13 -8 -29l-25 -51q71 -36 111.5 -105.5t40.5 -162.5q0 -82 -33.5 -173t-93.5 -167q20 -4 33 -4q39 0 78 14.5t67 35t50.5 40.5t34.5 34l11 15 q16 29 41 29q17 0 30 -12t13 -29q0 -8 -4.5 -20.5t-8.5 -20.5l-5 -9q-5 -7 -14 -19t-42 -42.5t-71 -53.5t-100 -42t-129 -19q-37 0 -80 6q-105 -81 -234 -81q-19 0 -51 4l-12 -29q-6 -18 -27 -18h-55q-43 0 -43 20q0 11 6 23l18 40q-70 39 -112.5 105t-42.5 143zM229 217 q0 -62 27 -100.5t72 -38.5q33 0 63 24q-35 21 -35 50q0 32 38 66t65 34q10 0 22 -4q30 74 47 161.5t17 157.5q0 129 -80 129q-35 0 -76 -37t-76.5 -98.5t-59.5 -153t-24 -190.5z" />
<glyph unicode="&#xf9;" horiz-adv-x="999" d="M-29 178q0 98 55.5 283.5t104.5 300.5q17 39 55 39q43 0 102.5 -46t59.5 -71q0 -49 -33 -136.5t-66.5 -190t-33.5 -187.5q0 -26 12.5 -43.5t34.5 -17.5q47 0 100 45.5t80 99.5q24 47 86.5 251t85.5 257q17 39 58 39q42 0 100.5 -46t58.5 -71q0 -49 -29 -130.5t-58 -177.5 t-29 -181q0 -36 17.5 -57t47.5 -21q31 0 65 18t60.5 44t48 52t33.5 44l12 18q16 29 41 29q17 0 30 -12t13 -29q0 -8 -4.5 -20.5t-8.5 -20.5l-5 -9q-6 -10 -17.5 -27t-48 -60.5t-75 -76.5t-96.5 -60t-115 -27q-107 0 -166.5 43.5t-81.5 109.5q-55 -64 -131 -108.5t-150 -44.5 q-75 0 -144 59.5t-69 138.5zM201 1102q0 33 40.5 84t65.5 51q33 0 49 -41q28 -71 84.5 -146.5t102.5 -103.5q19 -10 25.5 -18t6.5 -21q0 -30 -36 -30q-47 0 -136.5 42.5t-152.5 96.5q-30 26 -39.5 43t-9.5 43z" />
<glyph unicode="&#xfa;" horiz-adv-x="999" d="M-29 178q0 98 55.5 283.5t104.5 300.5q17 39 55 39q43 0 102.5 -46t59.5 -71q0 -49 -33 -136.5t-66.5 -190t-33.5 -187.5q0 -26 12.5 -43.5t34.5 -17.5q47 0 100 45.5t80 99.5q24 47 86.5 251t85.5 257q17 39 58 39q42 0 100.5 -46t58.5 -71q0 -49 -29 -130.5t-58 -177.5 t-29 -181q0 -36 17.5 -57t47.5 -21q31 0 65 18t60.5 44t48 52t33.5 44l12 18q16 29 41 29q17 0 30 -12t13 -29q0 -8 -4.5 -20.5t-8.5 -20.5l-5 -9q-6 -10 -17.5 -27t-48 -60.5t-75 -76.5t-96.5 -60t-115 -27q-107 0 -166.5 43.5t-81.5 109.5q-55 -64 -131 -108.5t-150 -44.5 q-75 0 -144 59.5t-69 138.5zM328 901q0 13 6.5 21t25.5 18q97 59 199 221q14 23 23.5 32t25.5 9q25 0 65 -51t40 -84q0 -26 -9.5 -43t-39.5 -43q-59 -50 -150.5 -80.5t-148.5 -30.5q-17 0 -27 9t-10 22z" />
<glyph unicode="&#xfb;" horiz-adv-x="999" d="M-29 178q0 98 55.5 283.5t104.5 300.5q17 39 55 39q43 0 102.5 -46t59.5 -71q0 -49 -33 -136.5t-66.5 -190t-33.5 -187.5q0 -26 12.5 -43.5t34.5 -17.5q47 0 100 45.5t80 99.5q24 47 86.5 251t85.5 257q17 39 58 39q42 0 100.5 -46t58.5 -71q0 -49 -29 -130.5t-58 -177.5 t-29 -181q0 -36 17.5 -57t47.5 -21q31 0 65 18t60.5 44t48 52t33.5 44l12 18q16 29 41 29q17 0 30 -12t13 -29q0 -8 -4.5 -20.5t-8.5 -20.5l-5 -9q-6 -10 -17.5 -27t-48 -60.5t-75 -76.5t-96.5 -60t-115 -27q-107 0 -166.5 43.5t-81.5 109.5q-55 -64 -131 -108.5t-150 -44.5 q-75 0 -144 59.5t-69 138.5zM236 936q0 29 32 49q115 77 201 170q4 4 14.5 17.5t14.5 18t13.5 13t17 12t18.5 6.5t24 3q21 0 34.5 -7t18.5 -14.5t14.5 -26.5t16.5 -30q60 -97 136 -160q21 -14 28.5 -23.5t7.5 -23.5q0 -13 -11.5 -26t-27.5 -13q-24 0 -88 27.5t-133 83.5 q-12 12 -22 12q-9 0 -29 -12q-74 -42 -149 -76.5t-95 -34.5q-14 0 -25 11t-11 24z" />
<glyph unicode="&#xfc;" horiz-adv-x="999" d="M-29 178q0 98 55.5 283.5t104.5 300.5q17 39 55 39q43 0 102.5 -46t59.5 -71q0 -49 -33 -136.5t-66.5 -190t-33.5 -187.5q0 -26 12.5 -43.5t34.5 -17.5q47 0 100 45.5t80 99.5q24 47 86.5 251t85.5 257q17 39 58 39q42 0 100.5 -46t58.5 -71q0 -49 -29 -130.5t-58 -177.5 t-29 -181q0 -36 17.5 -57t47.5 -21q31 0 65 18t60.5 44t48 52t33.5 44l12 18q16 29 41 29q17 0 30 -12t13 -29q0 -8 -4.5 -20.5t-8.5 -20.5l-5 -9q-6 -10 -17.5 -27t-48 -60.5t-75 -76.5t-96.5 -60t-115 -27q-107 0 -166.5 43.5t-81.5 109.5q-55 -64 -131 -108.5t-150 -44.5 q-75 0 -144 59.5t-69 138.5zM254 1010q0 55 42.5 106t98.5 51q38 0 62 -28t24 -70q0 -58 -42 -109t-103 -51q-35 0 -58.5 29t-23.5 72zM551 1010q0 55 42.5 106t98.5 51q38 0 62 -28t24 -70q0 -58 -42 -109t-103 -51q-35 0 -58.5 29t-23.5 72z" />
<glyph unicode="&#xfd;" horiz-adv-x="954" d="M-20 178q0 98 55 284t104 300q17 39 56 39q43 0 102 -46t59 -71q0 -42 -33 -133.5t-66.5 -197.5t-33.5 -183q0 -26 12.5 -43.5t34.5 -17.5q46 0 98.5 46t82.5 99q27 49 55 123t44 127.5t41 143t32 114.5q4 18 20 28.5t37 10.5q42 0 101 -46t59 -71q0 -40 -41 -205 t-90 -334l-25 -92q169 100 270 240q20 29 45 29q19 0 31 -12t12 -29q0 -8 -5.5 -20.5t-10.5 -20.5l-6 -9q-126 -169 -367 -294q-20 -70 -39 -125t-46 -119t-59.5 -110t-73 -86t-92.5 -60.5t-112 -20.5q-94 0 -162.5 57t-68.5 138q0 41 21.5 78.5t56.5 68t93 63t116 58 t141 58.5q22 85 45 196q-55 -64 -130.5 -108.5t-149.5 -44.5q-75 0 -144 59.5t-69 138.5zM143 -434q0 -41 37 -41q63 0 116.5 79.5t94.5 205.5q-107 -61 -177.5 -131t-70.5 -113zM334 889q0 22 33 39q95 58 198 221q14 23 23.5 32t25.5 9q25 0 65 -51t40 -84q0 -26 -9.5 -43 t-39.5 -43q-59 -50 -150.5 -80.5t-148.5 -30.5q-17 0 -27 9t-10 22z" />
<glyph unicode="&#xff;" horiz-adv-x="954" d="M-20 178q0 98 55 284t104 300q17 39 56 39q43 0 102 -46t59 -71q0 -42 -33 -133.5t-66.5 -197.5t-33.5 -183q0 -26 12.5 -43.5t34.5 -17.5q46 0 98.5 46t82.5 99q27 49 55 123t44 127.5t41 143t32 114.5q4 18 20 28.5t37 10.5q42 0 101 -46t59 -71q0 -40 -41 -205 t-90 -334l-25 -92q169 100 270 240q20 29 45 29q19 0 31 -12t12 -29q0 -8 -5.5 -20.5t-10.5 -20.5l-6 -9q-126 -169 -367 -294q-20 -70 -39 -125t-46 -119t-59.5 -110t-73 -86t-92.5 -60.5t-112 -20.5q-94 0 -162.5 57t-68.5 138q0 41 21.5 78.5t56.5 68t93 63t116 58 t141 58.5q22 85 45 196q-55 -64 -130.5 -108.5t-149.5 -44.5q-75 0 -144 59.5t-69 138.5zM143 -434q0 -41 37 -41q63 0 116.5 79.5t94.5 205.5q-107 -61 -177.5 -131t-70.5 -113zM256 1008q0 55 42.5 106t98.5 51q38 0 62 -28t24 -70q0 -58 -42 -109t-103 -51 q-35 0 -58.5 29t-23.5 72zM553 1008q0 55 42.5 106t98.5 51q38 0 62 -28t24 -70q0 -58 -42 -109t-103 -51q-35 0 -58.5 29t-23.5 72z" />
<glyph unicode="&#x152;" horiz-adv-x="1726" d="M2 455q0 196 72 387.5t183.5 330.5t251 224.5t271.5 85.5q124 0 229 -56t167 -153q86 94 220 151.5t265 57.5q111 0 187.5 -51.5t76.5 -131.5q0 -50 -47.5 -106t-99.5 -89.5t-74 -33.5q-17 0 -26 7.5t-9 17.5q0 11 14 34t31 47.5t31 64.5t14 81q0 32 -30 52t-74 20 q-54 0 -110.5 -29t-102.5 -77.5t-75.5 -119t-29.5 -147.5q0 -44 12.5 -86.5t24.5 -63.5l12 -20q58 12 142 12q121 0 121 -71q0 -34 -37.5 -64.5t-93.5 -30.5q-44 0 -85.5 10t-60.5 20l-20 9q-6 -3 -15.5 -9t-37.5 -26t-54 -43t-57 -60.5t-53.5 -77.5t-38 -94t-15.5 -110 q0 -127 69 -190.5t200 -63.5q100 0 203 70t173 160q18 29 43 29q19 0 31 -12t12 -29q0 -8 -5.5 -20.5t-10.5 -20.5l-6 -9q-34 -47 -79 -91.5t-109.5 -92t-149 -77t-172.5 -29.5q-136 0 -256 49.5t-180 146.5q-187 -157 -400 -157q-88 0 -168.5 36t-141 98t-96.5 151t-36 190 zM250 502q0 -180 72 -288t167 -108q79 0 169 104.5t162 261t119.5 352t47.5 364.5q0 84 -43 133t-106 49q-122 0 -221 -116.5t-99 -276.5q0 -90 44.5 -147.5t101.5 -57.5q17 0 31 4t18 4q24 0 24 -24q0 -15 -16.5 -33t-58.5 -34.5t-99 -16.5q-87 0 -161 84.5t-74 206.5 q-3 -6 -8.5 -18.5t-19 -56.5t-23.5 -93t-18.5 -128.5t-8.5 -164.5z" />
<glyph unicode="&#x153;" horiz-adv-x="1243" d="M-12 268q0 124 44 227.5t114 168.5t152.5 101t164.5 36q74 0 137 -29t102 -82q60 52 126.5 81.5t125.5 29.5q92 0 159 -66t67 -149q0 -32 -9.5 -69t-34 -79.5t-61 -76t-96 -56t-133.5 -22.5q-10 0 -29.5 3t-34.5 6l-14 3q0 -90 43 -140.5t117 -50.5q55 0 107.5 19.5 t88.5 47.5t64 55.5t42 47.5l13 19q18 29 45 29q17 0 30 -12t13 -29q0 -8 -6 -20.5t-12 -20.5l-6 -9q-6 -10 -17.5 -27t-53 -60.5t-90 -76.5t-128 -60t-166.5 -27q-181 0 -272 112q-122 -112 -273 -112q-129 0 -224 84.5t-95 203.5zM229 217q0 -62 27 -100.5t72 -38.5 q47 0 89 51.5t69 127.5t43 159t16 151q0 129 -80 129q-35 0 -76 -37t-76.5 -98.5t-59.5 -153t-24 -190.5zM778 379q70 0 134 52t98 115t34 109q0 41 -36 41q-53 0 -108.5 -57.5t-88.5 -131.5t-33 -128z" />
<glyph unicode="&#x178;" horiz-adv-x="1583" d="M0 1012q0 121 116.5 232.5t281 175t315.5 63.5q125 0 212 -68t87 -166q0 -77 -27 -167.5t-65 -171t-76 -157t-65 -149t-27 -123.5q0 -50 25.5 -84.5t70.5 -34.5t100.5 33.5t108 88t92.5 103t74 97.5l24 76q69 217 114 317.5t136 255.5q29 51 79 83t93 42t84 10 q59 0 59 -28q0 -17 -49 -74q-44 -53 -131.5 -240.5t-144.5 -380.5q-24 -81 -65.5 -226.5t-72.5 -251t-59 -193.5q202 76 293 219q16 29 41 29q17 0 30 -12t13 -29q0 -8 -4.5 -20.5t-8.5 -20.5l-5 -9q-104 -173 -400 -276q-48 -129 -98.5 -222.5t-115.5 -168t-147.5 -111.5 t-182.5 -37q-102 0 -190.5 44t-137.5 110t-49 133q0 35 13 65.5t31.5 54t54 44.5t66.5 35.5t83.5 28.5t90 22.5t101 18t101.5 15t106 13.5q10 0 16 2q61 154 135 383q-219 -209 -403 -209q-107 0 -195 73t-88 167q0 68 31 157.5t75 178t88.5 177t75.5 179.5t31 160 q0 43 -18 67.5t-70 24.5q-38 0 -90 -20.5t-106.5 -57.5t-101.5 -83.5t-77 -105.5t-30 -116q0 -43 16 -81.5t35 -60t35 -40.5t16 -27q0 -41 -43 -41q-42 0 -95 22.5t-100 59t-79.5 91t-32.5 112.5zM530 -369q0 -40 31 -69t70 -29q84 0 157.5 84.5t149.5 257.5 q-174 -33 -291 -101t-117 -143zM1044 1614q0 55 43 106.5t99 51.5q38 0 62 -28.5t24 -70.5q0 -58 -42.5 -109t-103.5 -51q-35 0 -58.5 29t-23.5 72zM1341 1614q0 55 43 106.5t99 51.5q38 0 62 -28.5t24 -70.5q0 -58 -42.5 -109t-103.5 -51q-35 0 -58.5 29t-23.5 72z" />
<glyph unicode="&#x2c6;" horiz-adv-x="614" d="M12 993q0 28 33 49q115 77 201 170q4 4 14.5 17.5t14.5 18t13.5 13t17 12t18.5 6.5t24 3q21 0 34.5 -7t18.5 -14.5t14.5 -26.5t16.5 -30q61 -99 135 -160q22 -14 29.5 -23.5t7.5 -23.5q0 -13 -11.5 -26t-27.5 -13q-24 0 -88 27.5t-133 83.5q-12 12 -22 12q-9 0 -29 -12 q-74 -42 -149 -76.5t-95 -34.5q-15 0 -26 11t-11 24z" />
<glyph unicode="&#x2dc;" horiz-adv-x="765" d="M20 1034q0 15 23 47q33 46 85 86.5t101 40.5q50 0 170.5 -39t171.5 -39q38 0 87 24t55 24q10 0 18 -5.5t8 -15.5q0 -19 -12 -39q-99 -143 -197 -143q-49 0 -179.5 37t-178.5 37q-29 0 -74 -20.5t-51 -20.5q-10 0 -18.5 7.5t-8.5 18.5z" />
<glyph unicode="&#x2000;" horiz-adv-x="995" />
<glyph unicode="&#x2001;" horiz-adv-x="1991" />
<glyph unicode="&#x2002;" horiz-adv-x="995" />
<glyph unicode="&#x2003;" horiz-adv-x="1991" />
<glyph unicode="&#x2004;" horiz-adv-x="663" />
<glyph unicode="&#x2005;" horiz-adv-x="497" />
<glyph unicode="&#x2006;" horiz-adv-x="331" />
<glyph unicode="&#x2007;" horiz-adv-x="331" />
<glyph unicode="&#x2008;" horiz-adv-x="248" />
<glyph unicode="&#x2009;" horiz-adv-x="398" />
<glyph unicode="&#x200a;" horiz-adv-x="110" />
<glyph unicode="&#x2010;" horiz-adv-x="890" d="M35 643q0 12 8.5 20.5t17.5 8.5t51 -24.5t83 -24.5q115 0 282.5 23.5t218.5 23.5q49 0 111.5 -67t62.5 -99q0 -11 -11 -22t-19 -11q-1 0 -47.5 20.5t-87.5 20.5q-66 0 -137.5 -17t-122 -37.5t-109 -37.5t-100.5 -17q-48 0 -97.5 52.5t-76.5 108t-27 79.5z" />
<glyph unicode="&#x2011;" horiz-adv-x="890" d="M35 643q0 12 8.5 20.5t17.5 8.5t51 -24.5t83 -24.5q115 0 282.5 23.5t218.5 23.5q49 0 111.5 -67t62.5 -99q0 -11 -11 -22t-19 -11q-1 0 -47.5 20.5t-87.5 20.5q-66 0 -137.5 -17t-122 -37.5t-109 -37.5t-100.5 -17q-48 0 -97.5 52.5t-76.5 108t-27 79.5z" />
<glyph unicode="&#x2012;" horiz-adv-x="890" d="M35 643q0 12 8.5 20.5t17.5 8.5t51 -24.5t83 -24.5q115 0 282.5 23.5t218.5 23.5q49 0 111.5 -67t62.5 -99q0 -11 -11 -22t-19 -11q-1 0 -47.5 20.5t-87.5 20.5q-66 0 -137.5 -17t-122 -37.5t-109 -37.5t-100.5 -17q-48 0 -97.5 52.5t-76.5 108t-27 79.5z" />
<glyph unicode="&#x2013;" horiz-adv-x="1212" d="M35 643q0 12 8.5 20.5t17.5 8.5t33.5 -12t67.5 -24.5t98 -12.5q115 0 404 23.5t340 23.5q49 0 111.5 -67t62.5 -99q0 -11 -11.5 -22t-19.5 -11q-1 0 -48 20.5t-87 20.5q-97 0 -213 -17t-202.5 -37.5t-172 -37.5t-127.5 -17q-47 0 -91 21t-74 51.5t-53 65t-33.5 61.5 t-10.5 41z" />
<glyph unicode="&#x2014;" horiz-adv-x="1622" d="M35 643q0 12 8.5 20.5t17.5 8.5t33.5 -12t67.5 -24.5t98 -12.5q108 0 542.5 23.5t522.5 23.5q50 0 100.5 -21t84.5 -49t55.5 -55t21.5 -41q0 -11 -11.5 -22t-19.5 -11q-2 0 -79 20.5t-117 20.5q-162 0 -589.5 -54.5t-473.5 -54.5q-47 0 -91 21t-74 51.5t-53 65 t-33.5 61.5t-10.5 41z" />
<glyph unicode="&#x2018;" horiz-adv-x="227" d="M41 1126q0 51 30 109t69.5 99.5t77 69.5t54.5 28q12 0 20.5 -8t8.5 -19q0 -15 -16.5 -40t-32.5 -62t-16 -80q0 -19 11 -48t11 -51q0 -46 -29 -76t-79 -30q-109 0 -109 108z" />
<glyph unicode="&#x2019;" horiz-adv-x="342" d="M113 1044q0 14 16.5 39t32.5 62.5t16 81.5q0 18 -11 46t-11 50q0 47 29 78t79 31q109 0 109 -111q0 -51 -30 -108.5t-69.5 -98.5t-77 -68.5t-53.5 -27.5q-30 0 -30 26z" />
<glyph unicode="&#x201a;" horiz-adv-x="303" d="M47 -193q0 10 12.5 67t12.5 116q0 18 -11.5 46t-11.5 50q0 47 29.5 78t79.5 31q108 0 108 -111q0 -52 -38.5 -126.5t-83.5 -125.5t-66 -51q-14 0 -22.5 7t-8.5 19z" />
<glyph unicode="&#x201c;" horiz-adv-x="448" d="M6 1126q0 51 30 109t70 99.5t77.5 69.5t54.5 28q12 0 20 -8t8 -19q0 -15 -16 -40t-32.5 -62t-16.5 -80q0 -19 11 -48t11 -51q0 -46 -29 -76t-79 -30q-109 0 -109 108zM289 1126q0 51 29.5 109t69 99.5t76.5 69.5t54 28q13 0 21 -8t8 -19q0 -15 -16.5 -40t-33 -62 t-16.5 -80q0 -19 11.5 -48t11.5 -51q0 -46 -28.5 -76t-78.5 -30q-108 0 -108 108z" />
<glyph unicode="&#x201d;" horiz-adv-x="653" d="M113 1044q0 14 16.5 39t32.5 62.5t16 81.5q0 18 -11 46t-11 50q0 47 29 78t79 31q109 0 109 -111q0 -51 -30 -108.5t-69.5 -98.5t-77 -68.5t-53.5 -27.5q-30 0 -30 26zM395 1044q0 14 16.5 39t33 62.5t16.5 81.5q0 18 -11.5 46t-11.5 50q0 47 28.5 78t78.5 31 q108 0 108 -111q0 -51 -29.5 -108.5t-69 -98.5t-76.5 -68.5t-54 -27.5q-29 0 -29 26z" />
<glyph unicode="&#x201e;" horiz-adv-x="616" d="M6 -166q0 14 16.5 38.5t33 62t16.5 81.5q0 18 -11.5 46.5t-11.5 50.5q0 47 29.5 77.5t79.5 30.5q108 0 108 -110q0 -51 -30 -108.5t-69.5 -99t-76.5 -69t-53 -27.5q-14 0 -22.5 7.5t-8.5 19.5zM309 -166q0 14 16.5 38.5t33 62t16.5 81.5q0 18 -11.5 46.5t-11.5 50.5 q0 47 28.5 77.5t78.5 30.5q108 0 108 -110q0 -51 -29.5 -108.5t-69 -99t-76.5 -69t-54 -27.5q-29 0 -29 27z" />
<glyph unicode="&#x2022;" horiz-adv-x="286" d="M0 541q0 58 49.5 113t110.5 55q47 0 76.5 -28t29.5 -77q0 -60 -47 -116t-113 -56q-49 0 -77.5 29.5t-28.5 79.5z" />
<glyph unicode="&#x2026;" horiz-adv-x="1216" d="M23 90q0 58 49 113t110 55q47 0 77 -28t30 -76q0 -60 -47 -116t-113 -56q-49 0 -77.5 29t-28.5 79zM428 90q0 58 49.5 113t110.5 55q47 0 76.5 -28t29.5 -76q0 -60 -46.5 -116t-112.5 -56q-49 0 -78 29t-29 79zM834 90q0 58 49 113t110 55q47 0 77 -28t30 -76 q0 -60 -47 -116t-113 -56q-49 0 -77.5 29t-28.5 79z" />
<glyph unicode="&#x202f;" horiz-adv-x="398" />
<glyph unicode="&#x2039;" horiz-adv-x="698" d="M41 682q0 17 2 32.5t4 26.5t9 25.5t9.5 21.5t14.5 23t15.5 21t20 25t21.5 26q66 81 350 331q38 33 64 33q27 0 66.5 -40.5t39.5 -71.5q0 -5 -1 -9t-1.5 -7t-3 -7t-3.5 -6.5t-5 -6.5l-5.5 -5.5l-6.5 -6.5l-6 -6q-219 -198 -310 -295q-53 -57 -53 -102q0 -37 45 -86 q113 -123 320 -317q19 -16 24.5 -25.5t5.5 -28.5q0 -29 -37.5 -69.5t-68.5 -40.5q-27 0 -53 22q-212 188 -367 355q-22 24 -31 35.5t-26.5 37.5t-25 54.5t-7.5 60.5z" />
<glyph unicode="&#x203a;" horiz-adv-x="698" d="M41 227q0 19 6 28t25 26q200 187 319 317q45 49 45 86q0 45 -53 102q-97 103 -309 295l-8 8l-8.5 8.5t-6 7.5t-6 9.5t-3 9t-1.5 11.5q0 31 39.5 71.5t66.5 40.5q26 0 64 -33q284 -250 350 -331q5 -6 21.5 -26t20 -25t15.5 -21t14.5 -23t9.5 -21.5t9 -25.5t4 -26.5 t2 -32.5q0 -32 -7.5 -60.5t-25 -54.5t-26.5 -37.5t-31 -35.5q-160 -172 -366 -355q-26 -22 -54 -22q-31 0 -68.5 40.5t-37.5 69.5z" />
<glyph unicode="&#x205f;" horiz-adv-x="497" />
<glyph unicode="&#x20ac;" horiz-adv-x="1071" d="M-12 459q0 26 21 70t44 44h56q4 47 20 127h-70q-30 0 -30 33q0 26 21 70.5t44 44.5h76q86 229 278 369.5t412 140.5q153 0 236.5 -67t83.5 -163q0 -64 -52 -131.5t-114 -107t-101 -39.5q-15 0 -23.5 10t-8.5 25q0 4 22.5 75t22.5 138q0 60 -29 88t-74 28 q-100 0 -211 -113.5t-157 -252.5h243q22 0 29.5 -6t7.5 -23q0 -26 -23.5 -72.5t-47.5 -46.5h-242q-13 -71 -16 -127h251q22 0 29.5 -5.5t7.5 -22.5q0 -26 -23.5 -72.5t-47.5 -46.5h-224q0 -115 79.5 -198t207.5 -83q126 0 252 115q36 31 51 31q29 0 29 -29q0 -20 -17 -53 t-54.5 -73t-88 -74.5t-126 -58t-159.5 -23.5q-92 0 -174 29t-146.5 83.5t-104 140.5t-44.5 193h-86q-30 0 -30 33z" />
<glyph unicode="&#x2122;" horiz-adv-x="1224" d="M23 1188v69q0 17 20 17h463q18 0 18 -17v-69q0 -9 -5 -15t-13 -6h-174v-538q0 -19 -17 -19h-84q-16 0 -16 19v538h-172q-20 0 -20 21zM514 629l41 628q0 7 6 12t14 5h105q4 0 10 -3t6 -5q144 -416 156 -459q11 43 160 459q0 2 7 5t11 3h103q18 0 18 -17l41 -628 q0 -7 -6.5 -13t-14.5 -6h-77q-8 0 -14.5 5t-6.5 12q-6 141 -11 238.5t-7.5 137.5t-3.5 62q-23 -75 -78 -220t-78 -218q-1 -6 -7 -10.5t-11 -4.5h-62q-6 0 -11 4.5t-5 10.5q-45 134 -78 227.5t-42.5 118.5t-14.5 41.5t-11 40.5l-26 -428q0 -7 -5.5 -12t-11.5 -5h-78 q-7 0 -12.5 5.5t-5.5 13.5z" />
<glyph unicode="&#x25fc;" horiz-adv-x="798" d="M0 0v799h799v-799h-799z" />
</font>
</defs>
</svg>
